<svg width="16" height="15" viewBox="0 0 16 15" fill="none" xmlns="http://www.w3.org/2000/svg">
<path fill-rule="evenodd" clip-rule="evenodd" d="M1.23091 1.20661V5.79174H14.7691V1.20661H1.23091ZM14.5528 6.99835H1.44716L1.78739 8.08938C1.84127 8.26238 1.95044 8.41408 2.0987 8.52173C2.2469 8.62933 2.42641 8.68747 2.61082 8.6876H3.56932C3.90918 8.6876 4.18469 8.95771 4.18469 9.29091C4.18469 9.62411 3.90918 9.89422 3.56932 9.89422H2.61082C2.16274 9.89403 1.72631 9.75283 1.36623 9.49139C1.00621 9.22999 0.741286 8.86221 0.610424 8.44216L0.0312415 6.58487C0.0202909 6.55245 0.0120684 6.51882 0.00684043 6.48423C0.00152469 6.44965 -0.000642054 6.41513 0.000163198 6.38099V1.03769C0.000163198 0.762474 0.111677 0.498535 0.310173 0.303931C0.508669 0.109327 0.777887 0 1.0586 0H14.9414C15.2221 0 15.4913 0.109327 15.6898 0.303931C15.8883 0.498536 15.9998 0.762475 15.9998 1.03769V6.38098C16.0006 6.41512 15.9985 6.44965 15.9932 6.48423C15.9879 6.51881 15.9797 6.55244 15.9688 6.58485L15.3896 8.44194C15.2588 8.86208 14.9938 9.22995 14.6338 9.49139C14.2737 9.75283 13.8375 9.89403 13.3894 9.89422H12.4307C12.0908 9.89422 11.8153 9.62411 11.8153 9.29091C11.8153 8.95771 12.0908 8.6876 12.4307 8.6876H13.3889C13.5733 8.68747 13.7531 8.62933 13.9013 8.52173C14.0496 8.41408 14.1587 8.26261 14.2125 8.08961L14.5528 6.99835ZM11.8153 3.49917C11.8153 3.16598 12.0908 2.89587 12.4307 2.89587H13.1691C13.509 2.89587 13.7845 3.16598 13.7845 3.49917C13.7845 3.83237 13.509 4.10248 13.1691 4.10248H12.4307C12.0908 4.10248 11.8153 3.83237 11.8153 3.49917ZM6.15388 8.32562C6.49374 8.32562 6.76926 8.59573 6.76926 8.92893H6.15388C6.76926 8.92893 6.76926 8.92893 6.76926 8.92893V8.92975L6.76925 8.93104L6.76924 8.93499L6.76916 8.94833C6.76906 8.95959 6.76889 8.97555 6.76854 8.99589C6.76785 9.03657 6.76649 9.09485 6.76382 9.16821C6.75848 9.31483 6.74786 9.52242 6.72675 9.77087C6.68474 10.2651 6.60015 10.9333 6.42781 11.6091C6.25765 12.2764 5.99027 12.9989 5.55582 13.5668C5.10838 14.1517 4.45721 14.6 3.56932 14.6C3.22946 14.6 2.95395 14.3299 2.95395 13.9967C2.95395 13.6635 3.22946 13.3934 3.56932 13.3934C3.97371 13.3934 4.29176 13.2082 4.57122 12.8429C4.86368 12.4606 5.08091 11.9161 5.23382 11.3165C5.38455 10.7254 5.46149 10.1267 5.50025 9.67066C5.51952 9.444 5.5291 9.25568 5.53386 9.12515C5.53623 9.05995 5.5374 9.00934 5.53797 8.97579C5.53825 8.95901 5.53839 8.94651 5.53845 8.9386L5.53851 8.9302L5.53851 8.92893C5.53864 8.59584 5.8141 8.32562 6.15388 8.32562ZM8 8.32562C8.33986 8.32562 8.61537 8.59573 8.61537 8.92893V13.9967C8.61537 14.3299 8.33986 14.6 8 14.6C7.66014 14.6 7.38463 14.3299 7.38463 13.9967V8.92893C7.38463 8.59573 7.66014 8.32562 8 8.32562ZM10.4615 8.9302C10.4614 8.59712 10.1859 8.32562 9.84612 8.32562L10.4615 8.9302ZM10.4615 8.92893C9.84612 8.92893 9.23074 8.92928 9.23074 8.92928L9.23075 8.93104L9.23076 8.93499L9.23084 8.94833C9.23094 8.95959 9.23112 8.97555 9.23146 8.99589C9.23215 9.03657 9.23351 9.09485 9.23618 9.16821C9.24153 9.31483 9.25214 9.52242 9.27325 9.77087C9.31526 10.2651 9.39985 10.9333 9.57219 11.6091C9.74235 12.2764 10.0097 12.9989 10.4442 13.5668C10.8916 14.1517 11.5428 14.6 12.4307 14.6C12.7705 14.6 13.0461 14.3299 13.0461 13.9967C13.0461 13.6635 12.7705 13.3934 12.4307 13.3934C12.0263 13.3934 11.7082 13.2082 11.4288 12.8429C11.1363 12.4606 10.9191 11.9161 10.7662 11.3165C10.6155 10.7254 10.5385 10.1267 10.4997 9.67066C10.4805 9.444 10.4709 9.25568 10.4661 9.12515C10.4638 9.05995 10.4626 9.00934 10.462 8.97579C10.4617 8.95901 10.4616 8.94651 10.4615 8.9386L10.4615 8.9302M10.4615 8.92893L9.23074 8.92928C9.23074 8.59608 9.50626 8.32562 9.84612 8.32562" fill="#E0BB7F"/>
</svg>
