<svg width="16" height="14" viewBox="0 0 16 14" fill="none" xmlns="http://www.w3.org/2000/svg">
<path d="M14.7097 4.84615H13.3742C13.3217 4.68828 13.2232 4.55148 13.0925 4.45493C12.9617 4.35837 12.8053 4.30689 12.6452 4.30769H8.51613C8.35596 4.30689 8.19955 4.35837 8.06883 4.45493C7.9381 4.55148 7.83959 4.68828 7.7871 4.84615H4.12903V2.15385C4.12903 2.01104 4.18341 1.87408 4.2802 1.7731C4.377 1.67212 4.50828 1.61538 4.64516 1.61538C4.78205 1.61538 4.91333 1.67212 5.01012 1.7731C5.10691 1.87408 5.16129 2.01104 5.16129 2.15385C5.16129 2.36806 5.24286 2.5735 5.38805 2.72497C5.53324 2.87644 5.73015 2.96154 5.93548 2.96154C6.14081 2.96154 6.33773 2.87644 6.48292 2.72497C6.62811 2.5735 6.70968 2.36806 6.70968 2.15385C6.70968 1.58261 6.49217 1.03477 6.10499 0.630847C5.71782 0.226922 5.1927 0 4.64516 0C4.09762 0 3.5725 0.226922 3.18533 0.630847C2.79816 1.03477 2.58065 1.58261 2.58065 2.15385V4.84615H1.29032C0.94863 4.84792 0.621416 4.99032 0.3798 5.24239C0.138185 5.49446 0.00169577 5.83583 0 6.19231V8.34615C0.00249967 9.37007 0.376479 10.355 1.04674 11.103C1.717 11.851 2.63384 12.3065 3.6129 12.3779V13.1923C3.6129 13.4065 3.69447 13.612 3.83966 13.7634C3.98485 13.9149 4.18177 14 4.3871 14C4.59243 14 4.78934 13.9149 4.93453 13.7634C5.07972 13.612 5.16129 13.4065 5.16129 13.1923V12.3846H10.8387V13.1923C10.8387 13.4065 10.9203 13.612 11.0655 13.7634C11.2107 13.9149 11.4076 14 11.6129 14C11.8182 14 12.0152 13.9149 12.1603 13.7634C12.3055 13.612 12.3871 13.4065 12.3871 13.1923V12.3779C13.3662 12.3065 14.283 11.851 14.9533 11.103C15.6235 10.355 15.9975 9.37007 16 8.34615V6.19231C15.9983 5.83583 15.8618 5.49446 15.6202 5.24239C15.3786 4.99032 15.0514 4.84792 14.7097 4.84615ZM9.29032 5.92308H11.871V7.53846H9.29032V5.92308ZM14.4516 8.34615C14.4516 8.98879 14.2069 9.60511 13.7713 10.0595C13.3358 10.5139 12.745 10.7692 12.129 10.7692H3.87097C3.25498 10.7692 2.66422 10.5139 2.22866 10.0595C1.79309 9.60511 1.54839 8.98879 1.54839 8.34615V6.46154H7.74194V8.34615C7.74194 8.56037 7.8235 8.76581 7.96869 8.91728C8.11388 9.06875 8.3108 9.15385 8.51613 9.15385H12.6452C12.8505 9.15385 13.0474 9.06875 13.1926 8.91728C13.3378 8.76581 13.4194 8.56037 13.4194 8.34615V6.46154H14.4516V8.34615Z" fill="#E0BB7F"/>
</svg>
