<svg width="16" height="16" viewBox="0 0 16 16" fill="none" xmlns="http://www.w3.org/2000/svg">
<path fill-rule="evenodd" clip-rule="evenodd" d="M3.2 5.93317V14.3612C3.2 14.4905 3.30233 14.5953 3.42857 14.5953H12.5714C12.6977 14.5953 12.8 14.4905 12.8 14.3612V5.93317H14.1714V14.3612C14.1714 15.2663 13.4551 16 12.5714 16H3.42857C2.54492 16 1.82857 15.2663 1.82857 14.3612V5.93317H3.2Z" fill="#E0BB7F"/>
<path fill-rule="evenodd" clip-rule="evenodd" d="M8.16162 1.47324C8.07236 1.38182 7.92764 1.38182 7.83838 1.47324L1.17059 8.30267C0.902799 8.57695 0.468629 8.57695 0.200841 8.30267C-0.066947 8.02839 -0.066947 7.58369 0.200841 7.30941L6.86863 0.479989C7.49347 -0.159997 8.50653 -0.159996 9.13137 0.47999L15.7992 7.30941C16.0669 7.58369 16.0669 8.02839 15.7992 8.30267C15.5314 8.57695 15.0972 8.57695 14.8294 8.30267L8.16162 1.47324Z" fill="#E0BB7F"/>
<path d="M11.6571 0.782699C11.6571 0.524106 11.8618 0.314474 12.1143 0.314474H13.0286C13.281 0.314474 13.4857 0.524105 13.4857 0.782699V4.99672H11.6571V0.782699Z" fill="#E0BB7F"/>
</svg>
