<svg width="13" height="16" viewBox="0 0 13 16" fill="none" xmlns="http://www.w3.org/2000/svg">
<path d="M0.994244 13.1171C0.994244 13.436 1.24098 13.6937 1.54637 13.6937H11.4502C11.7556 13.6937 12.0023 13.436 12.0023 13.1171V8.91892C12.0023 5.74414 9.53842 3.17117 6.49827 3.17117C3.45811 3.17117 0.994244 5.74414 0.994244 8.91892V13.1171ZM2.23653 8.91892C2.23653 6.46126 4.14482 4.46847 6.49827 4.46847C8.85171 4.46847 10.76 6.46126 10.76 8.91892V12.3964H4.63484V9.31532C4.63484 9.21622 4.55719 9.13514 4.4623 9.13514H3.70312C3.60822 9.13514 3.53058 9.21622 3.53058 9.31532V12.3964H2.23653V8.91892ZM1.40661 4.36937L2.08987 3.65586C2.14336 3.6 2.14336 3.50811 2.08987 3.45225L0.918326 2.22883C0.892384 2.202 0.85735 2.18695 0.820841 2.18695C0.784332 2.18695 0.749299 2.202 0.723356 2.22883L0.0400984 2.94234C0.0144102 2.96943 0 3.00602 0 3.04414C0 3.08227 0.0144102 3.11885 0.0400984 3.14595L1.21164 4.36937C1.26513 4.42523 1.3514 4.42523 1.40661 4.36937ZM12.9599 2.94234L12.2766 2.22883C12.2507 2.202 12.2157 2.18695 12.1791 2.18695C12.1426 2.18695 12.1076 2.202 12.0817 2.22883L10.9101 3.45225C10.8844 3.47934 10.87 3.51593 10.87 3.55405C10.87 3.59218 10.8844 3.62876 10.9101 3.65586L11.5934 4.36937C11.6469 4.42523 11.7349 4.42523 11.7883 4.36937L12.9599 3.14595C13.0134 3.08829 13.0134 2.9982 12.9599 2.94234ZM12.0195 14.8468H0.97699C0.671594 14.8468 0.424862 15.1045 0.424862 15.4234V15.8559C0.424862 15.9351 0.486977 16 0.562894 16H12.4336C12.5096 16 12.5717 15.9351 12.5717 15.8559V15.4234C12.5717 15.1045 12.3249 14.8468 12.0195 14.8468ZM6.01515 2.01802H6.98138C7.0573 2.01802 7.11941 1.95315 7.11941 1.87387V0.144144C7.11941 0.0648649 7.0573 0 6.98138 0H6.01515C5.93924 0 5.87712 0.0648649 5.87712 0.144144V1.87387C5.87712 1.95315 5.93924 2.01802 6.01515 2.01802Z" fill="#E0BB7F"/>
</svg>
