<svg width="16" height="16" viewBox="0 0 16 16" fill="none" xmlns="http://www.w3.org/2000/svg">
<path d="M12.528 5.272C12.7379 5.27112 12.939 5.1878 13.088 5.04L13.656 4.472C13.7397 4.40028 13.8078 4.31203 13.8558 4.21278C13.9038 4.11352 13.9308 4.00542 13.935 3.89524C13.9393 3.78507 13.9207 3.6752 13.8805 3.57254C13.8403 3.46988 13.7793 3.37664 13.7013 3.29868C13.6234 3.22072 13.5301 3.15971 13.4275 3.11949C13.3248 3.07927 13.2149 3.06071 13.1048 3.06496C12.9946 3.06922 12.8865 3.0962 12.7872 3.14422C12.688 3.19224 12.5997 3.26025 12.528 3.344L12 3.912C11.851 4.06189 11.7674 4.26465 11.7674 4.476C11.7674 4.68735 11.851 4.89011 12 5.04C12.141 5.18029 12.3293 5.263 12.528 5.272ZM8 3.4C8.21217 3.4 8.41566 3.31571 8.56569 3.16569C8.71571 3.01566 8.8 2.81217 8.8 2.6V1.8C8.8 1.58783 8.71571 1.38434 8.56569 1.23431C8.41566 1.08429 8.21217 1 8 1C7.78783 1 7.58434 1.08429 7.43431 1.23431C7.28429 1.38434 7.2 1.58783 7.2 1.8V2.6C7.2 2.81217 7.28429 3.01566 7.43431 3.16569C7.58434 3.31571 7.78783 3.4 8 3.4ZM1.6 8.2H0.8C0.587827 8.2 0.384344 8.28429 0.234315 8.43431C0.0842854 8.58434 0 8.78783 0 9C0 9.21217 0.0842854 9.41566 0.234315 9.56568C0.384344 9.71571 0.587827 9.8 0.8 9.8H1.6C1.81217 9.8 2.01566 9.71571 2.16569 9.56568C2.31571 9.41566 2.4 9.21217 2.4 9C2.4 8.78783 2.31571 8.58434 2.16569 8.43431C2.01566 8.28429 1.81217 8.2 1.6 8.2ZM2.912 5.04C3.06101 5.1878 3.26213 5.27112 3.472 5.272C3.57729 5.27261 3.68166 5.25243 3.77913 5.21262C3.8766 5.1728 3.96525 5.11414 4.04 5.04C4.189 4.89011 4.27263 4.68735 4.27263 4.476C4.27263 4.26465 4.189 4.06189 4.04 3.912L3.472 3.344C3.31896 3.21294 3.1221 3.14445 2.92076 3.15223C2.71942 3.16001 2.52842 3.24347 2.38595 3.38595C2.24347 3.52842 2.16001 3.71942 2.15223 3.92076C2.14445 4.1221 2.21294 4.31896 2.344 4.472L2.912 5.04ZM15.2 8.2H14.4C14.1878 8.2 13.9843 8.28429 13.8343 8.43431C13.6843 8.58434 13.6 8.78783 13.6 9C13.6 9.21217 13.6843 9.41566 13.8343 9.56568C13.9843 9.71571 14.1878 9.8 14.4 9.8H15.2C15.4122 9.8 15.6157 9.71571 15.7657 9.56568C15.9157 9.41566 16 9.21217 16 9C16 8.78783 15.9157 8.58434 15.7657 8.43431C15.6157 8.28429 15.4122 8.2 15.2 8.2ZM7.2 13.8H4.8C4.58783 13.8 4.38434 13.8843 4.23431 14.0343C4.08429 14.1843 4 14.3878 4 14.6C4 14.8122 4.08429 15.0157 4.23431 15.1657C4.38434 15.3157 4.58783 15.4 4.8 15.4H7.2C7.41217 15.4 7.61566 15.3157 7.76569 15.1657C7.91571 15.0157 8 14.8122 8 14.6C8 14.3878 7.91571 14.1843 7.76569 14.0343C7.61566 13.8843 7.41217 13.8 7.2 13.8ZM12.8 10.6H12.096C12.298 10.0908 12.4012 9.5478 12.4 9C12.4 7.83305 11.9364 6.71389 11.1113 5.88873C10.2861 5.06357 9.16695 4.6 8 4.6C6.83305 4.6 5.71389 5.06357 4.88873 5.88873C4.06357 6.71389 3.6 7.83305 3.6 9C3.59878 9.5478 3.70195 10.0908 3.904 10.6H3.2C2.98783 10.6 2.78434 10.6843 2.63431 10.8343C2.48429 10.9843 2.4 11.1878 2.4 11.4C2.4 11.6122 2.48429 11.8157 2.63431 11.9657C2.78434 12.1157 2.98783 12.2 3.2 12.2H12.8C13.0122 12.2 13.2157 12.1157 13.3657 11.9657C13.5157 11.8157 13.6 11.6122 13.6 11.4C13.6 11.1878 13.5157 10.9843 13.3657 10.8343C13.2157 10.6843 13.0122 10.6 12.8 10.6ZM10.28 10.6H5.72C5.3839 10.134 5.20207 9.57454 5.2 9C5.2 8.25739 5.495 7.5452 6.0201 7.0201C6.5452 6.495 7.25739 6.2 8 6.2C8.74261 6.2 9.4548 6.495 9.9799 7.0201C10.505 7.5452 10.8 8.25739 10.8 9C10.7979 9.57454 10.6161 10.134 10.28 10.6ZM11.2 13.8H10.4C10.1878 13.8 9.98434 13.8843 9.83432 14.0343C9.68429 14.1843 9.6 14.3878 9.6 14.6C9.6 14.8122 9.68429 15.0157 9.83432 15.1657C9.98434 15.3157 10.1878 15.4 10.4 15.4H11.2C11.4122 15.4 11.6157 15.3157 11.7657 15.1657C11.9157 15.0157 12 14.8122 12 14.6C12 14.3878 11.9157 14.1843 11.7657 14.0343C11.6157 13.8843 11.4122 13.8 11.2 13.8Z" fill="#E0BB7F"/>
</svg>
