<svg width="16" height="16" viewBox="0 0 16 16" fill="none" xmlns="http://www.w3.org/2000/svg">
<path d="M5.99881 6.80183H7.99842C8.21055 6.80183 8.41399 6.71756 8.56399 6.56756C8.71399 6.41756 8.79826 6.21412 8.79826 6.00199C8.79826 5.78986 8.71399 5.58641 8.56399 5.43641C8.41399 5.28641 8.21055 5.20215 7.99842 5.20215H7.19858V4.80223C7.19858 4.59009 7.11431 4.38665 6.96431 4.23665C6.81431 4.08665 6.61087 4.00238 6.39873 4.00238C6.1866 4.00238 5.98316 4.08665 5.83316 4.23665C5.68316 4.38665 5.59889 4.59009 5.59889 4.80223V5.24214C5.11293 5.34082 4.68096 5.61654 4.38686 6.01579C4.09275 6.41505 3.95749 6.90934 4.00733 7.40271C4.05716 7.89608 4.28854 8.35333 4.65655 8.6857C5.02455 9.01807 5.50293 9.20185 5.99881 9.20135H6.79866C6.90472 9.20135 7.00644 9.24349 7.08144 9.31849C7.15644 9.39349 7.19858 9.49521 7.19858 9.60127C7.19858 9.70734 7.15644 9.80906 7.08144 9.88406C7.00644 9.95906 6.90472 10.0012 6.79866 10.0012H4.79905C4.58692 10.0012 4.38348 10.0855 4.23348 10.2355C4.08348 10.3855 3.99921 10.5889 3.99921 10.801C3.99921 11.0132 4.08348 11.2166 4.23348 11.3666C4.38348 11.5166 4.58692 11.6009 4.79905 11.6009H5.59889V12.0008C5.59889 12.2129 5.68316 12.4164 5.83316 12.5664C5.98316 12.7164 6.1866 12.8006 6.39873 12.8006C6.61087 12.8006 6.81431 12.7164 6.96431 12.5664C7.11431 12.4164 7.19858 12.2129 7.19858 12.0008V11.5609C7.68454 11.4622 8.1165 11.1865 8.41061 10.7872C8.70471 10.388 8.83998 9.89369 8.79014 9.40031C8.74031 8.90694 8.50893 8.44969 8.14092 8.11732C7.77291 7.78495 7.29454 7.60117 6.79866 7.60167H5.99881C5.89275 7.60167 5.79103 7.55954 5.71603 7.48454C5.64103 7.40954 5.59889 7.30781 5.59889 7.20175C5.59889 7.09568 5.64103 6.99396 5.71603 6.91896C5.79103 6.84396 5.89275 6.80183 5.99881 6.80183ZM15.197 8.00159H12.7975V0.80302C12.798 0.66208 12.7613 0.523495 12.6911 0.401297C12.6209 0.279099 12.5196 0.177628 12.3975 0.107158C12.276 0.0369577 12.138 0 11.9976 0C11.8572 0 11.7193 0.0369577 11.5977 0.107158L9.19818 1.48288L6.79866 0.107158C6.67706 0.0369577 6.53914 0 6.39873 0C6.25833 0 6.12041 0.0369577 5.99881 0.107158L3.59929 1.48288L1.19977 0.107158C1.07818 0.0369577 0.940249 0 0.799847 0C0.659446 0 0.521518 0.0369577 0.399927 0.107158C0.277868 0.177628 0.176596 0.279099 0.106368 0.401297C0.036139 0.523495 -0.000553238 0.66208 6.30505e-06 0.80302V13.6005C6.30505e-06 14.2369 0.252813 14.8472 0.70281 15.2972C1.15281 15.7472 1.76314 16 2.39953 16H13.5973C14.2337 16 14.844 15.7472 15.294 15.2972C15.744 14.8472 15.9968 14.2369 15.9968 13.6005V8.80143C15.9968 8.5893 15.9126 8.38586 15.7626 8.23586C15.6126 8.08586 15.4091 8.00159 15.197 8.00159ZM2.39953 14.4003C2.1874 14.4003 1.98396 14.316 1.83396 14.1661C1.68396 14.0161 1.59969 13.8126 1.59969 13.6005V2.18674L3.19937 3.09856C3.32282 3.16304 3.46002 3.19671 3.59929 3.19671C3.73856 3.19671 3.87577 3.16304 3.99921 3.09856L6.39873 1.72284L8.79826 3.09856C8.9217 3.16304 9.05891 3.19671 9.19818 3.19671C9.33745 3.19671 9.47465 3.16304 9.5981 3.09856L11.1978 2.18674V13.6005C11.1999 13.8733 11.2486 14.1438 11.3418 14.4003H2.39953ZM14.3971 13.6005C14.3971 13.8126 14.3129 14.0161 14.1629 14.1661C14.0129 14.316 13.8094 14.4003 13.5973 14.4003C13.3852 14.4003 13.1817 14.316 13.0317 14.1661C12.8817 14.0161 12.7975 13.8126 12.7975 13.6005V9.60127H14.3971V13.6005Z" fill="#E0BB7F"/>
</svg>
