<svg width="16" height="16" viewBox="0 0 16 16" fill="none" xmlns="http://www.w3.org/2000/svg">
<path d="M15.456 1.82136L10.656 0.0446825H10.6C10.5628 0.0405265 10.5252 0.0405265 10.488 0.0446825H10.304H10.2H10.144L5.6 1.77695L1.056 0.0446825C0.935694 0.000631092 0.807685 -0.011065 0.682511 0.0105568C0.557336 0.0321785 0.438575 0.0865 0.336003 0.16905C0.232609 0.250792 0.148215 0.358678 0.0897905 0.483796C0.0313664 0.608913 0.000589563 0.747671 2.66683e-06 0.888606V13.3254C-0.000430263 13.5116 0.0518578 13.6933 0.149476 13.8447C0.247095 13.9962 0.385106 14.1097 0.544003 14.1693L5.344 15.946C5.50516 16.0043 5.67884 16.0043 5.84 15.946L10.4 14.2581L14.944 15.9904C15.0289 16.0032 15.1151 16.0032 15.2 15.9904C15.3673 15.993 15.5305 15.9336 15.664 15.8216C15.7674 15.7399 15.8518 15.632 15.9102 15.5069C15.9686 15.3818 15.9994 15.243 16 15.1021V2.66529C16.0004 2.47905 15.9481 2.29738 15.8505 2.14594C15.7529 1.9945 15.6149 1.88096 15.456 1.82136ZM4.8 13.8673L1.6 12.6858V2.1234L4.8 3.30489V13.8673ZM9.6 12.6858L6.4 13.8673V3.30489L9.6 2.1234V12.6858ZM14.4 13.8673L11.2 12.6858V2.1234L14.4 3.30489V13.8673Z" fill="#E0BB7F"/>
</svg>
