<svg width="16" height="16" viewBox="0 0 16 16" fill="none" xmlns="http://www.w3.org/2000/svg">
<path d="M15.0296 5.49409C14.9296 5.51491 13.5872 5.81639 11.8672 6.86193C11.6088 5.6537 10.844 3.39144 8.5808 1.09062L8 0.5L7.4192 1.0914C5.148 3.40069 4.3864 5.66912 4.1304 6.88506C2.404 5.82178 1.072 5.51645 0.9744 5.49486L0 5.28513V6.2474C0 11.8684 3.14 15.5 8 15.5C12.7848 15.5 16 11.782 16 6.2474V5.28976L15.0296 5.49409ZM5.5992 7.8188C5.6008 7.79336 5.7208 5.42855 8 2.78231C10.2512 5.40388 10.3992 7.7895 10.4 7.7895V7.88588C9.50285 8.60444 8.69483 9.42048 7.992 10.3178C7.28718 9.43633 6.48485 8.63149 5.5992 7.9175V7.8188ZM8 13.9579C3.7472 13.9579 1.9608 10.7226 1.6504 7.35463C2.9744 7.90824 5.3432 9.2252 7.336 12.0758L8.0088 13.0388L8.6688 12.0673C10.6096 9.20823 13.0088 7.89514 14.3456 7.34692C14.0272 10.6069 12.2432 13.9579 8 13.9579Z" fill="#E0BB7F"/>
</svg>
