<svg width="14" height="16" viewBox="0 0 14 16" fill="none" xmlns="http://www.w3.org/2000/svg">
<path d="M12.6161 6.21616V6.08652C12.6204 4.78935 12.2422 3.5249 11.5371 2.47898C10.8321 1.43306 9.83733 0.660821 8.69908 0.275754H8.65704C8.06916 0.0807146 7.45664 -0.0119377 6.84217 0.00122965C5.37894 0.088614 4.00151 0.780383 2.991 1.93535C1.98049 3.09032 1.41308 4.62142 1.40457 6.21616C0.993952 6.37336 0.638302 6.66539 0.386712 7.05195C0.135121 7.43851 0 7.90053 0 8.37423C0 8.84793 0.135121 9.30995 0.386712 9.69651C0.638302 10.0831 0.993952 10.3751 1.40457 10.5323C1.54889 12.0382 2.20263 13.4319 3.23869 14.4424C4.27475 15.4529 5.61908 16.0081 7.01034 15.9999H7.17151C8.51687 15.929 9.79564 15.3417 10.7808 14.3421C11.766 13.3426 12.3939 11.9955 12.553 10.5399C12.9685 10.3916 13.3311 10.106 13.5904 9.72292C13.8497 9.33981 13.9928 8.87825 13.9997 8.40249C14.0067 7.92673 13.8771 7.46045 13.6291 7.06858C13.3811 6.67671 13.027 6.37874 12.6161 6.21616ZM7.13647 14.4748C6.1221 14.5067 5.13135 14.1383 4.34704 13.4375C3.56273 12.7368 3.03778 11.7509 2.86908 10.6619H11.1166C10.9456 11.6928 10.4593 12.6306 9.73673 13.3227C9.01418 14.0149 8.09781 14.4209 7.13647 14.4748ZM11.9154 9.1368H2.10529C1.91945 9.1368 1.74122 9.05645 1.6098 8.91345C1.47839 8.77044 1.40457 8.57647 1.40457 8.37423C1.40457 8.17198 1.47839 7.97802 1.6098 7.83501C1.74122 7.692 1.91945 7.61166 2.10529 7.61166H3.50673C3.69258 7.61166 3.87081 7.53132 4.00222 7.38831C4.13363 7.2453 4.20745 7.05134 4.20745 6.84909C4.20745 6.64685 4.13363 6.45288 4.00222 6.30988C3.87081 6.16687 3.69258 6.08652 3.50673 6.08652H2.80601C2.83738 5.29544 3.04514 4.52455 3.41138 3.84035C3.77761 3.15616 4.29132 2.57921 4.90818 2.1593V4.56139C4.90818 4.76363 4.982 4.9576 5.11341 5.10061C5.24482 5.24361 5.42305 5.32396 5.6089 5.32396C5.79474 5.32396 5.97297 5.24361 6.10438 5.10061C6.23579 4.9576 6.30962 4.76363 6.30962 4.56139V1.57975C6.49982 1.54516 6.69165 1.52225 6.88421 1.51111H7.01034C7.24517 1.51471 7.47941 1.53766 7.71106 1.57975V4.56139C7.71106 4.76363 7.78489 4.9576 7.9163 5.10061C8.04771 5.24361 8.22594 5.32396 8.41178 5.32396C8.59763 5.32396 8.77586 5.24361 8.90727 5.10061C9.03868 4.9576 9.1125 4.76363 9.1125 4.56139V2.13642C9.40975 2.32373 9.68705 2.54622 9.93936 2.79985C10.3434 3.22682 10.6644 3.73775 10.8835 4.30234C11.1026 4.86693 11.2152 5.47366 11.2147 6.08652H10.5139C10.3281 6.08652 10.1499 6.16687 10.0185 6.30988C9.88705 6.45288 9.81323 6.64685 9.81323 6.84909C9.81323 7.05134 9.88705 7.2453 10.0185 7.38831C10.1499 7.53132 10.3281 7.61166 10.5139 7.61166H11.9154C12.1012 7.61166 12.2795 7.692 12.4109 7.83501C12.5423 7.97802 12.6161 8.17198 12.6161 8.37423C12.6161 8.57647 12.5423 8.77044 12.4109 8.91345C12.2795 9.05645 12.1012 9.1368 11.9154 9.1368Z" fill="#E0BB7F"/>
</svg>
