<svg width="16" height="15" viewBox="0 0 16 15" fill="none" xmlns="http://www.w3.org/2000/svg">
<path d="M14.4 0H1.6C0.7176 0 0 0.7176 0 1.6V12.8C0 13.6824 0.7176 14.4 1.6 14.4H14.4C15.2824 14.4 16 13.6824 16 12.8V1.6C16 0.7176 15.2824 0 14.4 0ZM14.4008 4.8C14.4 4.8 14.4 4.8 14.4008 4.8H14.0288L11.8952 1.6H14.4L14.4008 4.8ZM6.0288 4.8L3.8952 1.6H5.972L8.1056 4.8H6.0288ZM10.0288 4.8L7.8952 1.6H9.972L12.1056 4.8H10.0288ZM1.6 1.6H1.972L4.1056 4.8H1.6V1.6ZM1.6 12.8V6.4H14.4L14.4016 12.8H1.6Z" fill="#E0BB7F"/>
<path d="M6.39844 11.9992L10.7984 9.59922L6.39844 7.19922V11.9992Z" fill="#E0BB7F"/>
</svg>
