<svg width="16" height="16" viewBox="0 0 16 16" fill="none" xmlns="http://www.w3.org/2000/svg">
<path d="M15.2727 11.6364H0.727273C0.534388 11.6364 0.349403 11.713 0.213013 11.8494C0.0766231 11.9858 0 12.1708 0 12.3636C0 12.5565 0.0766231 12.7415 0.213013 12.8779C0.349403 13.0143 0.534388 13.0909 0.727273 13.0909H15.2727C15.4656 13.0909 15.6506 13.0143 15.787 12.8779C15.9234 12.7415 16 12.5565 16 12.3636C16 12.1708 15.9234 11.9858 15.787 11.8494C15.6506 11.713 15.4656 11.6364 15.2727 11.6364ZM15.2727 14.5455H0.727273C0.534388 14.5455 0.349403 14.6221 0.213013 14.7585C0.0766231 14.8949 0 15.0798 0 15.2727C0 15.4656 0.0766231 15.6506 0.213013 15.787C0.349403 15.9234 0.534388 16 0.727273 16H15.2727C15.4656 16 15.6506 15.9234 15.787 15.787C15.9234 15.6506 16 15.4656 16 15.2727C16 15.0798 15.9234 14.8949 15.787 14.7585C15.6506 14.6221 15.4656 14.5455 15.2727 14.5455ZM3.63636 4.36364C3.49252 4.36364 3.35191 4.40629 3.23231 4.4862C3.11271 4.56612 3.0195 4.6797 2.96445 4.81259C2.90941 4.94549 2.895 5.09172 2.92307 5.23279C2.95113 5.37387 3.02039 5.50346 3.1221 5.60517C3.22382 5.70688 3.3534 5.77615 3.49448 5.80421C3.63556 5.83227 3.78179 5.81787 3.91468 5.76282C4.04757 5.70778 4.16116 5.61456 4.24107 5.49496C4.32098 5.37536 4.36364 5.23475 4.36364 5.09091C4.36364 4.89802 4.28701 4.71304 4.15062 4.57665C4.01423 4.44026 3.82925 4.36364 3.63636 4.36364ZM13.8182 0H2.18182C1.60316 0 1.04821 0.229869 0.63904 0.63904C0.229869 1.04821 0 1.60316 0 2.18182V8C0 8.57865 0.229869 9.13361 0.63904 9.54278C1.04821 9.95195 1.60316 10.1818 2.18182 10.1818H13.8182C14.3968 10.1818 14.9518 9.95195 15.361 9.54278C15.7701 9.13361 16 8.57865 16 8V2.18182C16 1.60316 15.7701 1.04821 15.361 0.63904C14.9518 0.229869 14.3968 0 13.8182 0ZM14.5455 8C14.5455 8.19289 14.4688 8.37787 14.3324 8.51426C14.1961 8.65065 14.0111 8.72727 13.8182 8.72727H2.18182C1.98893 8.72727 1.80395 8.65065 1.66756 8.51426C1.53117 8.37787 1.45455 8.19289 1.45455 8V2.18182C1.45455 1.98893 1.53117 1.80395 1.66756 1.66756C1.80395 1.53117 1.98893 1.45455 2.18182 1.45455H13.8182C14.0111 1.45455 14.1961 1.53117 14.3324 1.66756C14.4688 1.80395 14.5455 1.98893 14.5455 2.18182V8ZM8 2.90909C7.56848 2.90909 7.14665 3.03705 6.78785 3.27679C6.42905 3.51654 6.1494 3.85729 5.98426 4.25596C5.81913 4.65464 5.77592 5.09333 5.86011 5.51656C5.94429 5.93979 6.15209 6.32856 6.45722 6.63369C6.76235 6.93882 7.15112 7.14662 7.57435 7.2308C7.99758 7.31499 8.43627 7.27178 8.83495 7.10665C9.23362 6.94151 9.57437 6.66186 9.81412 6.30306C10.0539 5.94426 10.1818 5.52243 10.1818 5.09091C10.1818 4.51226 9.95195 3.9573 9.54278 3.54813C9.13361 3.13896 8.57865 2.90909 8 2.90909ZM8 5.81818C7.85616 5.81818 7.71555 5.77553 7.59595 5.69561C7.47635 5.6157 7.38313 5.50212 7.32809 5.36922C7.27304 5.23633 7.25864 5.0901 7.2867 4.94903C7.31476 4.80795 7.38403 4.67836 7.48574 4.57665C7.58745 4.47494 7.71704 4.40567 7.85812 4.37761C7.99919 4.34955 8.14542 4.36395 8.27832 4.419C8.41121 4.47404 8.52479 4.56726 8.60471 4.68686C8.68462 4.80646 8.72727 4.94707 8.72727 5.09091C8.72727 5.28379 8.65065 5.46878 8.51426 5.60517C8.37787 5.74156 8.19289 5.81818 8 5.81818ZM12.3636 4.36364C12.2198 4.36364 12.0792 4.40629 11.9596 4.4862C11.84 4.56612 11.7468 4.6797 11.6917 4.81259C11.6367 4.94549 11.6223 5.09172 11.6503 5.23279C11.6784 5.37387 11.7477 5.50346 11.8494 5.60517C11.9511 5.70688 12.0807 5.77615 12.2218 5.80421C12.3628 5.83227 12.5091 5.81787 12.642 5.76282C12.7748 5.70778 12.8884 5.61456 12.9683 5.49496C13.0483 5.37536 13.0909 5.23475 13.0909 5.09091C13.0909 4.89802 13.0143 4.71304 12.8779 4.57665C12.7415 4.44026 12.5565 4.36364 12.3636 4.36364Z" fill="#E0BB7F"/>
</svg>
