<svg width="16" height="16" viewBox="0 0 16 16" fill="none" xmlns="http://www.w3.org/2000/svg">
<path fill-rule="evenodd" clip-rule="evenodd" d="M2.04297 1.69697C2.04297 0.759759 2.85174 0 3.84942 0H12.1075C13.1052 0 13.9139 0.759759 13.9139 1.69697V14.667H15.2258C15.6534 14.667 16 14.9655 16 15.3337C16 15.7018 15.6534 16.0003 15.2258 16.0003H0.774194C0.346618 16.0003 0 15.7018 0 15.3337C0 14.9655 0.346618 14.667 0.774194 14.667H2.04297V1.69697ZM3.84942 1.45455C3.7069 1.45455 3.59136 1.56308 3.59136 1.69697V14.5455H12.3655V1.69697C12.3655 1.56308 12.25 1.45455 12.1075 1.45455H3.84942ZM5.33464 7.33301C4.96645 7.33301 4.66797 7.48225 4.66797 7.66634V8.99967C4.66797 9.18377 4.96645 9.33301 5.33464 9.33301C5.70283 9.33301 6.0013 9.18377 6.0013 8.99967V7.66634C6.0013 7.48225 5.70283 7.33301 5.33464 7.33301Z" fill="#E0BB7F"/>
</svg>
