<svg width="17" height="20" viewBox="0 0 17 20" fill="none" xmlns="http://www.w3.org/2000/svg">
<path fill-rule="evenodd" clip-rule="evenodd" d="M8.49935 6.45964C7.50984 6.45964 6.70768 7.26179 6.70768 8.2513C6.70768 9.24081 7.50984 10.043 8.49935 10.043C9.48886 10.043 10.291 9.24081 10.291 8.2513C10.291 7.26179 9.48886 6.45964 8.49935 6.45964ZM5.04102 8.2513C5.04102 6.34132 6.58936 4.79297 8.49935 4.79297C10.4093 4.79297 11.9577 6.34132 11.9577 8.2513C11.9577 10.1613 10.4093 11.7096 8.49935 11.7096C6.58936 11.7096 5.04102 10.1613 5.04102 8.2513Z" fill="#E0BB7F"/>
<path fill-rule="evenodd" clip-rule="evenodd" d="M2.96035 2.7123C4.42938 1.24326 6.42182 0.417969 8.49935 0.417969C10.5769 0.417969 12.5693 1.24326 14.0384 2.7123C15.5074 4.18133 16.3327 6.17377 16.3327 8.2513C16.3327 9.1379 16.2386 9.91677 15.9944 10.6535C15.7489 11.394 15.3656 12.0505 14.8371 12.71C14.8304 12.7183 14.8236 12.7265 14.8166 12.7346L9.12909 19.2971C8.97081 19.4797 8.74103 19.5846 8.49935 19.5846C8.25767 19.5846 8.02789 19.4797 7.86961 19.2971L2.18211 12.7346C2.17511 12.7265 2.16827 12.7183 2.16159 12.71C1.63309 12.0505 1.24976 11.394 1.00431 10.6535C0.760089 9.91677 0.666016 9.1379 0.666016 8.2513C0.666016 6.17377 1.49131 4.18133 2.96035 2.7123ZM8.49935 2.08464C6.86385 2.08464 5.29533 2.73434 4.13886 3.89081C2.98238 5.04728 2.33268 6.6158 2.33268 8.2513C2.33268 9.02021 2.41448 9.61071 2.58633 10.1291C2.75565 10.64 3.02575 11.121 3.45235 11.6554L8.49935 17.4789L13.5464 11.6554C13.973 11.121 14.243 10.64 14.4124 10.1291C14.5842 9.61071 14.666 9.02021 14.666 8.2513C14.666 6.6158 14.0163 5.04728 12.8598 3.89081C11.7034 2.73434 10.1348 2.08464 8.49935 2.08464Z" fill="#E0BB7F"/>
</svg>
