<svg width="16" height="16" viewBox="0 0 16 16" fill="none" xmlns="http://www.w3.org/2000/svg">
<path d="M6.22222 8.10981C6.22222 8.41537 5.97222 8.66537 5.66667 8.66537C5.36111 8.66537 5.11111 8.41537 5.11111 8.10981C5.11111 7.80425 5.36111 7.55425 5.66667 7.55425C5.97222 7.55425 6.22222 7.80425 6.22222 8.10981ZM7.88889 7.55425C7.58333 7.55425 7.33333 7.80425 7.33333 8.10981C7.33333 8.41537 7.58333 8.66537 7.88889 8.66537C8.19444 8.66537 8.44444 8.41537 8.44444 8.10981C8.44444 7.80425 8.19444 7.55425 7.88889 7.55425ZM10.1111 7.55425C9.80556 7.55425 9.55556 7.80425 9.55556 8.10981C9.55556 8.41537 9.80556 8.66537 10.1111 8.66537C10.4167 8.66537 10.6667 8.41537 10.6667 8.10981C10.6667 7.80425 10.4167 7.55425 10.1111 7.55425ZM11.7778 5.33203V6.44314H4V5.33203C4 3.37092 5.45 1.75981 7.33333 1.48759V0.332031H8.44444V1.48759C10.3278 1.75981 11.7778 3.37092 11.7778 5.33203ZM10.6667 5.33203C10.6667 3.7987 9.42222 2.55425 7.88889 2.55425C6.35556 2.55425 5.11111 3.7987 5.11111 5.33203H10.6667ZM5.66667 9.22092C5.36111 9.22092 5.11111 9.47092 5.11111 9.77648C5.11111 10.082 5.36111 10.332 5.66667 10.332C5.97222 10.332 6.22222 10.082 6.22222 9.77648C6.22222 9.47092 5.97222 9.22092 5.66667 9.22092ZM7.88889 9.22092C7.58333 9.22092 7.33333 9.47092 7.33333 9.77648C7.33333 10.082 7.58333 10.332 7.88889 10.332C8.19444 10.332 8.44444 10.082 8.44444 9.77648C8.44444 9.47092 8.19444 9.22092 7.88889 9.22092ZM10.1111 9.22092C9.80556 9.22092 9.55556 9.47092 9.55556 9.77648C9.55556 10.082 9.80556 10.332 10.1111 10.332C10.4167 10.332 10.6667 10.082 10.6667 9.77648C10.6667 9.47092 10.4167 9.22092 10.1111 9.22092Z" fill="#E0BB7F"/>
<path fill-rule="evenodd" clip-rule="evenodd" d="M0.666667 0C1.03486 0 1.33333 0.298477 1.33333 0.666667V14C1.33333 14.3682 1.63181 14.6667 2 14.6667H14C14.3682 14.6667 14.6667 14.3682 14.6667 14V0.666667C14.6667 0.298477 14.9651 0 15.3333 0C15.7015 0 16 0.298477 16 0.666667V14C16 15.1046 15.1046 16 14 16H2C0.895431 16 0 15.1046 0 14V0.666667C0 0.298477 0.298477 0 0.666667 0Z" fill="#E0BB7F"/>
</svg>
