<svg width="12" height="16" viewBox="0 0 12 16" fill="none" xmlns="http://www.w3.org/2000/svg">
<path fill-rule="evenodd" clip-rule="evenodd" d="M3.0931 0.103496C2.81743 -0.085091 2.44488 -0.00876549 2.26101 0.273974C2.07848 0.554638 2.15047 0.933196 2.42119 1.1232L2.42738 1.12795C2.43618 1.13483 2.45253 1.1481 2.47397 1.16766C2.51733 1.2072 2.57852 1.26967 2.64014 1.35396C2.76206 1.52069 2.88017 1.76358 2.88017 2.09235C2.88017 2.25103 2.78457 2.49256 2.61787 2.75423C2.54264 2.87232 2.46645 2.97369 2.40901 3.04541C2.38055 3.08095 2.35737 3.10837 2.34211 3.12602C2.3345 3.13482 2.32892 3.14113 2.3257 3.14474L2.32331 3.14742L2.32288 3.14789C2.09627 3.39525 2.10772 3.78419 2.34863 4.01707C2.58978 4.25017 2.9699 4.23822 3.19719 3.9909L3.19764 3.9904L3.19875 3.98918L3.20176 3.98588L3.2108 3.97582C3.21813 3.96761 3.22801 3.95641 3.24009 3.94244C3.26421 3.91453 3.29728 3.87533 3.33632 3.82658C3.41388 3.72972 3.51769 3.59188 3.62246 3.42742C3.81577 3.12399 4.08017 2.62706 4.08017 2.09235C4.08017 1.43676 3.83828 0.941188 3.60019 0.615564C3.48182 0.453667 3.363 0.33148 3.27136 0.247908C3.2253 0.20591 3.1854 0.173011 3.15482 0.149112C3.13951 0.137142 3.12647 0.12737 3.11607 0.119786L3.10248 0.110025L3.09725 0.106359L3.09504 0.104827L3.09404 0.104137L3.0931 0.103496ZM3.0931 0.103496L2.7615 0.61338L3.05146 0.167333C3.09237 0.104369 3.09298 0.103435 3.0931 0.103496ZM2.7743 3.58291C3.1968 3.99132 3.19709 3.991 3.19719 3.9909L2.7743 3.58291ZM2.76016 3.56925C2.32353 3.14718 2.32339 3.14733 2.32331 3.14742L2.76016 3.56925Z" fill="#E0BB7F"/>
<path fill-rule="evenodd" clip-rule="evenodd" d="M5.97312 0.103496C5.69745 -0.085091 5.32491 -0.00876549 5.14103 0.273974C4.9585 0.554638 5.03049 0.933195 5.30121 1.1232L5.3074 1.12795C5.3162 1.13483 5.33255 1.1481 5.354 1.16766C5.39736 1.2072 5.45854 1.26967 5.52016 1.35396C5.64208 1.52069 5.76019 1.76358 5.76019 2.09235C5.76019 2.25103 5.66459 2.49256 5.4979 2.75423C5.42266 2.87232 5.34647 2.97369 5.28903 3.04541C5.26057 3.08095 5.23739 3.10837 5.22214 3.12602C5.21453 3.13482 5.20894 3.14113 5.20572 3.14474L5.20266 3.14815C4.9763 3.39552 4.98783 3.78427 5.22866 4.01707C5.4698 4.25017 5.84993 4.23822 6.07721 3.9909L6.07766 3.9904L6.07878 3.98918L6.08178 3.98588L6.09083 3.97582C6.09815 3.96761 6.10803 3.95641 6.12011 3.94244C6.14423 3.91453 6.1773 3.87533 6.21634 3.82658C6.29391 3.72972 6.39771 3.59188 6.50248 3.42742C6.69579 3.12399 6.9602 2.62706 6.9602 2.09235C6.9602 1.43676 6.7183 0.941188 6.48021 0.615564C6.36184 0.453667 6.24302 0.33148 6.15138 0.247908C6.10532 0.20591 6.06542 0.173011 6.03485 0.149112C6.01954 0.137142 6.00649 0.12737 5.99609 0.119786L5.98251 0.110025L5.97727 0.106359L5.97506 0.104827L5.97406 0.104137L5.97312 0.103496ZM5.97312 0.103496L5.6403 0.615266L5.93132 0.167583C5.97219 0.104678 5.973 0.103435 5.97312 0.103496ZM5.64019 3.56925C6.07682 3.99132 6.07711 3.991 6.07721 3.9909L5.64019 3.56925Z" fill="#E0BB7F"/>
<path fill-rule="evenodd" clip-rule="evenodd" d="M8.85315 0.103496C8.57747 -0.085091 8.20493 -0.00876549 8.02105 0.273974C7.83852 0.554638 7.91051 0.933194 8.18123 1.1232L8.18742 1.12795C8.19623 1.13483 8.21257 1.1481 8.23402 1.16766C8.27738 1.2072 8.33856 1.26967 8.40019 1.35396C8.5221 1.52069 8.64021 1.76358 8.64021 2.09235C8.64021 2.25103 8.54461 2.49256 8.37792 2.75423C8.30268 2.87232 8.22649 2.97369 8.16905 3.04541C8.14059 3.08095 8.11741 3.10837 8.10216 3.12602C8.09455 3.13482 8.08896 3.14113 8.08574 3.14474L8.08341 3.14736L8.08296 3.14785C7.85631 3.3952 7.86775 3.78417 8.10868 4.01707C8.34982 4.25017 8.72995 4.23822 8.95723 3.9909L8.95769 3.9904L8.9588 3.98918L8.96181 3.98588L8.97085 3.97582C8.97817 3.96761 8.98806 3.95641 9.00013 3.94244C9.02425 3.91453 9.05732 3.87533 9.09636 3.82658C9.17393 3.72972 9.27773 3.59188 9.3825 3.42742C9.57581 3.12399 9.84022 2.62706 9.84022 2.09235C9.84022 1.43676 9.59832 0.941188 9.36024 0.615564C9.24186 0.453667 9.12304 0.33148 9.0314 0.247908C8.98535 0.20591 8.94544 0.173011 8.91487 0.149112C8.89956 0.137142 8.88651 0.12737 8.87612 0.119786L8.86253 0.110025L8.8573 0.106359L8.85508 0.104827L8.85408 0.104137L8.85315 0.103496ZM8.85315 0.103496L8.52032 0.615266L8.81134 0.167583C8.85221 0.104678 8.85303 0.103435 8.85315 0.103496ZM8.52021 3.56925C8.95684 3.99132 8.95714 3.991 8.95723 3.9909L8.52021 3.56925Z" fill="#E0BB7F"/>
<path fill-rule="evenodd" clip-rule="evenodd" d="M2.46598 9.82864C2.24178 9.67217 2.02767 9.49849 1.82565 9.30837C0.785064 8.3291 0.140548 6.98509 0.0194984 5.54199L0.0189898 5.53593L0.0185982 5.52986C0.00938506 5.38699 0.0292835 5.24371 0.0770287 5.10916C0.124773 4.97462 0.199317 4.85174 0.29591 4.74836C0.392505 4.64499 0.509033 4.56338 0.638069 4.50873C0.764449 4.45521 0.900118 4.4287 1.03677 4.4308L1.92187 5.66155H1.23947C1.37909 6.7117 1.87213 7.68176 2.63695 8.40152C3.21575 8.9462 3.92043 9.31953 4.67631 9.49169L5.63927 10.8307C4.90867 10.8308 4.19181 10.6854 3.52594 10.4095L3.05429 11.4461H8.22588L7.75399 10.409C7.08776 10.6852 6.37033 10.8308 5.63927 10.8307L4.67631 9.49169C4.99021 9.56318 5.31306 9.59999 5.63927 9.59996C6.75104 9.60008 7.82253 9.17242 8.64172 8.40152C9.40654 7.68176 9.89958 6.7117 10.0392 5.66155H1.92187L1.03677 4.4308H10.2419C10.3785 4.4287 10.5142 4.45521 10.6406 4.50873C10.7696 4.56338 10.8862 4.64499 10.9828 4.74836C11.0793 4.85174 11.1539 4.97461 11.2016 5.10916C11.2494 5.24371 11.2693 5.38699 11.2601 5.52986L11.2597 5.53593L11.2592 5.54199C11.1381 6.98509 10.4936 8.32911 9.45302 9.30837C9.25134 9.49817 9.03762 9.67159 8.81382 9.82784L10.0633 12.5739C10.1477 12.5605 10.2335 12.5537 10.32 12.5537C10.7656 12.5537 11.1929 12.7352 11.5079 13.0583C11.823 13.3815 12 13.8197 12 14.2767C12 14.7337 11.823 15.172 11.5079 15.4951C11.1929 15.8182 10.7656 15.9998 10.32 15.9998C9.87442 15.9998 9.4471 15.8182 9.13204 15.4951C8.81698 15.172 8.63997 14.7337 8.63997 14.2767C8.63997 13.8781 8.77468 13.4936 9.01824 13.1875L8.78589 12.6768H2.49428L1.14386 15.6447C1.00373 15.9527 0.646699 16.0858 0.346414 15.9421C0.0461294 15.7984 -0.0836994 15.4322 0.0564336 15.1242L2.46598 9.82864ZM10.32 13.7844C10.1927 13.7844 10.0706 13.8363 9.98057 13.9286C9.89055 14.0209 9.83998 14.1462 9.83998 14.2767C9.83998 14.4073 9.89055 14.5325 9.98057 14.6248C10.0706 14.7172 10.1927 14.769 10.32 14.769C10.4473 14.769 10.5694 14.7172 10.6594 14.6248C10.7494 14.5325 10.8 14.4073 10.8 14.2767C10.8 14.1462 10.7494 14.0209 10.6594 13.9286C10.5694 13.8363 10.4473 13.7844 10.32 13.7844Z" fill="#E0BB7F"/>
<path d="M4.67631 9.49169C4.67635 9.4917 4.67627 9.49168 4.67631 9.49169V9.49169Z" fill="#E0BB7F"/>
</svg>
