<svg width="12" height="16" viewBox="0 0 12 16" fill="none" xmlns="http://www.w3.org/2000/svg">
<path d="M10.504 10.504L11.856 1.72C11.936 1.24 11.56 0.8 11.064 0.8H8.8C8.8 0.36 8.44 0 8 0H6.4C5.96 0 5.6 0.36 5.6 0.8H1.6C0.72 0.8 0 1.52 0 2.4V5.6C0 6.48 0.72 7.2 1.6 7.2H3.384L3.896 10.504C2.992 11.24 2.4 12.344 2.4 13.6V14.4C2.4 15.28 3.12 16 4 16H10.4C11.28 16 12 15.28 12 14.4V13.6C12 12.344 11.408 11.24 10.504 10.504ZM1.6 5.6V2.4H2.648L3.144 5.6H1.6ZM7.2 13.6C6.76 13.6 6.4 13.24 6.4 12.8C6.4 12.36 6.76 12 7.2 12C7.64 12 8 12.36 8 12.8C8 13.24 7.64 13.6 7.2 13.6ZM9.032 9.6H5.376L4.264 2.4H10.136L9.032 9.6Z" fill="#E0BB7F"/>
</svg>
