<svg width="16" height="16" viewBox="0 0 16 16" fill="none" xmlns="http://www.w3.org/2000/svg">
<rect x="0.75" y="0.75" width="14.5" height="14.5" rx="3.25" stroke="#E0BB7F" stroke-width="1.5"/>
<path d="M6.37378 12H5V4H8.44031C9.23092 4 9.85323 4.23988 10.3072 4.71964C10.7691 5.1994 11 5.7951 11 6.50675C11 7.2104 10.7691 7.8061 10.3072 8.29385C9.85323 8.77361 9.23092 9.01349 8.44031 9.01349H6.37378V12ZM8.25245 7.77811C8.64384 7.77811 8.96477 7.66217 9.21526 7.43029C9.46575 7.1984 9.591 6.89055 9.591 6.50675C9.591 6.12294 9.46575 5.81509 9.21526 5.58321C8.96477 5.35132 8.64384 5.23538 8.25245 5.23538H6.37378V7.77811H8.25245Z" fill="#E0BB7F"/>
</svg>
