<svg width="635" height="260" viewBox="0 0 635 260" fill="none" xmlns="http://www.w3.org/2000/svg">
<g opacity="0.2">
<path d="M180.581 235.82H131.118V187.75H20V148.737L112.308 3.48331H180.581V144.209H210.537V187.75H180.581V235.82ZM131.118 144.209V47.373L68.418 144.209H131.118Z" fill="#772B36"/>
<path d="M381.108 222.235C366.245 234.078 348.248 240 327.116 240C305.984 240 287.871 234.078 272.777 222.235C257.915 210.16 247.232 195.298 240.73 177.649C234.228 160 230.977 140.726 230.977 119.826C230.977 98.926 234.228 79.6517 240.73 62.0029C247.232 44.3541 257.915 29.6081 272.777 17.7649C287.871 5.92163 305.984 0 327.116 0C348.248 0 366.245 5.92163 381.108 17.7649C395.97 29.6081 406.652 44.3541 413.154 62.0029C419.888 79.6517 423.256 98.926 423.256 119.826C423.256 140.726 419.888 160 413.154 177.649C406.652 195.298 395.97 210.16 381.108 222.235ZM292.283 175.21C299.714 189.144 311.325 196.11 327.116 196.11C342.907 196.11 354.402 189.144 361.601 175.21C369.032 161.277 372.748 142.816 372.748 119.826C372.748 96.836 369.032 78.4906 361.601 64.7896C354.402 50.8563 342.907 43.8897 327.116 43.8897C311.325 43.8897 299.714 50.8563 292.283 64.7896C284.852 78.4906 281.137 96.836 281.137 119.826C281.137 142.816 284.852 161.277 292.283 175.21Z" fill="#772B36"/>
<path d="M604.428 235.82H554.965V187.75H443.848V148.737L536.156 3.48331H604.428V144.209H634.385V187.75H604.428V235.82ZM554.965 144.209V47.373L492.266 144.209H554.965Z" fill="#772B36"/>
</g>
<g opacity="0.5">
<path d="M170.581 245.82H121.118V197.75H10V158.737L102.308 13.4833H170.581V154.209H200.537V197.75H170.581V245.82ZM121.118 154.209V57.373L58.418 154.209H121.118Z" fill="#772B36"/>
<path d="M371.108 232.235C356.245 244.078 338.248 250 317.116 250C295.984 250 277.871 244.078 262.777 232.235C247.915 220.16 237.232 205.298 230.73 187.649C224.228 170 220.977 150.726 220.977 129.826C220.977 108.926 224.228 89.6517 230.73 72.0029C237.232 54.3541 247.915 39.6081 262.777 27.7649C277.871 15.9216 295.984 10 317.116 10C338.248 10 356.245 15.9216 371.108 27.7649C385.97 39.6081 396.652 54.3541 403.154 72.0029C409.888 89.6517 413.256 108.926 413.256 129.826C413.256 150.726 409.888 170 403.154 187.649C396.652 205.298 385.97 220.16 371.108 232.235ZM282.283 185.21C289.714 199.144 301.325 206.11 317.116 206.11C332.907 206.11 344.402 199.144 351.601 185.21C359.032 171.277 362.748 152.816 362.748 129.826C362.748 106.836 359.032 88.4906 351.601 74.7896C344.402 60.8563 332.907 53.8897 317.116 53.8897C301.325 53.8897 289.714 60.8563 282.283 74.7896C274.852 88.4906 271.137 106.836 271.137 129.826C271.137 152.816 274.852 171.277 282.283 185.21Z" fill="#772B36"/>
<path d="M594.428 245.82H544.965V197.75H433.848V158.737L526.156 13.4833H594.428V154.209H624.385V197.75H594.428V245.82ZM544.965 154.209V57.373L482.266 154.209H544.965Z" fill="#772B36"/>
</g>
<path d="M160.581 255.82H111.118V207.75H0V168.737L92.3077 23.4833H160.581V164.209H190.537V207.75H160.581V255.82ZM111.118 164.209V67.373L48.418 164.209H111.118Z" fill="#772B36"/>
<path d="M361.108 242.235C346.245 254.078 328.248 260 307.116 260C285.984 260 267.871 254.078 252.777 242.235C237.915 230.16 227.232 215.298 220.73 197.649C214.228 180 210.977 160.726 210.977 139.826C210.977 118.926 214.228 99.6517 220.73 82.0029C227.232 64.3541 237.915 49.6081 252.777 37.7649C267.871 25.9216 285.984 20 307.116 20C328.248 20 346.245 25.9216 361.108 37.7649C375.97 49.6081 386.652 64.3541 393.154 82.0029C399.888 99.6517 403.256 118.926 403.256 139.826C403.256 160.726 399.888 180 393.154 197.649C386.652 215.298 375.97 230.16 361.108 242.235ZM272.283 195.21C279.714 209.144 291.325 216.11 307.116 216.11C322.907 216.11 334.402 209.144 341.601 195.21C349.032 181.277 352.748 162.816 352.748 139.826C352.748 116.836 349.032 98.4906 341.601 84.7896C334.402 70.8563 322.907 63.8897 307.116 63.8897C291.325 63.8897 279.714 70.8563 272.283 84.7896C264.852 98.4906 261.137 116.836 261.137 139.826C261.137 162.816 264.852 181.277 272.283 195.21Z" fill="#772B36"/>
<path d="M584.428 255.82H534.965V207.75H423.848V168.737L516.156 23.4833H584.428V164.209H614.385V207.75H584.428V255.82ZM534.965 164.209V67.373L472.266 164.209H534.965Z" fill="#772B36"/>
</svg>
