<svg width="111" height="24" viewBox="0 0 111 24" fill="none" xmlns="http://www.w3.org/2000/svg">
<path d="M0 0L9 12L0 24H111V0H0Z" fill="#59A9BB"/>
<path d="M24.712 16H19.994V6.662H24.586C25.4167 6.662 26.0653 6.89067 26.532 7.348C27.008 7.796 27.246 8.36067 27.246 9.042C27.246 9.602 27.0873 10.078 26.77 10.47C26.462 10.8527 26.0793 11.0907 25.622 11.184C26.126 11.2587 26.5507 11.52 26.896 11.968C27.2507 12.4067 27.428 12.9107 27.428 13.48C27.428 14.2267 27.1853 14.8333 26.7 15.3C26.224 15.7667 25.5613 16 24.712 16ZM24.25 10.526C24.6607 10.526 24.9827 10.414 25.216 10.19C25.4493 9.966 25.566 9.67667 25.566 9.322C25.566 8.958 25.4493 8.664 25.216 8.44C24.9827 8.216 24.6607 8.104 24.25 8.104H21.632V10.526H24.25ZM24.32 14.558C24.768 14.558 25.118 14.446 25.37 14.222C25.622 13.9887 25.748 13.6667 25.748 13.256C25.748 12.892 25.622 12.5887 25.37 12.346C25.118 12.094 24.768 11.968 24.32 11.968H21.632V14.558H24.32ZM30.4441 16H29.0301V9.238H30.5001V13.788L33.6081 9.238H35.0781V16H33.6081V11.324L30.4441 16ZM36.2872 17.722V14.782C36.6045 14.7073 36.8425 14.5253 37.0012 14.236C37.1692 13.9373 37.3045 13.368 37.4072 12.528L37.8132 9.238H43.0352V14.712H43.7772V17.722H42.3072V16H37.7572V17.722H36.2872ZM39.1152 10.526L38.8772 12.696C38.7838 13.592 38.4852 14.264 37.9812 14.712H41.5652V10.526H39.1152ZM50.0509 16H48.5809V9.238H50.0509V11.898H53.1589V9.238H54.6289V16H53.1589V13.186H50.0509V16ZM62.1379 16H60.6679V15.272C60.1453 15.8693 59.4173 16.168 58.4839 16.168C57.8679 16.168 57.3219 15.972 56.8459 15.58C56.3699 15.1787 56.1319 14.628 56.1319 13.928C56.1319 13.2093 56.3653 12.6633 56.8319 12.29C57.3079 11.9167 57.8586 11.73 58.4839 11.73C59.4453 11.73 60.1733 12.0193 60.6679 12.598V11.59C60.6679 11.198 60.5233 10.89 60.2339 10.666C59.9446 10.442 59.5619 10.33 59.0859 10.33C58.3299 10.33 57.6626 10.6147 57.0839 11.184L56.4819 10.162C57.2473 9.434 58.1946 9.07 59.3239 9.07C60.1546 9.07 60.8313 9.266 61.3539 9.658C61.8766 10.05 62.1379 10.6707 62.1379 11.52V16ZM59.0579 15.16C59.7953 15.16 60.3319 14.9267 60.6679 14.46V13.438C60.3319 12.9713 59.7953 12.738 59.0579 12.738C58.6379 12.738 58.2926 12.85 58.0219 13.074C57.7513 13.298 57.6159 13.592 57.6159 13.956C57.6159 14.32 57.7513 14.614 58.0219 14.838C58.2926 15.0527 58.6379 15.16 59.0579 15.16ZM75.2135 16H73.7435V11.296L71.7275 16H71.1395L69.1095 11.296V16H67.6395V9.238H69.5575L71.4335 13.606L73.2815 9.238H75.2135V16ZM80.1661 16.168C79.1208 16.168 78.2808 15.8273 77.6461 15.146C77.0114 14.4553 76.6941 13.6107 76.6941 12.612C76.6941 11.6133 77.0114 10.7733 77.6461 10.092C78.2808 9.41067 79.1208 9.07 80.1661 9.07C81.2208 9.07 82.0654 9.41067 82.7001 10.092C83.3348 10.7733 83.6521 11.6133 83.6521 12.612C83.6521 13.62 83.3348 14.4647 82.7001 15.146C82.0654 15.8273 81.2208 16.168 80.1661 16.168ZM80.1661 14.866C80.7728 14.866 81.2488 14.6513 81.5941 14.222C81.9488 13.7833 82.1261 13.2467 82.1261 12.612C82.1261 11.9867 81.9488 11.4593 81.5941 11.03C81.2488 10.5913 80.7728 10.372 80.1661 10.372C79.5688 10.372 79.0928 10.5913 78.7381 11.03C78.3928 11.4593 78.2201 11.9867 78.2201 12.612C78.2201 13.2467 78.3928 13.7833 78.7381 14.222C79.0928 14.6513 79.5688 14.866 80.1661 14.866ZM88.7795 16.168C87.8835 16.168 87.1602 15.7993 86.6095 15.062V18.576H85.1395V9.238H86.6095V10.162C87.1508 9.434 87.8742 9.07 88.7795 9.07C89.6662 9.07 90.3848 9.38733 90.9355 10.022C91.4955 10.6567 91.7755 11.52 91.7755 12.612C91.7755 13.704 91.4955 14.572 90.9355 15.216C90.3848 15.8507 89.6662 16.168 88.7795 16.168ZM88.3455 14.866C88.9242 14.866 89.3862 14.656 89.7315 14.236C90.0768 13.816 90.2495 13.2747 90.2495 12.612C90.2495 11.9493 90.0768 11.4127 89.7315 11.002C89.3862 10.582 88.9242 10.372 88.3455 10.372C88.0095 10.372 87.6782 10.4607 87.3515 10.638C87.0248 10.8153 86.7775 11.03 86.6095 11.282V13.956C86.7775 14.208 87.0248 14.4227 87.3515 14.6C87.6782 14.7773 88.0095 14.866 88.3455 14.866ZM96.3553 16.168C95.3286 16.168 94.4793 15.8413 93.8073 15.188C93.1446 14.5253 92.8133 13.6667 92.8133 12.612C92.8133 11.6227 93.1353 10.7873 93.7793 10.106C94.4326 9.41533 95.2539 9.07 96.2433 9.07C97.2419 9.07 98.0446 9.41533 98.6513 10.106C99.2673 10.7967 99.5753 11.6787 99.5753 12.752V13.102H94.3533C94.4093 13.634 94.6286 14.0773 95.0113 14.432C95.3939 14.7867 95.8933 14.964 96.5093 14.964C96.8546 14.964 97.1999 14.8987 97.5453 14.768C97.8999 14.6373 98.1939 14.4553 98.4273 14.222L99.0993 15.188C98.4179 15.8413 97.5033 16.168 96.3553 16.168ZM98.1473 12.066C98.1286 11.5993 97.9559 11.184 97.6293 10.82C97.3119 10.456 96.8499 10.274 96.2433 10.274C95.6646 10.274 95.2119 10.456 94.8853 10.82C94.5586 11.1747 94.3766 11.59 94.3392 12.066H98.1473Z" fill="white"/>
</svg>
