<svg width="73" height="24" viewBox="0 0 73 24" fill="none" xmlns="http://www.w3.org/2000/svg">
<path d="M0 0L9 12L0 24H73V0H0Z" fill="#F8F1F2"/>
<path d="M13 0V24M18.5 0V24M24 0V24" stroke="#772D37"/>
<path d="M35.712 16H30.994V6.662H35.586C36.4167 6.662 37.0653 6.89067 37.532 7.348C38.008 7.796 38.246 8.36067 38.246 9.042C38.246 9.602 38.0873 10.078 37.77 10.47C37.462 10.8527 37.0793 11.0907 36.622 11.184C37.126 11.2587 37.5507 11.52 37.896 11.968C38.2507 12.4067 38.428 12.9107 38.428 13.48C38.428 14.2267 38.1853 14.8333 37.7 15.3C37.224 15.7667 36.5613 16 35.712 16ZM35.25 10.526C35.6607 10.526 35.9827 10.414 36.216 10.19C36.4493 9.966 36.566 9.67667 36.566 9.322C36.566 8.958 36.4493 8.664 36.216 8.44C35.9827 8.216 35.6607 8.104 35.25 8.104H32.632V10.526H35.25ZM35.32 14.558C35.768 14.558 36.118 14.446 36.37 14.222C36.622 13.9887 36.748 13.6667 36.748 13.256C36.748 12.892 36.622 12.5887 36.37 12.346C36.118 12.094 35.768 11.968 35.32 11.968H32.632V14.558H35.32ZM48.2061 16H46.5681V11.926H41.7101V16H40.0721V6.662H41.7101V10.484H46.5681V6.662H48.2061V16ZM51.3093 16H49.2933L53.3673 11.072L49.5733 6.662H51.6033L54.9073 10.694V6.662H56.5453V10.694L59.8493 6.662H61.8793L58.0853 11.072L62.1593 16H60.1433L57.0073 12.066L56.5453 12.612V16H54.9073V12.612L54.4453 12.066L51.3093 16Z" fill="#772D37"/>
</svg>
