<svg width="114" height="24" viewBox="0 0 114 24" fill="none" xmlns="http://www.w3.org/2000/svg">
<path d="M0 0L9 12L0 24H114V0H0Z" fill="#772B36"/>
<path d="M21.632 16H19.994V6.662H26.392V8.104H21.632V16ZM30.4006 16.168C29.5046 16.168 28.7813 15.7993 28.2306 15.062V18.576H26.7606V9.238H28.2306V10.162C28.7719 9.434 29.4953 9.07 30.4006 9.07C31.2873 9.07 32.0059 9.38733 32.5566 10.022C33.1166 10.6567 33.3966 11.52 33.3966 12.612C33.3966 13.704 33.1166 14.572 32.5566 15.216C32.0059 15.8507 31.2873 16.168 30.4006 16.168ZM29.9666 14.866C30.5453 14.866 31.0073 14.656 31.3526 14.236C31.6979 13.816 31.8706 13.2747 31.8706 12.612C31.8706 11.9493 31.6979 11.4127 31.3526 11.002C31.0073 10.582 30.5453 10.372 29.9666 10.372C29.6306 10.372 29.2993 10.4607 28.9726 10.638C28.6459 10.8153 28.3986 11.03 28.2306 11.282V13.956C28.3986 14.208 28.6459 14.4227 28.9726 14.6C29.2993 14.7773 29.6306 14.866 29.9666 14.866ZM40.4543 16H38.9843V15.272C38.4617 15.8693 37.7337 16.168 36.8003 16.168C36.1843 16.168 35.6383 15.972 35.1623 15.58C34.6863 15.1787 34.4483 14.628 34.4483 13.928C34.4483 13.2093 34.6817 12.6633 35.1483 12.29C35.6243 11.9167 36.175 11.73 36.8003 11.73C37.7617 11.73 38.4897 12.0193 38.9843 12.598V11.59C38.9843 11.198 38.8397 10.89 38.5503 10.666C38.261 10.442 37.8783 10.33 37.4023 10.33C36.6463 10.33 35.979 10.6147 35.4003 11.184L34.7983 10.162C35.5637 9.434 36.511 9.07 37.6403 9.07C38.471 9.07 39.1477 9.266 39.6703 9.658C40.193 10.05 40.4543 10.6707 40.4543 11.52V16ZM37.3743 15.16C38.1117 15.16 38.6483 14.9267 38.9843 14.46V13.438C38.6483 12.9713 38.1117 12.738 37.3743 12.738C36.9543 12.738 36.609 12.85 36.3383 13.074C36.0677 13.298 35.9323 13.592 35.9323 13.956C35.9323 14.32 36.0677 14.614 36.3383 14.838C36.609 15.0527 36.9543 15.16 37.3743 15.16ZM43.3402 16H41.4922L44.3622 12.304L41.5482 9.238H43.3682L45.7902 11.884V9.238H47.2602V11.884L49.6822 9.238H51.5022L48.6882 12.304L51.5582 16H49.7102L47.6382 13.214L47.2602 13.606V16H45.7902V13.606L45.4122 13.214L43.3402 16ZM51.9004 17.722V14.782C52.2178 14.7073 52.4558 14.5253 52.6144 14.236C52.7824 13.9373 52.9178 13.368 53.0204 12.528L53.4264 9.238H58.6484V14.712H59.3904V17.722H57.9204V16H53.3704V17.722H51.9004ZM54.7284 10.526L54.4904 12.696C54.3971 13.592 54.0984 14.264 53.5944 14.712H57.1784V10.526H54.7284ZM66.1985 16H64.7285V15.272C64.2058 15.8693 63.4778 16.168 62.5445 16.168C61.9285 16.168 61.3825 15.972 60.9065 15.58C60.4305 15.1787 60.1925 14.628 60.1925 13.928C60.1925 13.2093 60.4258 12.6633 60.8925 12.29C61.3685 11.9167 61.9192 11.73 62.5445 11.73C63.5058 11.73 64.2338 12.0193 64.7285 12.598V11.59C64.7285 11.198 64.5838 10.89 64.2945 10.666C64.0052 10.442 63.6225 10.33 63.1465 10.33C62.3905 10.33 61.7232 10.6147 61.1445 11.184L60.5425 10.162C61.3078 9.434 62.2552 9.07 63.3845 9.07C64.2152 9.07 64.8918 9.266 65.4145 9.658C65.9372 10.05 66.1985 10.6707 66.1985 11.52V16ZM63.1185 15.16C63.8558 15.16 64.3925 14.9267 64.7285 14.46V13.438C64.3925 12.9713 63.8558 12.738 63.1185 12.738C62.6985 12.738 62.3532 12.85 62.0825 13.074C61.8118 13.298 61.6765 13.592 61.6765 13.956C61.6765 14.32 61.8118 14.614 62.0825 14.838C62.3532 15.0527 62.6985 15.16 63.1185 15.16ZM69.5743 16H68.1043V9.238H69.5743V11.898H72.6823V9.238H74.1523V16H72.6823V13.186H69.5743V16ZM79.1414 16.168C78.1147 16.168 77.2747 15.8367 76.6214 15.174C75.968 14.502 75.6414 13.648 75.6414 12.612C75.6414 11.5853 75.968 10.7407 76.6214 10.078C77.2747 9.406 78.1147 9.07 79.1414 9.07C80.2707 9.07 81.134 9.47133 81.7314 10.274L80.7654 11.17C80.392 10.638 79.874 10.372 79.2114 10.372C78.5954 10.372 78.1007 10.582 77.7274 11.002C77.354 11.4127 77.1674 11.9493 77.1674 12.612C77.1674 13.2747 77.354 13.816 77.7274 14.236C78.1007 14.656 78.5954 14.866 79.2114 14.866C79.8554 14.866 80.3734 14.6 80.7654 14.068L81.7314 14.964C81.134 15.7667 80.2707 16.168 79.1414 16.168ZM85.7224 16H84.2524V10.526H82.3204V9.238H87.6684V10.526H85.7224V16ZM93.0159 16H88.8719V9.238H92.9179C93.5433 9.238 94.0333 9.40133 94.3879 9.728C94.7426 10.0547 94.9199 10.47 94.9199 10.974C94.9199 11.366 94.8126 11.6973 94.5979 11.968C94.3833 12.2387 94.1126 12.4207 93.7859 12.514C94.1499 12.598 94.4533 12.7987 94.6959 13.116C94.9386 13.424 95.0599 13.774 95.0599 14.166C95.0599 14.7073 94.8779 15.1507 94.5139 15.496C94.1593 15.832 93.6599 16 93.0159 16ZM92.7079 14.712C92.9693 14.712 93.1746 14.6467 93.3239 14.516C93.4733 14.376 93.5479 14.1893 93.5479 13.956C93.5479 13.7413 93.4733 13.5593 93.3239 13.41C93.1746 13.2607 92.9693 13.186 92.7079 13.186H90.3419V14.712H92.7079ZM92.6659 11.898C92.8993 11.898 93.0813 11.8373 93.2119 11.716C93.3519 11.5853 93.4219 11.422 93.4219 11.226C93.4219 11.0113 93.3519 10.8433 93.2119 10.722C93.0813 10.5913 92.8993 10.526 92.6659 10.526H90.3419V11.898H92.6659ZM99.9356 16.168C98.8903 16.168 98.0503 15.8273 97.4156 15.146C96.781 14.4553 96.4636 13.6107 96.4636 12.612C96.4636 11.6133 96.781 10.7733 97.4156 10.092C98.0503 9.41067 98.8903 9.07 99.9356 9.07C100.99 9.07 101.835 9.41067 102.47 10.092C103.104 10.7733 103.422 11.6133 103.422 12.612C103.422 13.62 103.104 14.4647 102.47 15.146C101.835 15.8273 100.99 16.168 99.9356 16.168ZM99.9356 14.866C100.542 14.866 101.018 14.6513 101.364 14.222C101.718 13.7833 101.896 13.2467 101.896 12.612C101.896 11.9867 101.718 11.4593 101.364 11.03C101.018 10.5913 100.542 10.372 99.9356 10.372C99.3383 10.372 98.8623 10.5913 98.5076 11.03C98.1623 11.4593 97.9896 11.9867 97.9896 12.612C97.9896 13.2467 98.1623 13.7833 98.5076 14.222C98.8623 14.6513 99.3383 14.866 99.9356 14.866Z" fill="white"/>
</svg>
