<svg width="105" height="24" viewBox="0 0 105 24" fill="none" xmlns="http://www.w3.org/2000/svg">
<path d="M0 0L9 12L0 24H105V0H0Z" fill="#60BF86"/>
<path d="M24.474 16.168C23.074 16.168 21.9073 15.72 20.974 14.824C20.0407 13.9187 19.574 12.7567 19.574 11.338C19.574 9.91933 20.0407 8.762 20.974 7.866C21.9073 6.96067 23.074 6.508 24.474 6.508C26.098 6.508 27.3487 7.208 28.226 8.608L26.826 9.322C26.5927 8.92067 26.2613 8.594 25.832 8.342C25.412 8.09 24.9593 7.964 24.474 7.964C23.55 7.964 22.78 8.28133 22.164 8.916C21.5573 9.55067 21.254 10.358 21.254 11.338C21.254 12.318 21.5573 13.1253 22.164 13.76C22.78 14.3947 23.55 14.712 24.474 14.712C24.9687 14.712 25.426 14.586 25.846 14.334C26.266 14.082 26.5927 13.7553 26.826 13.354L28.226 14.068C27.33 15.468 26.0793 16.168 24.474 16.168ZM35.823 16H33.975L31.903 13.214L30.965 14.18V16H29.495V9.238H30.965V12.5L33.947 9.238H35.767L32.953 12.304L35.823 16ZM38.2781 16H36.8641V9.238H38.3341V13.788L41.4421 9.238H42.9121V16H41.4421V11.324L38.2781 16ZM44.1211 17.722V14.782C44.4385 14.7073 44.6765 14.5253 44.8351 14.236C45.0031 13.9373 45.1385 13.368 45.2411 12.528L45.6471 9.238H50.8691V14.712H51.6111V17.722H50.1411V16H45.5911V17.722H44.1211ZM46.9491 10.526L46.7111 12.696C46.6178 13.592 46.3191 14.264 45.8151 14.712H49.3991V10.526H46.9491ZM59.1472 16H57.2992L55.2272 13.214L54.2892 14.18V16H52.8192V9.238H54.2892V12.5L57.2712 9.238H59.0912L56.2772 12.304L59.1472 16ZM65.7883 16H64.3183V15.272C63.7957 15.8693 63.0677 16.168 62.1343 16.168C61.5183 16.168 60.9723 15.972 60.4963 15.58C60.0203 15.1787 59.7823 14.628 59.7823 13.928C59.7823 13.2093 60.0157 12.6633 60.4823 12.29C60.9583 11.9167 61.509 11.73 62.1343 11.73C63.0957 11.73 63.8237 12.0193 64.3183 12.598V11.59C64.3183 11.198 64.1737 10.89 63.8843 10.666C63.595 10.442 63.2123 10.33 62.7363 10.33C61.9803 10.33 61.313 10.6147 60.7343 11.184L60.1323 10.162C60.8977 9.434 61.845 9.07 62.9743 9.07C63.805 9.07 64.4817 9.266 65.0043 9.658C65.527 10.05 65.7883 10.6707 65.7883 11.52V16ZM62.7083 15.16C63.4457 15.16 63.9823 14.9267 64.3183 14.46V13.438C63.9823 12.9713 63.4457 12.738 62.7083 12.738C62.2883 12.738 61.943 12.85 61.6723 13.074C61.4017 13.298 61.2663 13.592 61.2663 13.956C61.2663 14.32 61.4017 14.614 61.6723 14.838C61.943 15.0527 62.2883 15.16 62.7083 15.16ZM74.6639 16H73.0259V8.79L71.4999 10.372L70.5479 9.378L73.2359 6.662H74.6639V16ZM79.9123 16.168C78.4096 16.168 77.2523 15.6873 76.4403 14.726L77.3783 13.606C78.0316 14.3433 78.8716 14.712 79.8983 14.712C80.4769 14.712 80.9389 14.558 81.2843 14.25C81.6389 13.9327 81.8163 13.5407 81.8163 13.074C81.8163 12.57 81.6436 12.1687 81.2983 11.87C80.9623 11.562 80.5096 11.408 79.9403 11.408C79.1469 11.408 78.4656 11.6787 77.8963 12.22L76.7343 11.884V6.662H82.8522V8.104H78.3723V10.806C78.9136 10.2647 79.6183 9.994 80.4863 9.994C81.3076 9.994 82.0076 10.2693 82.5863 10.82C83.1743 11.3613 83.4683 12.0893 83.4683 13.004C83.4683 13.9653 83.1369 14.7353 82.4743 15.314C81.8209 15.8833 80.9669 16.168 79.9123 16.168ZM86.7528 11.156C86.0714 11.156 85.5161 10.9413 85.0868 10.512C84.6574 10.0733 84.4428 9.52267 84.4428 8.86C84.4428 8.188 84.6574 7.63267 85.0868 7.194C85.5161 6.746 86.0714 6.522 86.7528 6.522C87.4434 6.522 88.0034 6.746 88.4328 7.194C88.8714 7.63267 89.0908 8.188 89.0908 8.86C89.0908 9.52267 88.8714 10.0733 88.4328 10.512C88.0034 10.9413 87.4434 11.156 86.7528 11.156ZM86.7808 16H85.8568L91.8208 6.662H92.7588L86.7808 16ZM93.4448 15.524C93.0154 15.9533 92.4601 16.168 91.7788 16.168C91.0974 16.168 90.5421 15.9533 90.1128 15.524C89.6834 15.0853 89.4688 14.5347 89.4688 13.872C89.4688 13.2 89.6834 12.6447 90.1128 12.206C90.5421 11.758 91.0974 11.534 91.7788 11.534C92.4601 11.534 93.0154 11.758 93.4448 12.206C93.8834 12.654 94.1028 13.2093 94.1028 13.872C94.1028 14.5347 93.8834 15.0853 93.4448 15.524ZM86.7528 10.232C87.1168 10.232 87.4154 10.106 87.6488 9.854C87.8821 9.59267 87.9988 9.26133 87.9988 8.86C87.9988 8.44 87.8821 8.104 87.6488 7.852C87.4154 7.59067 87.1168 7.46 86.7528 7.46C86.3888 7.46 86.0901 7.59067 85.8568 7.852C85.6328 8.104 85.5208 8.44 85.5208 8.86C85.5208 9.26133 85.6374 9.59267 85.8708 9.854C86.1041 10.106 86.3981 10.232 86.7528 10.232ZM90.8828 14.866C91.1161 15.118 91.4148 15.244 91.7788 15.244C92.1428 15.244 92.4414 15.118 92.6748 14.866C92.9081 14.6047 93.0248 14.2733 93.0248 13.872C93.0248 13.452 92.9081 13.116 92.6748 12.864C92.4414 12.6027 92.1428 12.472 91.7788 12.472C91.4148 12.472 91.1161 12.6027 90.8828 12.864C90.6588 13.116 90.5468 13.452 90.5468 13.872C90.5468 14.2733 90.6588 14.6047 90.8828 14.866Z" fill="white"/>
</svg>
