<svg width="155" height="24" viewBox="0 0 155 24" fill="none" xmlns="http://www.w3.org/2000/svg">
<path d="M0 0L9 12L0 24H155V0H0Z" fill="#E0BB7F"/>
<path d="M24.474 16.168C23.074 16.168 21.9073 15.72 20.974 14.824C20.0407 13.9187 19.574 12.7567 19.574 11.338C19.574 9.91933 20.0407 8.762 20.974 7.866C21.9073 6.96067 23.074 6.508 24.474 6.508C26.098 6.508 27.3487 7.208 28.226 8.608L26.826 9.322C26.5927 8.92067 26.2613 8.594 25.832 8.342C25.412 8.09 24.9593 7.964 24.474 7.964C23.55 7.964 22.78 8.28133 22.164 8.916C21.5573 9.55067 21.254 10.358 21.254 11.338C21.254 12.318 21.5573 13.1253 22.164 13.76C22.78 14.3947 23.55 14.712 24.474 14.712C24.9687 14.712 25.426 14.586 25.846 14.334C26.266 14.082 26.5927 13.7553 26.826 13.354L28.226 14.068C27.33 15.468 26.0793 16.168 24.474 16.168ZM35.543 16H34.073V10.526H30.965V16H29.495V9.238H35.543V16ZM40.574 16.168C39.5473 16.168 38.698 15.8413 38.026 15.188C37.3633 14.5253 37.032 13.6667 37.032 12.612C37.032 11.6227 37.354 10.7873 37.998 10.106C38.6513 9.41533 39.4727 9.07 40.462 9.07C41.4607 9.07 42.2633 9.41533 42.87 10.106C43.486 10.7967 43.794 11.6787 43.794 12.752V13.102H38.572C38.628 13.634 38.8473 14.0773 39.23 14.432C39.6127 14.7867 40.112 14.964 40.728 14.964C41.0733 14.964 41.4187 14.8987 41.764 14.768C42.1187 14.6373 42.4127 14.4553 42.646 14.222L43.318 15.188C42.6367 15.8413 41.722 16.168 40.574 16.168ZM42.366 12.066C42.3473 11.5993 42.1747 11.184 41.848 10.82C41.5307 10.456 41.0687 10.274 40.462 10.274C39.8833 10.274 39.4307 10.456 39.104 10.82C38.7773 11.1747 38.5953 11.59 38.558 12.066H42.366ZM50.565 17.722V16H45.245V9.238H46.715V14.712H49.823V9.238H51.293V14.712H52.035V17.722H50.565ZM62.8867 16H61.4167V10.526H58.3087V16H56.8387V9.238H62.8867V16ZM68.4358 16.168C67.5398 16.168 66.8164 15.7993 66.2658 15.062V18.576H64.7958V9.238H66.2658V10.162C66.8071 9.434 67.5304 9.07 68.4358 9.07C69.3224 9.07 70.0411 9.38733 70.5918 10.022C71.1518 10.6567 71.4318 11.52 71.4318 12.612C71.4318 13.704 71.1518 14.572 70.5918 15.216C70.0411 15.8507 69.3224 16.168 68.4358 16.168ZM68.0018 14.866C68.5804 14.866 69.0424 14.656 69.3878 14.236C69.7331 13.816 69.9058 13.2747 69.9058 12.612C69.9058 11.9493 69.7331 11.4127 69.3878 11.002C69.0424 10.582 68.5804 10.372 68.0018 10.372C67.6658 10.372 67.3344 10.4607 67.0078 10.638C66.6811 10.8153 66.4338 11.03 66.2658 11.282V13.956C66.4338 14.208 66.6811 14.4227 67.0078 14.6C67.3344 14.7773 67.6658 14.866 68.0018 14.866ZM76.0115 16.168C74.9848 16.168 74.1355 15.8413 73.4635 15.188C72.8008 14.5253 72.4695 13.6667 72.4695 12.612C72.4695 11.6227 72.7915 10.7873 73.4355 10.106C74.0888 9.41533 74.9102 9.07 75.8995 9.07C76.8982 9.07 77.7008 9.41533 78.3075 10.106C78.9235 10.7967 79.2315 11.6787 79.2315 12.752V13.102H74.0095C74.0655 13.634 74.2848 14.0773 74.6675 14.432C75.0502 14.7867 75.5495 14.964 76.1655 14.964C76.5108 14.964 76.8562 14.8987 77.2015 14.768C77.5562 14.6373 77.8502 14.4553 78.0835 14.222L78.7555 15.188C78.0742 15.8413 77.1595 16.168 76.0115 16.168ZM77.8035 12.066C77.7848 11.5993 77.6122 11.184 77.2855 10.82C76.9682 10.456 76.5062 10.274 75.8995 10.274C75.3208 10.274 74.8682 10.456 74.5415 10.82C74.2148 11.1747 74.0328 11.59 73.9955 12.066H77.8035ZM79.9825 17.722V14.782C80.2998 14.7073 80.5378 14.5253 80.6965 14.236C80.8645 13.9373 80.9998 13.368 81.1025 12.528L81.5085 9.238H86.7305V14.712H87.4725V17.722H86.0025V16H81.4525V17.722H79.9825ZM82.8105 10.526L82.5725 12.696C82.4791 13.592 82.1805 14.264 81.6765 14.712H85.2605V10.526H82.8105ZM87.9805 16.168V14.964C88.2698 14.964 88.4985 14.7773 88.6665 14.404C88.8438 14.0307 88.9885 13.4053 89.1005 12.528L89.5065 9.238H94.7285V16H93.2585V10.526H90.8085L90.5705 12.696C90.4398 13.9093 90.1645 14.7913 89.7445 15.342C89.3245 15.8927 88.7365 16.168 87.9805 16.168ZM99.6895 16.168C98.6442 16.168 97.8042 15.8273 97.1695 15.146C96.5349 14.4553 96.2175 13.6107 96.2175 12.612C96.2175 11.6133 96.5349 10.7733 97.1695 10.092C97.8042 9.41067 98.6442 9.07 99.6895 9.07C100.744 9.07 101.589 9.41067 102.224 10.092C102.858 10.7733 103.176 11.6133 103.176 12.612C103.176 13.62 102.858 14.4647 102.224 15.146C101.589 15.8273 100.744 16.168 99.6895 16.168ZM99.6895 14.866C100.296 14.866 100.772 14.6513 101.118 14.222C101.472 13.7833 101.65 13.2467 101.65 12.612C101.65 11.9867 101.472 11.4593 101.118 11.03C100.772 10.5913 100.296 10.372 99.6895 10.372C99.0922 10.372 98.6162 10.5913 98.2615 11.03C97.9162 11.4593 97.7435 11.9867 97.7435 12.612C97.7435 13.2467 97.9162 13.7833 98.2615 14.222C98.6162 14.6513 99.0922 14.866 99.6895 14.866ZM105.151 16H103.303L106.173 12.304L103.359 9.238H105.179L107.601 11.884V9.238H109.071V11.884L111.493 9.238H113.313L110.499 12.304L113.369 16H111.521L109.449 13.214L109.071 13.606V16H107.601V13.606L107.223 13.214L105.151 16ZM117.465 16.168C116.438 16.168 115.589 15.8413 114.917 15.188C114.254 14.5253 113.923 13.6667 113.923 12.612C113.923 11.6227 114.245 10.7873 114.889 10.106C115.542 9.41533 116.363 9.07 117.353 9.07C118.351 9.07 119.154 9.41533 119.761 10.106C120.377 10.7967 120.685 11.6787 120.685 12.752V13.102H115.463C115.519 13.634 115.738 14.0773 116.121 14.432C116.503 14.7867 117.003 14.964 117.619 14.964C117.964 14.964 118.309 14.8987 118.655 14.768C119.009 14.6373 119.303 14.4553 119.537 14.222L120.209 15.188C119.527 15.8413 118.613 16.168 117.465 16.168ZM119.257 12.066C119.238 11.5993 119.065 11.184 118.739 10.82C118.421 10.456 117.959 10.274 117.353 10.274C116.774 10.274 116.321 10.456 115.995 10.82C115.668 11.1747 115.486 11.59 115.449 12.066H119.257ZM123.606 16H122.136V9.238H123.606V11.898H126.714V9.238H128.184V16H126.714V13.186H123.606V16ZM131.507 16H130.093V9.238H131.563V13.788L134.671 9.238H136.141V16H134.671V11.324L131.507 16ZM141.172 16.168C140.145 16.168 139.296 15.8413 138.624 15.188C137.961 14.5253 137.63 13.6667 137.63 12.612C137.63 11.6227 137.952 10.7873 138.596 10.106C139.249 9.41533 140.07 9.07 141.06 9.07C142.058 9.07 142.861 9.41533 143.468 10.106C144.084 10.7967 144.392 11.6787 144.392 12.752V13.102H139.17C139.226 13.634 139.445 14.0773 139.828 14.432C140.21 14.7867 140.71 14.964 141.326 14.964C141.671 14.964 142.016 14.8987 142.362 14.768C142.716 14.6373 143.01 14.4553 143.244 14.222L143.916 15.188C143.234 15.8413 142.32 16.168 141.172 16.168ZM142.964 12.066C142.945 11.5993 142.772 11.184 142.446 10.82C142.128 10.456 141.666 10.274 141.06 10.274C140.481 10.274 140.028 10.456 139.702 10.82C139.375 11.1747 139.193 11.59 139.156 12.066H142.964Z" fill="white"/>
</svg>
