<svg width="20" height="20" viewBox="0 0 20 20" fill="none" xmlns="http://www.w3.org/2000/svg">
<path d="M9.99973 0C7.91664 0.00245748 5.91957 0.831051 4.4466 2.30402C2.97364 3.77699 2.14504 5.77405 2.14259 7.85714C2.14009 9.55945 2.69614 11.2156 3.72544 12.5714C3.72544 12.5714 3.93973 12.8536 3.97473 12.8943L9.99973 20L16.0276 12.8907C16.059 12.8529 16.274 12.5714 16.274 12.5714L16.2747 12.5693C17.3035 11.214 17.8593 9.55866 17.8569 7.85714C17.8544 5.77405 17.0258 3.77699 15.5529 2.30402C14.0799 0.831051 12.0828 0.00245748 9.99973 0ZM9.99973 10.7143C9.43464 10.7143 8.88224 10.5467 8.41239 10.2328C7.94253 9.91882 7.57632 9.4726 7.36007 8.95052C7.14382 8.42845 7.08724 7.85397 7.19749 7.29974C7.30773 6.74551 7.57985 6.23642 7.97942 5.83684C8.379 5.43726 8.8881 5.16514 9.44233 5.0549C9.99656 4.94466 10.571 5.00124 11.0931 5.21749C11.6152 5.43374 12.0614 5.79994 12.3754 6.2698C12.6893 6.73965 12.8569 7.29205 12.8569 7.85714C12.8559 8.61461 12.5546 9.34079 12.019 9.8764C11.4834 10.412 10.7572 10.7133 9.99973 10.7143Z" fill="#1F336D"/>
</svg>
