<svg width="16" height="20" viewBox="0 0 16 20" fill="none" xmlns="http://www.w3.org/2000/svg">
<path d="M7.99973 0C5.91664 0.00245748 3.91957 0.831051 2.4466 2.30402C0.973637 3.77699 0.145044 5.77405 0.142586 7.85714C0.140092 9.55945 0.696144 11.2156 1.72544 12.5714C1.72544 12.5714 1.93973 12.8536 1.97473 12.8943L7.99973 20L14.0276 12.8907C14.059 12.8529 14.274 12.5714 14.274 12.5714L14.2747 12.5693C15.3035 11.214 15.8593 9.55866 15.8569 7.85714C15.8544 5.77405 15.0258 3.77699 13.5529 2.30402C12.0799 0.831051 10.0828 0.00245748 7.99973 0ZM7.99973 10.7143C7.43464 10.7143 6.88224 10.5467 6.41239 10.2328C5.94253 9.91882 5.57632 9.4726 5.36007 8.95052C5.14382 8.42845 5.08724 7.85397 5.19749 7.29974C5.30773 6.74551 5.57985 6.23642 5.97942 5.83684C6.379 5.43726 6.8881 5.16514 7.44233 5.0549C7.99656 4.94466 8.57104 5.00124 9.09311 5.21749C9.61518 5.43374 10.0614 5.79994 10.3754 6.2698C10.6893 6.73965 10.8569 7.29205 10.8569 7.85714C10.8559 8.61461 10.5546 9.34079 10.019 9.8764C9.48338 10.412 8.7572 10.7133 7.99973 10.7143Z" fill="white"/>
</svg>
