<svg width="18" height="18" viewBox="0 0 18 18" fill="none" xmlns="http://www.w3.org/2000/svg">
<path d="M13.9091 3.27454H14.7272V4.09262C14.7272 4.30959 14.8134 4.51767 14.9669 4.67109C15.1203 4.82451 15.3284 4.9107 15.5454 4.9107C15.7624 4.9107 15.9705 4.82451 16.124 4.67109C16.2774 4.51767 16.3636 4.30959 16.3636 4.09262V3.27454H17.1818C17.3988 3.27454 17.6069 3.18835 17.7603 3.03493C17.9138 2.88151 18 2.67343 18 2.45646C18 2.23949 17.9138 2.03141 17.7603 1.87799C17.6069 1.72457 17.3988 1.63838 17.1818 1.63838H16.3636V0.820296C16.3636 0.603328 16.2774 0.395246 16.124 0.241826C15.9705 0.0884058 15.7624 0.00221544 15.5454 0.00221544C15.3284 0.00221544 15.1203 0.0884058 14.9669 0.241826C14.8134 0.395246 14.7272 0.603328 14.7272 0.820296V1.63838H13.9091C13.6921 1.63838 13.484 1.72457 13.3305 1.87799C13.1771 2.03141 13.0909 2.23949 13.0909 2.45646C13.0909 2.67343 13.1771 2.88151 13.3305 3.03493C13.484 3.18835 13.6921 3.27454 13.9091 3.27454ZM16.8545 6.54686C16.7492 6.56833 16.6492 6.61033 16.5601 6.67047C16.471 6.7306 16.3947 6.80769 16.3354 6.89734C16.2761 6.98698 16.2351 7.08742 16.2147 7.19292C16.1943 7.29842 16.1948 7.40691 16.2163 7.5122C16.5358 9.06345 16.3464 10.6763 15.6764 12.1115C15.0064 13.5466 13.8914 14.7274 12.497 15.4787C11.1026 16.23 9.50301 16.5117 7.93578 16.2819C6.36855 16.0522 4.9172 15.3232 3.79715 14.2033C2.6771 13.0834 1.94808 11.6322 1.71829 10.0652C1.4885 8.49814 1.77021 6.89878 2.52158 5.50452C3.27295 4.11025 4.45394 2.99541 5.88924 2.32547C7.32454 1.65553 8.93763 1.46622 10.4891 1.78563C10.7061 1.82903 10.9314 1.78445 11.1155 1.66172C11.2997 1.53898 11.4275 1.34814 11.4709 1.13117C11.5143 0.914199 11.4697 0.688878 11.347 0.504774C11.2242 0.320671 11.0333 0.192864 10.8163 0.14947C10.2176 0.0379257 9.60889 -0.0114215 8.99998 0.00221544C7.21996 0.00221544 5.4799 0.529991 3.99986 1.5188C2.51982 2.50761 1.36627 3.91305 0.685087 5.55738C0.00389958 7.20171 -0.17433 9.01109 0.172936 10.7567C0.520202 12.5023 1.37737 14.1058 2.63604 15.3643C3.89471 16.6228 5.49835 17.4799 7.24417 17.8271C8.99 18.1743 10.7996 17.9961 12.4441 17.315C14.0887 16.6339 15.4943 15.4805 16.4832 14.0006C17.4721 12.5208 18 10.7809 18 9.00111C18.0017 8.3966 17.9414 7.79352 17.82 7.20133C17.8004 7.09456 17.7597 6.99277 17.7004 6.90187C17.641 6.81097 17.5642 6.73279 17.4744 6.67187C17.3845 6.61096 17.2834 6.56854 17.177 6.54708C17.0706 6.52561 16.961 6.52554 16.8545 6.54686ZM4.90908 4.9107V13.0915C4.90908 13.3085 4.99528 13.5166 5.14872 13.67C5.30216 13.8234 5.51027 13.9096 5.72726 13.9096C5.94426 13.9096 6.15237 13.8234 6.3058 13.67C6.45924 13.5166 6.54544 13.3085 6.54544 13.0915V4.9107C6.54544 4.69373 6.45924 4.48565 6.3058 4.33223C6.15237 4.17881 5.94426 4.09262 5.72726 4.09262C5.51027 4.09262 5.30216 4.17881 5.14872 4.33223C4.99528 4.48565 4.90908 4.69373 4.90908 4.9107ZM8.1818 6.54686V11.4553C8.1818 12.1063 8.44041 12.7305 8.90072 13.1908C9.36104 13.651 9.98536 13.9096 10.6363 13.9096H11.4545C12.1055 13.9096 12.7298 13.651 13.1901 13.1908C13.6505 12.7305 13.9091 12.1063 13.9091 11.4553V10.6373C13.9091 9.98636 13.6505 9.36212 13.1901 8.90186C12.7298 8.4416 12.1055 8.18303 11.4545 8.18303H9.81816V6.54686C9.81816 6.3299 9.90436 6.12181 10.0578 5.96839C10.2112 5.81497 10.4193 5.72878 10.6363 5.72878H11.4545C11.6715 5.72878 11.8796 5.81497 12.0331 5.96839C12.1865 6.12181 12.2727 6.3299 12.2727 6.54686C12.2727 6.76383 12.3589 6.97191 12.5123 7.12533C12.6658 7.27875 12.8739 7.36494 13.0909 7.36494C13.3079 7.36494 13.516 7.27875 13.6694 7.12533C13.8229 6.97191 13.9091 6.76383 13.9091 6.54686C13.9091 5.89596 13.6505 5.27171 13.1901 4.81145C12.7298 4.35119 12.1055 4.09262 11.4545 4.09262H10.6363C9.98536 4.09262 9.36104 4.35119 8.90072 4.81145C8.44041 5.27171 8.1818 5.89596 8.1818 6.54686ZM11.4545 9.81919C11.6715 9.81919 11.8796 9.90538 12.0331 10.0588C12.1865 10.2122 12.2727 10.4203 12.2727 10.6373V11.4553C12.2727 11.6723 12.1865 11.8804 12.0331 12.0338C11.8796 12.1872 11.6715 12.2734 11.4545 12.2734H10.6363C10.4193 12.2734 10.2112 12.1872 10.0578 12.0338C9.90436 11.8804 9.81816 11.6723 9.81816 11.4553V9.81919H11.4545Z" fill="white"/>
</svg>
