<svg width="40" height="40" viewBox="0 0 40 40" fill="none" xmlns="http://www.w3.org/2000/svg">
<circle cx="20" cy="20" r="20" fill="#003060"/>
<g clip-path="url(#clip0_655_116300)">
<path d="M17.76 21.12L22.24 23.36M17.76 18.88L22.24 16.64M18.04 20C18.04 21.3918 16.9118 22.52 15.52 22.52C14.1282 22.52 13 21.3918 13 20C13 18.6082 14.1282 17.48 15.52 17.48C16.9118 17.48 18.04 18.6082 18.04 20ZM27 24.48C27 25.8718 25.8718 27 24.48 27C23.0882 27 21.96 25.8718 21.96 24.48C21.96 23.0882 23.0882 21.96 24.48 21.96C25.8718 21.96 27 23.0882 27 24.48ZM27 15.52C27 16.9118 25.8718 18.04 24.48 18.04C23.0882 18.04 21.96 16.9118 21.96 15.52C21.96 14.1282 23.0882 13 24.48 13C25.8718 13 27 14.1282 27 15.52Z" stroke="white" stroke-width="1.5" stroke-linecap="round" stroke-linejoin="round"/>
</g>
<defs>
<clipPath id="clip0_655_116300">
<rect width="16" height="16" fill="white" transform="translate(12 12)"/>
</clipPath>
</defs>
</svg>
