<svg width="24" height="24" viewBox="0 0 24 24" fill="none" xmlns="http://www.w3.org/2000/svg">
<path d="M12 0C9.62663 0 7.30655 0.703787 5.33316 2.02236C3.35977 3.34094 1.8217 5.21508 0.913451 7.4078C0.00519945 9.60051 -0.232441 12.0133 0.230582 14.3411C0.693605 16.6689 1.83649 18.807 3.51472 20.4853C5.19295 22.1635 7.33115 23.3064 9.65892 23.7694C11.9867 24.2324 14.3995 23.9948 16.5922 23.0865C18.7849 22.1783 20.6591 20.6402 21.9776 18.6668C23.2962 16.6935 24 14.3734 24 12C24 8.8174 22.7357 5.76515 20.4853 3.51472C18.2348 1.26428 15.1826 0 12 0ZM12 21.8182C10.0582 21.8182 8.15991 21.2424 6.54532 20.1635C4.93072 19.0847 3.6723 17.5513 2.92919 15.7573C2.18607 13.9632 1.99164 11.9891 2.37048 10.0846C2.74931 8.18003 3.6844 6.43059 5.0575 5.0575C6.4306 3.6844 8.18003 2.74931 10.0846 2.37047C11.9891 1.99163 13.9632 2.18607 15.7573 2.92918C17.5513 3.6723 19.0847 4.93072 20.1635 6.54531C21.2424 8.1599 21.8182 10.0581 21.8182 12C21.8182 14.6039 20.7838 17.1012 18.9425 18.9425C17.1012 20.7838 14.6039 21.8182 12 21.8182ZM14.1818 6.54545V5.45454C14.1818 5.16522 14.0669 4.88774 13.8623 4.68316C13.6577 4.47857 13.3802 4.36364 13.0909 4.36364C12.8016 4.36364 12.5241 4.47857 12.3195 4.68316C12.1149 4.88774 12 5.16522 12 5.45454V6.54545H10.9091V5.45454C10.9091 5.16522 10.7942 4.88774 10.5896 4.68316C10.385 4.47857 10.1075 4.36364 9.81819 4.36364C9.52886 4.36364 9.25138 4.47857 9.0468 4.68316C8.84221 4.88774 8.72728 5.16522 8.72728 5.45454V6.54545H7.63637C7.34704 6.54545 7.06956 6.66039 6.86498 6.86497C6.66039 7.06956 6.54546 7.34703 6.54546 7.63636C6.54546 7.92569 6.66039 8.20317 6.86498 8.40775C7.06956 8.61234 7.34704 8.72727 7.63637 8.72727H8.72728V15.2727H7.63637C7.34704 15.2727 7.06956 15.3877 6.86498 15.5922C6.66039 15.7968 6.54546 16.0743 6.54546 16.3636C6.54546 16.653 6.66039 16.9304 6.86498 17.135C7.06956 17.3396 7.34704 17.4545 7.63637 17.4545H8.72728V18.5455C8.72728 18.8348 8.84221 19.1123 9.0468 19.3168C9.25138 19.5214 9.52886 19.6364 9.81819 19.6364C10.1075 19.6364 10.385 19.5214 10.5896 19.3168C10.7942 19.1123 10.9091 18.8348 10.9091 18.5455V17.4545H12V18.5455C12 18.8348 12.1149 19.1123 12.3195 19.3168C12.5241 19.5214 12.8016 19.6364 13.0909 19.6364C13.3802 19.6364 13.6577 19.5214 13.8623 19.3168C14.0669 19.1123 14.1818 18.8348 14.1818 18.5455V17.4545C15.0498 17.4545 15.8822 17.1097 16.496 16.496C17.1097 15.8822 17.4545 15.0498 17.4545 14.1818C17.4527 13.3759 17.1536 12.599 16.6145 12C17.1536 11.401 17.4527 10.6241 17.4545 9.81818C17.4545 8.9502 17.1097 8.11777 16.496 7.50401C15.8822 6.89026 15.0498 6.54545 14.1818 6.54545ZM14.1818 15.2727H10.9091V13.0909H14.1818C14.4711 13.0909 14.7486 13.2058 14.9532 13.4104C15.1578 13.615 15.2727 13.8925 15.2727 14.1818C15.2727 14.4711 15.1578 14.7486 14.9532 14.9532C14.7486 15.1578 14.4711 15.2727 14.1818 15.2727ZM14.1818 10.9091H10.9091V8.72727H14.1818C14.4711 8.72727 14.7486 8.84221 14.9532 9.04679C15.1578 9.25138 15.2727 9.52885 15.2727 9.81818C15.2727 10.1075 15.1578 10.385 14.9532 10.5896C14.7486 10.7942 14.4711 10.9091 14.1818 10.9091Z" fill="#E0BB7F"/>
</svg>
