<svg width="6" height="10" viewBox="0 0 6 10" fill="none" xmlns="http://www.w3.org/2000/svg">
<path d="M1.64326 0.258311L5.71588 4.33724C5.80591 4.42563 5.87736 4.53078 5.92613 4.64665C5.97489 4.76251 6 4.88679 6 5.0123C6 5.13782 5.97489 5.26209 5.92613 5.37796C5.87736 5.49382 5.80591 5.59898 5.71588 5.68737L1.64326 9.71876C1.55396 9.80787 1.44773 9.87861 1.33068 9.92688C1.21363 9.97515 1.08809 10 0.961285 10C0.834485 10 0.708939 9.97515 0.59189 9.92688C0.474841 9.87861 0.368607 9.80787 0.279313 9.71876C0.100415 9.54061 0 9.29963 0 9.04844C0 8.79726 0.100415 8.55627 0.279313 8.37813L3.67957 5.0123L0.279313 1.64648C0.101862 1.46938 0.00182247 1.23035 0.000761032 0.980918C3.05176e-05 0.855786 0.0242591 0.731743 0.0720592 0.6159C0.119859 0.500056 0.19029 0.394692 0.279313 0.30585C0.365393 0.213552 0.469097 0.139052 0.584433 0.0866575C0.699768 0.0342617 0.824449 0.0050087 0.951272 0.000588417C1.07809 -0.00383186 1.20455 0.0166683 1.32332 0.0609035C1.44209 0.10514 1.55083 0.172234 1.64326 0.258311Z" fill="#1F336D"/>
</svg>
