<svg width="16" height="16" viewBox="0 0 16 16" fill="none" xmlns="http://www.w3.org/2000/svg">
<path d="M10.2857 8C10.2857 8.75776 10.5867 9.48449 11.1226 10.0203C11.6584 10.5561 12.3851 10.8571 13.1429 10.8571C13.9006 10.8571 14.6273 10.5561 15.1632 10.0203C15.699 9.48449 16 8.75776 16 8C16.0001 7.91136 15.9795 7.82391 15.94 7.74457L13.6549 3.17486C13.6471 3.15899 13.6385 3.14354 13.6291 3.12857C13.578 3.04561 13.5064 2.97712 13.4213 2.92961C13.3362 2.8821 13.2403 2.85715 13.1429 2.85714H9.61257C9.52631 2.61809 9.38823 2.40108 9.20823 2.22167C9.02823 2.04227 8.81077 1.9049 8.57143 1.81943V0H7.42857V1.81943C7.18924 1.9049 6.97177 2.04227 6.79177 2.22167C6.61177 2.40108 6.47369 2.61809 6.38743 2.85714H2.85714C2.75105 2.8572 2.64707 2.88679 2.55684 2.9426C2.46662 2.99841 2.39371 3.07824 2.34629 3.17314L0.0605714 7.74457C0.0208323 7.82386 9.47293e-05 7.91131 0 8C0 8.75776 0.30102 9.48449 0.836838 10.0203C1.37266 10.5561 2.09938 10.8571 2.85714 10.8571C3.6149 10.8571 4.34163 10.5561 4.87745 10.0203C5.41327 9.48449 5.71429 8.75776 5.71429 8C5.71437 7.91136 5.69383 7.82391 5.65429 7.74457L3.78114 4H6.38686C6.47325 4.23901 6.61145 4.45594 6.79155 4.63525C6.97165 4.81456 7.18919 4.9518 7.42857 5.03714V14.8571H2.28571V16H13.7143V14.8571H8.57143V5.03771C8.81077 4.95224 9.02823 4.81488 9.20823 4.63547C9.38823 4.45606 9.52631 4.23905 9.61257 4H12.2183L10.3457 7.74457C10.3062 7.82391 10.2856 7.91136 10.2857 8ZM2.85714 9.71429C2.50387 9.71304 2.15963 9.60253 1.87164 9.39792C1.58365 9.19331 1.36601 8.90461 1.24857 8.57143H4.46571C4.34827 8.90461 4.13063 9.19331 3.84264 9.39792C3.55465 9.60253 3.21042 9.71304 2.85714 9.71429ZM4.21829 7.42857H1.496L2.85714 4.70629L4.21829 7.42857ZM8 4C7.88698 4 7.7765 3.96649 7.68253 3.9037C7.58856 3.84091 7.51532 3.75166 7.47207 3.64725C7.42882 3.54283 7.4175 3.42794 7.43955 3.31709C7.4616 3.20625 7.51602 3.10443 7.59594 3.02451C7.67586 2.94459 7.77767 2.89017 7.88852 2.86812C7.99937 2.84607 8.11426 2.85739 8.21868 2.90064C8.32309 2.94389 8.41234 3.01713 8.47513 3.1111C8.53792 3.20507 8.57143 3.31555 8.57143 3.42857C8.57143 3.58012 8.51123 3.72547 8.40406 3.83263C8.2969 3.9398 8.15155 4 8 4ZM13.1429 9.71429C12.7896 9.71304 12.4453 9.60253 12.1574 9.39792C11.8694 9.19331 11.6517 8.90461 11.5343 8.57143H14.7514C14.634 8.90461 14.4163 9.19331 14.1284 9.39792C13.8404 9.60253 13.4961 9.71304 13.1429 9.71429ZM13.1429 4.70629L14.504 7.42857H11.7817L13.1429 4.70629Z" fill="#1F336D"/>
</svg>