<svg width="24" height="24" viewBox="0 0 24 24" fill="none" xmlns="http://www.w3.org/2000/svg">
<rect width="24" height="24" rx="12" fill="#CB2028"/>
<path d="M6.29617 17.7034C6.68995 18.0972 7.3284 18.0972 7.72218 17.7034L11.9992 13.4264L16.2774 17.7047C16.6712 18.0984 17.3097 18.0984 17.7034 17.7047C18.0972 17.3109 18.0972 16.6724 17.7034 16.2786L13.4252 12.0004L17.7043 7.72135C18.0981 7.32757 18.0981 6.68912 17.7043 6.29534C17.3105 5.90155 16.672 5.90155 16.2783 6.29534L11.9992 10.5744L7.72135 6.29655C7.32757 5.90277 6.68912 5.90277 6.29534 6.29655C5.90155 6.69034 5.90155 7.32878 6.29534 7.72257L10.5732 12.0004L6.29617 16.2774C5.90239 16.6712 5.90239 17.3097 6.29617 17.7034Z" fill="#D9D9D9"/>
</svg>
