<svg width="16" height="16" viewBox="0 0 16 16" fill="none" xmlns="http://www.w3.org/2000/svg">
<path d="M2.28571 2C1.34571 2 0.571429 2.77429 0.571429 3.71429V7.58857C0.222857 7.904 0 8.35543 0 8.85714V14H2.85714V12.8571H13.1429V14H16V8.85714C16 8.35543 15.7771 7.904 15.4286 7.58857V3.71429C15.4286 2.77429 14.6543 2 13.7143 2H2.28571ZM2.28571 3.14286H13.7143C14.0314 3.14286 14.2857 3.39714 14.2857 3.71429V7.14286H13.1429V6.57143C13.1429 5.63143 12.3686 4.85714 11.4286 4.85714H9.14286C8.70457 4.85714 8.30457 5.02857 8 5.30286C7.6875 5.0177 7.28019 4.85885 6.85714 4.85714H4.57143C3.63143 4.85714 2.85714 5.63143 2.85714 6.57143V7.14286H1.71429V3.71429C1.71429 3.39714 1.96857 3.14286 2.28571 3.14286ZM4.57143 6H6.85714C7.17429 6 7.42857 6.25429 7.42857 6.57143V7.14286H4V6.57143C4 6.25429 4.25429 6 4.57143 6ZM9.14286 6H11.4286C11.7457 6 12 6.25429 12 6.57143V7.14286H8.57143V6.57143C8.57143 6.25429 8.82572 6 9.14286 6ZM1.71429 8.28571H14.2857C14.6029 8.28571 14.8571 8.54 14.8571 8.85714V12.8571H14.2857V11.7143H1.71429V12.8571H1.14286V8.85714C1.14286 8.54 1.39714 8.28571 1.71429 8.28571Z" fill="#E0BB7F"/>
</svg>
