<svg width="16" height="16" viewBox="0 0 16 16" fill="none" xmlns="http://www.w3.org/2000/svg">
<path d="M14.9333 8.81785H2.13333V2.83272C2.13271 2.60732 2.17692 2.38404 2.26339 2.1758C2.34986 1.96757 2.47688 1.7785 2.6371 1.61957L2.65043 1.60627C2.90152 1.35617 3.22389 1.1895 3.5735 1.12902C3.92312 1.06854 4.28292 1.11721 4.60377 1.26837C4.30076 1.77092 4.17481 2.36007 4.24594 2.94221C4.31708 3.52434 4.58121 4.06606 4.99637 4.48129L5.3614 4.84542L4.6895 5.51568L5.4437 6.26802L6.1156 5.59778L9.83857 1.88411L10.5105 1.21387L9.75623 0.46151L9.0843 1.13174L8.71927 0.767616C8.28222 0.332873 7.70611 0.0648816 7.09133 0.010342C6.47654 -0.0441976 5.86206 0.118172 5.35497 0.469158C4.82024 0.132299 4.18656 -0.0131251 3.55802 0.0567745C2.92948 0.126674 2.34346 0.407741 1.89623 0.853802L1.8829 0.867102C1.62331 1.12463 1.41751 1.43095 1.27741 1.76835C1.1373 2.10575 1.06567 2.46752 1.06667 2.83272V8.81785H0V9.88187H1.06667V10.9027C1.06664 10.9884 1.08051 11.0736 1.10773 11.155L2.1 14.1243C2.15295 14.2833 2.25477 14.4215 2.391 14.5195C2.52723 14.6175 2.69093 14.6701 2.85887 14.67H3.28887L2.9 16H4.0111L4.4 14.67H11.3367L11.7367 16H12.85L12.45 14.67H13.141C13.309 14.6701 13.4727 14.6175 13.6089 14.5195C13.7452 14.4216 13.847 14.2833 13.9 14.1243L14.8922 11.155C14.9194 11.0736 14.9333 10.9884 14.9333 10.9027V9.88187H16V8.81785H14.9333ZM5.75067 1.51998C6.04453 1.22748 6.44271 1.06321 6.85785 1.06321C7.27299 1.06321 7.67117 1.22748 7.96503 1.51998L8.33 1.88411L6.1157 4.09292L5.75067 3.72886C5.45746 3.43571 5.29279 3.03852 5.29279 2.62442C5.29279 2.21032 5.45746 1.81312 5.75067 1.51998ZM13.8667 10.8594L12.9489 13.6059H3.05107L2.13333 10.8594V9.88187H13.8667V10.8594Z" fill="#E0BB7F"/>
</svg>
