<svg width="16" height="16" viewBox="0 0 16 16" fill="none" xmlns="http://www.w3.org/2000/svg">
<path fill-rule="evenodd" clip-rule="evenodd" d="M1.60059 14.2602V6.72006H2.66716V14.2602C2.66716 14.4141 2.72335 14.5616 2.82336 14.6704C2.92337 14.7791 3.05901 14.8402 3.20045 14.8402H12.7996C12.9411 14.8402 13.0767 14.7791 13.1767 14.6704C13.2767 14.5616 13.3329 14.4141 13.3329 14.2602V6.72006H14.3995V14.2602C14.3995 14.7217 14.231 15.1643 13.9309 15.4906C13.6309 15.8169 13.224 16.0003 12.7996 16.0003H3.20045C2.77614 16.0003 2.36921 15.8169 2.06918 15.4906C1.76914 15.1643 1.60059 14.7217 1.60059 14.2602ZM13.3329 1.49994V5.56003L11.1998 3.23998V1.49994C11.1998 1.34611 11.256 1.19858 11.356 1.0898C11.456 0.98103 11.5916 0.919922 11.7331 0.919922H12.7996C12.9411 0.919922 13.0767 0.98103 13.1767 1.0898C13.2767 1.19858 13.3329 1.34611 13.3329 1.49994Z" fill="#E0BB7F"/>
<path fill-rule="evenodd" clip-rule="evenodd" d="M7.24593 0.33964C7.44594 0.122169 7.71718 0 8 0C8.28282 0 8.55406 0.122169 8.75407 0.33964L15.8436 8.04918C15.9437 8.15809 16 8.3058 16 8.45983C16 8.61385 15.9437 8.76156 15.8436 8.87048C15.7435 8.97939 15.6077 9.04057 15.466 9.04057C15.3244 9.04057 15.1886 8.97939 15.0885 8.87048L8 1.15978L0.91153 8.87048C0.811393 8.97939 0.675578 9.04057 0.533962 9.04057C0.392347 9.04057 0.256531 8.97939 0.156394 8.87048C0.0562566 8.76156 0 8.61385 0 8.45983C0 8.3058 0.0562566 8.15809 0.156394 8.04918L7.24593 0.33964Z" fill="#E0BB7F"/>
</svg>
