<svg width="17" height="16" viewBox="0 0 17 16" fill="none" xmlns="http://www.w3.org/2000/svg">
<path d="M11.3327 2.88889C11.3327 2.39722 11.7299 2 12.2216 2H15.7771C16.2688 2 16.666 2.39722 16.666 2.88889C16.666 3.38056 16.2688 3.77778 15.7771 3.77778H13.1105V6.44444C13.1105 6.93611 12.7132 7.33333 12.2216 7.33333H9.5549V10C9.5549 10.4917 9.15768 10.8889 8.66602 10.8889H5.99935V13.5556C5.99935 14.0472 5.60213 14.4444 5.11046 14.4444H1.5549C1.06324 14.4444 0.666016 14.0472 0.666016 13.5556C0.666016 13.0639 1.06324 12.6667 1.5549 12.6667H4.22157V10C4.22157 9.50833 4.61879 9.11111 5.11046 9.11111H7.77713V6.44444C7.77713 5.95278 8.17435 5.55556 8.66602 5.55556H11.3327V2.88889Z" fill="#E0BB7F"/>
</svg>
