<svg width="20" height="20" viewBox="0 0 20 20" fill="none" xmlns="http://www.w3.org/2000/svg">
<path fill-rule="evenodd" clip-rule="evenodd" d="M10 0C4.47715 0 0 4.47715 0 10C0 15.5228 4.47715 20 10 20C15.5228 20 20 15.5228 20 10C20 4.47715 15.5228 0 10 0ZM15.1693 4.35005L15.123 4.33222C14.7935 4.20502 14.42 4.06084 13.7316 3.99131C13.0457 3.92204 12.0555 3.92622 10.4415 4.05231L10.423 4.05376L10.4046 4.05612L10.2983 4.06968C9.36575 4.18832 7.98942 4.36342 6.90705 5.08973C6.32131 5.48279 5.8176 6.03645 5.50243 6.80882C5.1919 7.56979 5.08301 8.49679 5.20288 9.6175C5.29022 10.8081 5.50067 12.5601 5.90192 14.1217C6.10283 14.9036 6.35917 15.6684 6.68861 16.2993C7.00708 16.9092 7.45365 17.5104 8.09504 17.792C8.48783 17.9644 8.8907 17.8655 9.16179 17.6354C9.41388 17.4213 9.54998 17.1042 9.54998 16.783V11.3379C10.6479 11.4399 11.9874 11.4711 13.2494 11.123C13.6487 11.0128 13.8831 10.5998 13.773 10.2005C13.6628 9.80124 13.2498 9.56684 12.8505 9.67699C11.7866 9.97049 10.6046 9.93573 9.54998 9.83048V8.29999C9.54998 7.88577 9.21419 7.54999 8.79998 7.54999C8.38577 7.54999 8.04998 7.88577 8.04998 8.29999V15.6646C8.03944 15.6452 8.02886 15.6253 8.01824 15.605C7.76335 15.1169 7.54136 14.4747 7.35473 13.7484C6.98239 12.2993 6.78112 10.6369 6.69796 9.49549L6.697 9.4823L6.69558 9.46914C6.59275 8.52083 6.69675 7.85218 6.89124 7.37555C7.08232 6.9073 7.37862 6.57972 7.74287 6.33529C8.51391 5.81789 9.56436 5.67619 10.5768 5.54632C12.1513 5.42388 13.0313 5.42822 13.5808 5.48372C14.0689 5.53301 14.2962 5.62084 14.5801 5.73052L14.6307 5.75002C15.0173 5.89875 15.4512 5.70592 15.5999 5.31933C15.7487 4.93274 15.5558 4.49878 15.1693 4.35005Z" fill="white"/>
</svg>
