<svg width="40" height="40" viewBox="0 0 40 40" fill="none" xmlns="http://www.w3.org/2000/svg">
<circle cx="20" cy="20" r="19.25" transform="matrix(-1 0 0 1 40 0)" stroke="#1F336D" stroke-width="1.5"/>
<path d="M20.3567 15.2583L16.2841 19.3372C16.1941 19.4256 16.1226 19.5308 16.0739 19.6466C16.0251 19.7625 16 19.8868 16 20.0123C16 20.1378 16.0251 20.2621 16.0739 20.378C16.1226 20.4938 16.1941 20.599 16.2841 20.6874L20.3567 24.7188C20.446 24.8079 20.5523 24.8786 20.6693 24.9269C20.7864 24.9751 20.9119 25 21.0387 25C21.1655 25 21.2911 24.9751 21.4081 24.9269C21.5252 24.8786 21.6314 24.8079 21.7207 24.7188C21.8996 24.5406 22 24.2996 22 24.0484C22 23.7973 21.8996 23.5563 21.7207 23.3781L18.3204 20.0123L21.7207 16.6465C21.8981 16.4694 21.9982 16.2304 21.9992 15.9809C22 15.8558 21.9757 15.7317 21.9279 15.6159C21.8801 15.5001 21.8097 15.3947 21.7207 15.3059C21.6346 15.2136 21.5309 15.1391 21.4156 15.0867C21.3002 15.0343 21.1756 15.005 21.0487 15.0006C20.9219 14.9962 20.7955 15.0167 20.6767 15.0609C20.5579 15.1051 20.4492 15.1722 20.3567 15.2583Z" fill="#1F336D"/>
</svg>
