<svg width="40" height="40" viewBox="0 0 40 40" fill="none" xmlns="http://www.w3.org/2000/svg">
<circle cx="20" cy="20" r="19.25" stroke="#1F336D" stroke-width="1.5"/>
<path d="M19.6433 15.2583L23.7159 19.3372C23.8059 19.4256 23.8774 19.5308 23.9261 19.6466C23.9749 19.7625 24 19.8868 24 20.0123C24 20.1378 23.9749 20.2621 23.9261 20.378C23.8774 20.4938 23.8059 20.599 23.7159 20.6874L19.6433 24.7188C19.554 24.8079 19.4477 24.8786 19.3307 24.9269C19.2136 24.9751 19.0881 25 18.9613 25C18.8345 25 18.7089 24.9751 18.5919 24.9269C18.4748 24.8786 18.3686 24.8079 18.2793 24.7188C18.1004 24.5406 18 24.2996 18 24.0484C18 23.7973 18.1004 23.5563 18.2793 23.3781L21.6796 20.0123L18.2793 16.6465C18.1019 16.4694 18.0018 16.2304 18.0008 15.9809C18 15.8558 18.0243 15.7317 18.0721 15.6159C18.1199 15.5001 18.1903 15.3947 18.2793 15.3059C18.3654 15.2136 18.4691 15.1391 18.5844 15.0867C18.6998 15.0343 18.8244 15.005 18.9513 15.0006C19.0781 14.9962 19.2045 15.0167 19.3233 15.0609C19.4421 15.1051 19.5508 15.1722 19.6433 15.2583Z" fill="#1F336D"/>
</svg>
