<svg width="22" height="20" viewBox="0 0 22 20" fill="none" xmlns="http://www.w3.org/2000/svg">
<path d="M20.4515 4.24805C21.4566 6.37504 21.0795 9.00479 19.3267 10.7725L11.3073 18.8583C11.1203 19.0468 10.8168 19.0468 10.6298 18.8583L8.29541 16.5041L20.4515 4.24805Z" fill="#1F336D" stroke="white" stroke-width="1.5"/>
<path d="M11.3091 2.68538L4.75806 9.29196L2.95093 11.1144L5.62407 13.8102L17.7722 1.55903L17.7578 1.54453C15.6519 0.542267 13.0555 0.924162 11.3091 2.68538Z" fill="#1F336D" stroke="white" stroke-width="1.5"/>
<path d="M5.62402 13.811L8.29715 16.5068L20.4517 4.25083C20.1817 3.6788 19.8142 3.14383 19.3444 2.6717C18.8762 2.19957 18.3442 1.82735 17.7786 1.55664L5.62402 13.811Z" fill="#1F336D" stroke="white" stroke-width="1.5"/>
<path d="M5.6399 8.40218L1.55751 4.28516C0.544496 6.4186 0.911996 9.04672 2.66 10.8096L2.95559 11.1077L5.6399 8.40218Z" fill="#1F336D" stroke="white" stroke-width="1.5"/>
<path d="M8.32456 5.6955L4.24376 1.58008C3.67654 1.85401 3.14286 2.22785 2.6731 2.70159C2.20175 3.17694 1.83266 3.71353 1.56104 4.28556L5.64183 8.40097L8.32456 5.6955Z" fill="#1F336D" stroke="white" stroke-width="1.5"/>
<path d="M11.0083 2.98793L10.7127 2.68982C8.96468 0.926996 6.35866 0.559603 4.24316 1.57959L8.32396 5.69502L11.0083 2.98793Z" fill="#1F336D" stroke="white" stroke-width="1.5"/>
</svg>
