<svg width="20" height="20" viewBox="0 0 20 20" fill="none" xmlns="http://www.w3.org/2000/svg">
<path fill-rule="evenodd" clip-rule="evenodd" d="M7.52186 0.147057C7.50611 0.137429 7.49004 0.12821 7.47368 0.119415C7.25736 0.00286362 7.01533 -0.0259185 6.79035 0.022378C6.75589 0.0297742 6.72184 0.0389781 6.68834 0.0499512C6.53513 0.100134 6.3935 0.187321 6.27813 0.30784L0.292922 6.29304C0.00692445 6.57904 -0.0786313 7.00916 0.0761497 7.38283C0.230931 7.75651 0.595567 8.00015 1.00003 8.00015H6.00003V18.0002H4.00003C3.44774 18.0002 3.00003 18.4479 3.00003 19.0002C3.00003 19.5524 3.44774 20.0002 4.00003 20.0002H10C10.5523 20.0002 11 19.5524 11 19.0002C11 18.4479 10.5523 18.0002 10 18.0002H8.00003V8.00015H16.9817C16.9933 8.00035 17.0049 8.00035 17.0165 8.00015H19C19.5523 8.00015 20 7.55244 20 7.00015C20 6.44787 19.5523 6.00015 19 6.00015H17.277L7.52186 0.147057ZM6.00003 3.41436L3.41424 6.00015H6.00003V3.41436ZM8.00003 6.00015V2.76634L13.3897 6.00015H8.00003Z" fill="#E0BB7F"/>
<path fill-rule="evenodd" clip-rule="evenodd" d="M15 6C15.5523 6 16 6.44772 16 7V10.1716C16.234 10.2543 16.4581 10.3662 16.6667 10.5056C17.1601 10.8352 17.5446 11.3038 17.7716 11.852C17.9987 12.4001 18.0581 13.0033 17.9424 13.5853C17.8266 14.1672 17.5409 14.7018 17.1213 15.1213C16.7018 15.5409 16.1672 15.8266 15.5853 15.9424C15.0033 16.0581 14.4001 15.9987 13.8519 15.7716C13.3038 15.5446 12.8352 15.1601 12.5056 14.6667C12.1759 14.1734 12 13.5933 12 13C12 12.4477 12.4477 12 13 12C13.5523 12 14 12.4477 14 13C14 13.1978 14.0586 13.3911 14.1685 13.5556C14.2784 13.72 14.4346 13.8482 14.6173 13.9239C14.8 13.9996 15.0011 14.0194 15.1951 13.9808C15.3891 13.9422 15.5673 13.847 15.7071 13.7071C15.847 13.5673 15.9422 13.3891 15.9808 13.1951C16.0194 13.0011 15.9996 12.8 15.9239 12.6173C15.8482 12.4346 15.72 12.2784 15.5556 12.1685C15.3911 12.0586 15.1978 12 15 12C14.4477 12 14 11.5523 14 11V7C14 6.44772 14.4477 6 15 6Z" fill="#E0BB7F"/>
</svg>
