<svg width="20" height="20" viewBox="0 0 20 20" fill="none" xmlns="http://www.w3.org/2000/svg">
<path d="M18.8889 0H1.11111C0.816426 0 0.533811 0.117063 0.325437 0.325437C0.117063 0.533811 0 0.816426 0 1.11111V18.8889C0 19.1836 0.117063 19.4662 0.325437 19.6746C0.533811 19.8829 0.816426 20 1.11111 20H18.8889C19.1836 20 19.4662 19.8829 19.6746 19.6746C19.8829 19.4662 20 19.1836 20 18.8889V1.11111C20 0.816426 19.8829 0.533811 19.6746 0.325437C19.4662 0.117063 19.1836 0 18.8889 0ZM8.88889 17.7778H2.22222V11.1111H8.88889V17.7778ZM8.88889 8.88889H2.22222V2.22222H8.88889V8.88889ZM17.7778 17.7778H11.1111V11.1111H17.7778V17.7778ZM17.7778 8.88889H11.1111V2.22222H17.7778V8.88889Z" fill="#E0BB7F"/>
</svg>
