<svg width="20" height="16" viewBox="0 0 20 16" fill="none" xmlns="http://www.w3.org/2000/svg">
<path d="M9.99969 2.06C12.3209 2.06 14.4072 2.86125 15.8122 4.3025C16.9683 4.45285 18.0589 4.92495 18.9597 5.665C17.3834 2.3525 14.1184 0.5 9.99969 0.5C5.93719 0.5 2.64969 2.35 1.05469 5.6525C1.8806 4.97839 2.86584 4.52774 3.91594 4.34375C5.29469 2.84 7.46719 2.06 9.99969 2.06Z" fill="#1F336D"/>
<path d="M14.9998 15.5C13.6992 15.5015 12.4494 14.9946 11.5173 14.0875L11.5148 14.085C11.4071 14.0041 11.2915 13.9341 11.1698 13.8763C10.8035 13.7062 10.4037 13.6204 9.99981 13.625C9.4823 13.625 9.08856 13.7537 8.83106 13.8763C8.70893 13.934 8.59293 14.004 8.48481 14.085L8.48231 14.0875C7.89458 14.6581 7.17566 15.0755 6.38878 15.3031C5.6019 15.5307 4.77116 15.5615 3.96959 15.3928C3.16802 15.224 2.42018 14.861 1.79183 14.3355C1.16347 13.81 0.673855 13.1381 0.36602 12.379C0.0581843 11.6199 -0.0584382 10.7968 0.0264065 9.98211C0.111251 9.16738 0.394964 8.38597 0.8526 7.70659C1.31024 7.02722 1.92778 6.47068 2.65092 6.08592C3.37407 5.70115 4.18067 5.49995 4.99981 5.5H14.9998C16.3259 5.5 17.5977 6.02678 18.5353 6.96447C19.473 7.90215 19.9998 9.17392 19.9998 10.5C19.9998 11.8261 19.473 13.0979 18.5353 14.0355C17.5977 14.9732 16.3259 15.5 14.9998 15.5Z" fill="#1F336D"/>
</svg>
