<svg width="20" height="20" viewBox="0 0 20 20" fill="none" xmlns="http://www.w3.org/2000/svg">
<path d="M17.5 7.50065V5.83398C17.5 4.45898 16.375 3.33398 15 3.33398H11.6667C11.025 3.33398 10.4417 3.58398 10 3.98398C9.55833 3.58398 8.975 3.33398 8.33333 3.33398H5C3.625 3.33398 2.5 4.45898 2.5 5.83398V7.50065C1.125 7.50065 0 8.62565 0 10.0007V14.1673C0 15.5423 1.125 16.6673 2.5 16.6673V18.334H4.16667V16.6673H15.8333V18.334H17.5V16.6673C18.875 16.6673 20 15.5423 20 14.1673V10.0007C20 8.62565 18.875 7.50065 17.5 7.50065ZM11.6667 5.00065H15C15.4583 5.00065 15.8333 5.37565 15.8333 5.83398V8.15065C15.325 8.60898 15 9.26732 15 10.0007V11.6673H10.8333V5.83398C10.8333 5.37565 11.2083 5.00065 11.6667 5.00065ZM4.16667 5.83398C4.16667 5.37565 4.54167 5.00065 5 5.00065H8.33333C8.79167 5.00065 9.16667 5.37565 9.16667 5.83398V11.6673H5V10.0007C5 9.26732 4.675 8.60898 4.16667 8.15065V5.83398ZM18.3333 14.1673C18.3333 14.6257 17.9583 15.0007 17.5 15.0007H2.5C2.04167 15.0007 1.66667 14.6257 1.66667 14.1673V10.0007C1.66667 9.54232 2.04167 9.16732 2.5 9.16732C2.95833 9.16732 3.33333 9.54232 3.33333 10.0007V13.334H16.6667V10.0007C16.6667 9.54232 17.0417 9.16732 17.5 9.16732C17.9583 9.16732 18.3333 9.54232 18.3333 10.0007V14.1673Z" fill="#E0BB7F"/>
</svg>
