<svg width="20" height="20" viewBox="0 0 20 20" fill="none" xmlns="http://www.w3.org/2000/svg">
<g clip-path="url(#clip0_1045_120630)">
<path d="M4.54121 8.66381H5.17705C5.17705 8.66381 5.4157 8.66576 5.4157 8.93516V11.8793C5.4157 11.8793 5.4304 12.1964 5.1622 12.1964H4.51151C4.51151 12.1964 4.31816 12.1847 4.31816 11.9239V8.89091C4.31816 8.89091 4.31891 8.66396 4.54121 8.66396V8.66381ZM4.8598 7.93151C4.51316 7.93151 4.28216 7.68581 4.28936 7.38236C4.28216 7.06452 4.51316 6.82602 4.867 6.82602C5.22085 6.82602 5.44465 7.06452 5.45185 7.38236C5.45185 7.68581 5.2207 7.93151 4.85965 7.93151H4.8598ZM11.6692 12.1964H11.0776C10.7966 12.1964 10.853 11.7907 10.853 11.7907V10.2748C10.853 9.76195 10.687 9.4657 10.3331 9.4657C10.0804 9.4657 9.89993 9.6391 9.82763 9.84865C9.79883 9.92815 9.78428 10.0437 9.78428 10.1304V11.8498C9.78428 11.8498 9.78773 12.1964 9.48038 12.1964H8.99243C8.99243 12.1964 8.71554 12.1753 8.71554 11.8202V10.2169C8.71554 9.769 8.55669 9.46555 8.21004 9.46555C7.92849 9.46555 7.76229 9.6823 7.69734 9.8629C7.66119 9.9496 7.65399 10.0507 7.65399 10.1374V11.8202C7.65399 11.8202 7.69209 12.1964 7.40994 12.1964H6.93669C6.58525 12.1964 6.58525 11.8202 6.58525 11.8202V9.79075C6.58525 9.44635 6.56575 8.87666 6.56575 8.87666C6.56575 8.87666 6.55855 8.66381 6.78879 8.66381H7.24734C7.46394 8.66381 7.50324 8.87561 7.50324 8.87561L7.53129 9.14065H7.55289C7.70454 8.91671 8.01504 8.58431 8.62164 8.58431C9.07658 8.58431 9.43763 8.81546 9.58928 9.184H9.60368C9.73373 9.00341 9.89258 8.85896 10.0586 8.75786C10.2536 8.64236 10.4702 8.58446 10.7303 8.58446C11.4091 8.58446 11.9218 9.06131 11.9218 10.1161V11.8205C11.9218 12.1715 11.6692 12.1967 11.6692 12.1967V12.1964ZM14.7379 9.36445C14.2108 9.36445 14.0156 9.90625 14.0156 10.4264C14.0156 11.0332 14.2684 11.4884 14.7379 11.4884C15.1639 11.4884 15.4382 11.0621 15.4382 10.4264C15.4382 9.89905 15.236 9.36445 14.7379 9.36445ZM14.7089 12.2758C13.6763 12.2758 12.8821 11.5967 12.8821 10.4552C12.8821 9.31375 13.6331 8.58416 14.7667 8.58416C15.8499 8.58416 16.572 9.3283 16.572 10.3903C16.572 11.6834 15.655 12.2758 14.7091 12.2758H14.7089ZM10.1996 1.43474C5.54605 1.43474 1.77357 5.20887 1.77357 9.8647C1.77357 11.4671 2.22042 12.965 2.99621 14.2406C2.99621 14.2406 3.54761 15.6734 2.13207 16.7401C3.01841 17.039 4.89235 16.4894 4.9882 16.4894C6.42205 17.62 8.23209 18.2947 10.1996 18.2947C14.8531 18.2947 18.6255 14.5204 18.6255 9.8647C18.6255 5.20902 14.8531 1.43474 10.1996 1.43474ZM10.1996 19.6099C8.14974 19.6099 6.24685 18.9803 4.67351 17.9038C3.93146 18.2942 2.26242 18.3809 1.53432 18.2947C0.475927 18.1693 -0.634518 17.2922 0.434827 16.4392C2.09082 15.1184 1.64622 14.5952 1.64622 14.5952C0.851825 13.1786 0.398977 11.5447 0.398977 9.805C0.398977 4.38973 4.7869 0 10.1995 0C15.6121 0 20 4.38973 20 9.805C20 15.2201 15.6121 19.61 10.1995 19.61L10.1996 19.6099Z" fill="white"/>
</g>
<defs>
<clipPath id="clip0_1045_120630">
<rect width="20" height="19.6099" fill="white"/>
</clipPath>
</defs>
</svg>
