<svg width="40" height="40" viewBox="0 0 40 40" fill="none" xmlns="http://www.w3.org/2000/svg">
<circle cx="20" cy="20" r="20" fill="url(#paint0_linear_655_116293)"/>
<path d="M27.9552 16.7014C27.9168 15.8495 27.7792 15.2666 27.5839 14.7574C27.3791 14.2322 27.107 13.7838 26.6621 13.3419C26.2172 12.8999 25.7724 12.6213 25.2475 12.4195C24.7385 12.221 24.156 12.0865 23.3047 12.048C22.4501 12.0096 22.178 12 20.008 12C17.8348 12 17.5627 12.0096 16.7113 12.048C15.86 12.0865 15.2775 12.2242 14.7686 12.4195C14.2404 12.6245 13.7924 12.8967 13.3507 13.3419C12.909 13.787 12.6305 14.2322 12.4289 14.7574C12.2336 15.2666 12.096 15.8495 12.0576 16.7014C12.0192 17.5564 12.0096 17.8287 12.0096 20C12.0096 22.1745 12.0192 22.4468 12.0576 23.2986C12.096 24.1505 12.2336 24.7334 12.4289 25.2426C12.6337 25.7678 12.9058 26.2162 13.3507 26.6581C13.7924 27.1033 14.2404 27.3787 14.7654 27.5805C15.2743 27.779 15.8568 27.9135 16.7081 27.952C17.5627 27.9904 17.8348 28 20.0048 28C22.178 28 22.4501 27.9904 23.3015 27.952C24.1528 27.9135 24.7353 27.7758 25.2443 27.5805C25.7692 27.3755 26.2172 27.1033 26.6589 26.6581C27.1006 26.213 27.3791 25.7678 27.5807 25.2426C27.7792 24.7334 27.9136 24.1505 27.952 23.2986C27.9904 22.4436 28 22.1713 28 20C28 17.8287 27.9936 17.5532 27.9552 16.7014ZM26.5181 23.2346C26.4829 24.016 26.3517 24.442 26.2429 24.7206C26.0988 25.0921 25.9228 25.3611 25.6411 25.6429C25.3595 25.9247 25.0938 26.0945 24.7193 26.245C24.4377 26.3539 24.012 26.4852 23.2342 26.5204C22.3925 26.5588 22.1396 26.5685 20.0016 26.5685C17.8636 26.5685 17.6107 26.5588 16.769 26.5204C15.988 26.4852 15.5623 26.3539 15.2839 26.245C14.9126 26.1009 14.6437 25.9247 14.3621 25.6429C14.0804 25.3611 13.9108 25.0953 13.7604 24.7206C13.6515 24.4388 13.5203 24.0128 13.4851 23.2346C13.4467 22.3923 13.4371 22.1393 13.4371 20C13.4371 17.8607 13.4467 17.6077 13.4851 16.7654C13.5203 15.984 13.6515 15.558 13.7604 15.2794C13.9044 14.9079 14.0804 14.6389 14.3621 14.3571C14.6437 14.0753 14.9094 13.9055 15.2839 13.755C15.5655 13.6461 15.9912 13.5148 16.769 13.4796C17.6107 13.4412 17.8636 13.4315 20.0016 13.4315C22.1396 13.4315 22.3925 13.4412 23.2342 13.4796C24.0152 13.5148 24.4409 13.6461 24.7193 13.755C25.0906 13.8991 25.3595 14.0753 25.6411 14.3571C25.9228 14.6389 26.0924 14.9047 26.2429 15.2794C26.3517 15.5612 26.4829 15.9872 26.5181 16.7654C26.5565 17.6077 26.5661 17.8607 26.5661 20C26.5661 22.1393 26.5533 22.3923 26.5181 23.2346Z" fill="white"/>
<path d="M20.0016 15.8879C17.7292 15.8879 15.892 17.7294 15.892 20C15.892 22.2738 17.7324 24.1121 20.0016 24.1121C22.2709 24.1121 24.1113 22.2674 24.1113 20C24.1113 17.7262 22.2741 15.8879 20.0016 15.8879ZM20.0016 22.6677C18.5293 22.6677 17.3355 21.4732 17.3355 20C17.3355 18.5268 18.5293 17.3323 20.0016 17.3323C21.4739 17.3323 22.6678 18.5268 22.6678 20C22.6678 21.4732 21.4739 22.6677 20.0016 22.6677Z" fill="white"/>
<path d="M24.2713 16.6886C24.8016 16.6886 25.2315 16.2584 25.2315 15.7278C25.2315 15.1972 24.8016 14.767 24.2713 14.767C23.741 14.767 23.3111 15.1972 23.3111 15.7278C23.3111 16.2584 23.741 16.6886 24.2713 16.6886Z" fill="white"/>
<path d="M12 20C12 22.1745 12.0096 22.4468 12.048 23.2986C12.0864 24.1505 12.224 24.7334 12.4193 25.2426C12.6241 25.7678 12.8962 26.2162 13.3411 26.6581C13.7828 27.1001 14.2308 27.3787 14.7558 27.5805C15.2647 27.779 15.8472 27.9135 16.6985 27.952C17.5531 27.9904 17.8252 28 19.9952 28C22.1684 28 22.4405 27.9904 23.2919 27.952C24.1432 27.9135 24.7257 27.7758 25.2346 27.5805C25.7596 27.3755 26.2076 27.1033 26.6493 26.6581C27.091 26.2162 27.3695 25.7678 27.5711 25.2426C27.7696 24.7334 27.904 24.1505 27.9424 23.2986C27.9808 22.4436 27.9904 22.1713 27.9904 20C27.9904 17.8255 27.9808 17.5532 27.9424 16.7014C27.904 15.8495 27.7664 15.2666 27.5711 14.7574C27.3663 14.2322 27.0942 13.7838 26.6493 13.3419C26.2108 12.8967 25.7628 12.6213 25.2378 12.4195C24.7289 12.221 24.1464 12.0865 23.2951 12.048C22.4405 12.0096 22.1684 12 19.9984 12C17.8252 12 17.5531 12.0096 16.7017 12.048C15.8504 12.0865 15.2679 12.2242 14.759 12.4195C14.234 12.6245 13.786 12.8967 13.3443 13.3419C12.9026 13.787 12.6241 14.2322 12.4225 14.7574C12.224 15.2666 12.0864 15.8495 12.048 16.7014C12.0096 17.5532 12 17.8255 12 20ZM13.4435 20C13.4435 17.8639 13.4531 17.6077 13.4915 16.7654C13.5267 15.984 13.6579 15.558 13.7668 15.2794C13.9108 14.9079 14.0868 14.6389 14.3685 14.3571C14.6501 14.0753 14.9158 13.9055 15.2903 13.755C15.5719 13.6461 15.9976 13.5148 16.7754 13.4796C17.6171 13.4412 17.87 13.4315 20.008 13.4315C22.146 13.4315 22.3989 13.4412 23.2406 13.4796C24.0216 13.5148 24.4473 13.6461 24.7257 13.755C25.097 13.8991 25.3659 14.0753 25.6475 14.3571C25.9292 14.6389 26.0988 14.9047 26.2493 15.2794C26.3581 15.5612 26.4893 15.9872 26.5245 16.7654C26.5629 17.6077 26.5725 17.8607 26.5725 20C26.5725 22.1393 26.5629 22.3923 26.5245 23.2346C26.4893 24.016 26.3581 24.442 26.2493 24.7206C26.1052 25.0921 25.9292 25.3611 25.6475 25.6429C25.3659 25.9247 25.1002 26.0945 24.7257 26.245C24.4441 26.3539 24.0184 26.4852 23.2406 26.5204C22.3989 26.5588 22.146 26.5685 20.008 26.5685C17.87 26.5685 17.6171 26.5588 16.7754 26.5204C15.9944 26.4852 15.5687 26.3539 15.2903 26.245C14.919 26.1009 14.6501 25.9247 14.3685 25.6429C14.0868 25.3611 13.9172 25.0953 13.7668 24.7206C13.6579 24.4388 13.5267 24.0128 13.4915 23.2346C13.4499 22.3923 13.4435 22.1361 13.4435 20Z" fill="white"/>
<defs>
<linearGradient id="paint0_linear_655_116293" x1="5" y1="40" x2="40" y2="3" gradientUnits="userSpaceOnUse">
<stop stop-color="#FEF780"/>
<stop offset="0.307292" stop-color="#F7772E"/>
<stop offset="0.59375" stop-color="#D42F7F"/>
<stop offset="0.833333" stop-color="#9E35A5"/>
<stop offset="0.989583" stop-color="#AE3DAE"/>
</linearGradient>
</defs>
</svg>
