<svg width="20" height="20" viewBox="0 0 20 20" fill="none" xmlns="http://www.w3.org/2000/svg">
<path d="M10 0C8.02219 0 6.08879 0.58649 4.4443 1.6853C2.79981 2.78412 1.51809 4.3459 0.761209 6.17316C0.00433286 8.00043 -0.1937 10.0111 0.192152 11.9509C0.578004 13.8907 1.53041 15.6725 2.92894 17.0711C4.32746 18.4696 6.10929 19.422 8.0491 19.8078C9.98891 20.1937 11.9996 19.9957 13.8268 19.2388C15.6541 18.4819 17.2159 17.2002 18.3147 15.5557C19.4135 13.9112 20 11.9778 20 10C19.9975 7.34859 18.9432 4.80647 17.0684 2.93164C15.1935 1.05681 12.6514 0.00245161 10 0ZM17.6944 8.88889H14.7685C14.612 6.67203 13.8813 4.53406 12.6482 2.68518C13.9711 3.16719 15.1388 3.99846 16.0273 5.09074C16.9158 6.18302 17.4919 7.49552 17.6944 8.88889ZM7.46297 11.1111H12.537C12.3148 13.3981 11.4074 15.5278 10 17.0926C8.5926 15.5278 7.68519 13.3981 7.46297 11.1111ZM7.46297 8.88889C7.68519 6.60185 8.5926 4.47222 10 2.90741C11.4074 4.47222 12.3148 6.60185 12.537 8.88889H7.46297ZM7.35185 2.68518C6.11872 4.53406 5.38798 6.67203 5.23148 8.88889H2.30556C2.50811 7.49552 3.08422 6.18302 3.97271 5.09074C4.86121 3.99846 6.02892 3.16719 7.35185 2.68518ZM2.30556 11.1111H5.23148C5.38798 13.328 6.11872 15.4659 7.35185 17.3148C6.02784 16.8345 4.85909 16.0038 3.97034 14.9112C3.08158 13.8186 2.50619 12.5052 2.30556 11.1111ZM12.6482 17.3148C13.8813 15.4659 14.612 13.328 14.7685 11.1111H17.6944C17.4938 12.5052 16.9184 13.8186 16.0297 14.9112C15.1409 16.0038 13.9722 16.8345 12.6482 17.3148Z" fill="#1F336D"/>
</svg>
