<svg width="189" height="32" viewBox="0 0 189 32" fill="none" xmlns="http://www.w3.org/2000/svg">
<path d="M18.5766 0.193119C18.6096 0.0801852 18.7117 0 18.8292 0H20.1757C20.3121 0 20.4226 0.110671 20.4226 0.247191V28.6067C20.4226 28.7433 20.3121 28.8539 20.1757 28.8539H18.8741C18.7377 28.8539 18.6272 28.7433 18.6272 28.6067V5.89077C18.6272 5.62565 18.1969 5.50933 18.0408 5.72345C17.3388 6.68618 16.327 7.69368 15.7782 8.11551C15.7145 8.16445 15.676 8.23882 15.676 8.31919V28.6067C15.676 28.7433 15.5655 28.8539 15.4292 28.8539H15.0252C14.8889 28.8539 14.7783 28.7433 14.7783 28.6067V7.7009C14.7783 7.63357 14.8049 7.57042 14.8524 7.52271C16.626 5.73971 18.2564 1.29004 18.5766 0.193119Z" fill="white"/>
<path d="M25.82 11.6629C25.82 11.5388 25.9205 11.4382 26.0444 11.4382H27.391C27.5149 11.4382 27.6154 11.5388 27.6154 11.6629V28.6292C27.6154 28.7533 27.5149 28.8539 27.391 28.8539H26.0444C25.9205 28.8539 25.82 28.7533 25.82 28.6292V11.6629Z" fill="white"/>
<path d="M7.58554 23.4607C7.58554 23.3366 7.68601 23.236 7.80996 23.236H9.15651C9.28045 23.236 9.38093 23.3366 9.38093 23.4607V28.6292C9.38093 28.7533 9.28045 28.8539 9.15651 28.8539H7.80996C7.68601 28.8539 7.58554 28.7533 7.58554 28.6292V23.4607Z" fill="white"/>
<path d="M13.5227 21.7201C13.2577 21.9085 13.006 22.0824 12.7714 22.2406C12.284 22.5692 11.8738 22.8276 11.5742 23.0062C11.4793 23.0628 11.3825 23.1182 11.303 23.1625C11.2307 23.2029 11.1851 23.2789 11.1851 23.3618V28.6292C11.1851 28.7533 11.2856 28.8539 11.4095 28.8539H12.7561C12.88 28.8539 12.9805 28.7533 12.9805 28.6292V24.3747C12.9805 24.2976 13.02 24.2259 13.085 24.1844C13.2949 24.0504 13.526 23.8991 13.7741 23.7318L13.7821 23.7265C13.8438 23.6848 13.8806 23.6151 13.8806 23.5407V21.9038C13.8806 21.7202 13.6723 21.6137 13.5227 21.7201Z" fill="white"/>
<path d="M23.7977 11.4382H22.3933C22.2944 11.4382 22.2073 11.503 22.178 11.5976C21.9709 12.268 21.7142 12.9963 21.3475 13.6822C21.3298 13.7153 21.3203 13.7523 21.3203 13.7899V16.4716C21.3203 16.6317 21.5207 16.7004 21.6164 16.5722C21.7613 16.3781 21.9023 16.1817 22.0388 15.9832C22.0956 15.9006 22.2268 15.9405 22.2268 16.0408V28.6292C22.2268 28.7533 22.3272 28.8539 22.4512 28.8539H23.7977C23.9217 28.8539 24.0222 28.7533 24.0222 28.6292V11.6629C24.0222 11.5388 23.9217 11.4382 23.7977 11.4382Z" fill="white"/>
<path d="M2.24424 30.0899C2.24424 29.9037 2.39516 29.7528 2.58132 29.7528H32.6084C32.7946 29.7528 32.9455 29.9037 32.9455 30.0899C32.9455 30.276 32.7946 30.427 32.6084 30.427H2.58132C2.39516 30.427 2.24424 30.276 2.24424 30.0899Z" fill="white"/>
<path d="M0 31.6629C0 31.4768 0.150915 31.3258 0.337079 31.3258H34.8526C35.0388 31.3258 35.1897 31.4768 35.1897 31.6629C35.1897 31.8491 35.0388 32 34.8526 32H0.337078C0.150915 32 0 31.8491 0 31.6629Z" fill="white"/>
<path d="M47.3417 24.4428C47.9078 24.4428 48.3642 24.5065 48.7109 24.6339C49.0577 24.7542 49.3089 24.9665 49.4646 25.2708C49.6273 25.5751 49.7087 26.0032 49.7087 26.5551C49.7087 26.9514 49.6627 27.284 49.5707 27.5529C49.4787 27.8147 49.3337 28.0199 49.1355 28.1685C48.9445 28.31 48.6862 28.402 48.3607 28.4445V28.4976C48.481 28.5259 48.5977 28.586 48.7109 28.678C48.8312 28.7629 48.9409 28.8797 49.04 29.0283C49.1391 29.1698 49.2134 29.3432 49.2629 29.5484L49.9741 31.8624H48.9763L48.3288 29.5696C48.2368 29.2937 48.113 29.0991 47.9573 28.9858C47.8016 28.8655 47.6 28.8054 47.3523 28.8054C46.9206 28.8054 46.5456 28.8054 46.2272 28.8054C45.9087 28.7983 45.6434 28.7912 45.4311 28.7842C45.2188 28.7771 45.0489 28.7735 44.9216 28.7735L44.9534 27.9987H47.3204C47.6813 27.9916 47.9644 27.9492 48.1696 27.8713C48.3819 27.7935 48.534 27.6555 48.626 27.4574C48.718 27.2521 48.764 26.9691 48.764 26.6082C48.764 26.2473 48.718 25.9713 48.626 25.7803C48.534 25.5821 48.3819 25.4441 48.1696 25.3663C47.9644 25.2885 47.6813 25.2495 47.3204 25.2495C46.7402 25.2495 46.2378 25.2531 45.8132 25.2602C45.3957 25.2672 45.1126 25.2708 44.964 25.2708L44.8154 24.5384C45.0843 24.5101 45.3355 24.4888 45.5691 24.4747C45.8026 24.4605 46.0573 24.4535 46.3333 24.4535C46.6163 24.4464 46.9525 24.4428 47.3417 24.4428ZM45.7389 24.5384V31.8624H44.8154V24.5384H45.7389Z" fill="white"/>
<path d="M52.7249 24.5278C53.0788 24.5278 53.4326 24.5278 53.7864 24.5278C54.1473 24.5278 54.5011 24.5348 54.8478 24.549C55.2016 24.5561 55.5413 24.5702 55.8668 24.5915L55.8244 25.3238H52.8842C52.6648 25.3238 52.502 25.3805 52.3959 25.4937C52.2968 25.5998 52.2473 25.7767 52.2473 26.0244V30.3763C52.2473 30.624 52.2968 30.8044 52.3959 30.9177C52.502 31.0309 52.6648 31.0875 52.8842 31.0875H55.8244L55.8668 31.8093C55.5413 31.8305 55.2016 31.8447 54.8478 31.8517C54.5011 31.8588 54.1473 31.8624 53.7864 31.8624C53.4326 31.8694 53.0788 31.873 52.7249 31.873C52.2933 31.873 51.9501 31.7597 51.6953 31.5333C51.4477 31.2998 51.3203 30.9884 51.3132 30.5992V25.8015C51.3203 25.4052 51.4477 25.0939 51.6953 24.8674C51.9501 24.641 52.2933 24.5278 52.7249 24.5278ZM51.5043 27.6166H55.4104V28.3702H51.5043V27.6166Z" fill="white"/>
<path d="M60.1823 24.5384C60.2673 24.5384 60.3416 24.5631 60.4052 24.6127C60.4689 24.6551 60.5114 24.7153 60.5326 24.7931L62.889 31.8624H61.9231L60.0231 25.8546C59.9948 25.7555 59.963 25.6564 59.9276 25.5574C59.8993 25.4512 59.871 25.3522 59.8427 25.2602H59.5455C59.5172 25.3522 59.4889 25.4512 59.4606 25.5574C59.4323 25.6564 59.4004 25.7555 59.365 25.8546L57.465 31.8624H56.4991L58.8555 24.7931C58.8768 24.7153 58.9192 24.6551 58.9829 24.6127C59.0466 24.5631 59.1209 24.5384 59.2058 24.5384H60.1823ZM61.541 28.7629V29.5696H57.8259V28.7629H61.541Z" fill="white"/>
<path d="M64.8216 24.5384V30.3763C64.8216 30.6169 64.8782 30.7938 64.9914 30.9071C65.1117 31.0203 65.2922 31.0769 65.5328 31.0769H68.1758L68.2182 31.7987C67.7583 31.834 67.2877 31.8553 66.8065 31.8624C66.3324 31.8694 65.8583 31.873 65.3842 31.873C64.8464 31.873 64.4643 31.7421 64.2378 31.4802C64.0114 31.2184 63.8981 30.8894 63.8981 30.4931V24.5384H64.8216Z" fill="white"/>
<path d="M72.8344 24.5278C73.1882 24.5278 73.542 24.5278 73.8958 24.5278C74.2567 24.5278 74.6105 24.5348 74.9573 24.549C75.3111 24.5561 75.6507 24.5702 75.9762 24.5915L75.9338 25.3238H72.9936C72.7742 25.3238 72.6115 25.3805 72.5053 25.4937C72.4062 25.5998 72.3567 25.7767 72.3567 26.0244V30.3763C72.3567 30.624 72.4062 30.8044 72.5053 30.9177C72.6115 31.0309 72.7742 31.0875 72.9936 31.0875H75.9338L75.9762 31.8093C75.6507 31.8305 75.3111 31.8447 74.9573 31.8517C74.6105 31.8588 74.2567 31.8624 73.8958 31.8624C73.542 31.8694 73.1882 31.873 72.8344 31.873C72.4027 31.873 72.0595 31.7597 71.8048 31.5333C71.5571 31.2998 71.4297 30.9884 71.4226 30.5992V25.8015C71.4297 25.4052 71.5571 25.0939 71.8048 24.8674C72.0595 24.641 72.4027 24.5278 72.8344 24.5278ZM71.6137 27.6166H75.5198V28.3702H71.6137V27.6166Z" fill="white"/>
<path d="M79.4638 24.411C79.8106 24.4181 80.1679 24.4358 80.5359 24.4641C80.9039 24.4924 81.2718 24.5455 81.6398 24.6233L81.5761 25.3026C81.2718 25.2885 80.9357 25.2779 80.5677 25.2708C80.1998 25.2566 79.846 25.2495 79.5063 25.2495C79.2445 25.2495 79.018 25.2602 78.827 25.2814C78.643 25.2955 78.4908 25.338 78.3705 25.4088C78.2503 25.4725 78.1618 25.5821 78.1052 25.7378C78.0557 25.8864 78.0309 26.0952 78.0309 26.3641C78.0309 26.7674 78.1017 27.0505 78.2432 27.2132C78.3918 27.3689 78.6288 27.4857 78.9543 27.5635L80.4404 27.935C81.0065 28.0695 81.3921 28.3065 81.5973 28.6462C81.8096 28.9788 81.9158 29.4281 81.9158 29.9942C81.9158 30.4188 81.8662 30.762 81.7672 31.0238C81.6752 31.2856 81.5301 31.4873 81.332 31.6288C81.1338 31.7633 80.8791 31.8553 80.5677 31.9048C80.2564 31.9614 79.8884 31.9897 79.4638 31.9897C79.2232 31.9897 78.9084 31.9791 78.5192 31.9579C78.137 31.9367 77.6948 31.88 77.1923 31.7881L77.256 31.0981C77.6735 31.1123 78.0097 31.1264 78.2644 31.1406C78.5192 31.1476 78.7385 31.1512 78.9225 31.1512C79.1065 31.1512 79.2975 31.1512 79.4957 31.1512C79.8707 31.1512 80.1644 31.1229 80.3767 31.0663C80.596 31.0097 80.7482 30.8964 80.8331 30.7266C80.9251 30.5568 80.9711 30.3056 80.9711 29.973C80.9711 29.6899 80.9392 29.4706 80.8756 29.3149C80.8119 29.1592 80.7093 29.0424 80.5677 28.9646C80.4333 28.8797 80.2599 28.8125 80.0476 28.7629L78.5298 28.3808C77.999 28.2464 77.624 28.0128 77.4046 27.6803C77.1923 27.3477 77.0862 26.9019 77.0862 26.3428C77.0862 25.9183 77.1322 25.5786 77.2242 25.3238C77.3233 25.062 77.4683 24.8674 77.6594 24.7401C77.8575 24.6056 78.1052 24.5171 78.4024 24.4747C78.6996 24.4322 79.0534 24.411 79.4638 24.411Z" fill="white"/>
<path d="M85.9975 24.5384V31.8624H85.0635V24.5384H85.9975ZM88.3646 24.5384V25.3663H82.7071V24.5384H88.3646Z" fill="white"/>
<path d="M91.7873 24.5384C91.8722 24.5384 91.9465 24.5631 92.0102 24.6127C92.0739 24.6551 92.1164 24.7153 92.1376 24.7931L94.494 31.8624H93.5281L91.6281 25.8546C91.5998 25.7555 91.5679 25.6564 91.5326 25.5574C91.5043 25.4512 91.4759 25.3522 91.4476 25.2602H91.1504C91.1221 25.3522 91.0938 25.4512 91.0655 25.5574C91.0372 25.6564 91.0054 25.7555 90.97 25.8546L89.07 31.8624H88.1041L90.4605 24.7931C90.4817 24.7153 90.5242 24.6551 90.5879 24.6127C90.6516 24.5631 90.7259 24.5384 90.8108 24.5384H91.7873ZM93.146 28.7629V29.5696H89.4309V28.7629H93.146Z" fill="white"/>
<path d="M97.5242 24.5384V31.8624H96.5901V24.5384H97.5242ZM99.8912 24.5384V25.3663H94.2337V24.5384H99.8912Z" fill="white"/>
<path d="M102.418 24.5278C102.772 24.5278 103.126 24.5278 103.479 24.5278C103.84 24.5278 104.194 24.5348 104.541 24.549C104.895 24.5561 105.234 24.5702 105.56 24.5915L105.517 25.3238H102.577C102.358 25.3238 102.195 25.3805 102.089 25.4937C101.99 25.5998 101.94 25.7767 101.94 26.0244V30.3763C101.94 30.624 101.99 30.8044 102.089 30.9177C102.195 31.0309 102.358 31.0875 102.577 31.0875H105.517L105.56 31.8093C105.234 31.8305 104.895 31.8447 104.541 31.8517C104.194 31.8588 103.84 31.8624 103.479 31.8624C103.126 31.8694 102.772 31.873 102.418 31.873C101.986 31.873 101.643 31.7597 101.388 31.5333C101.141 31.2998 101.013 30.9884 101.006 30.5992V25.8015C101.013 25.4052 101.141 25.0939 101.388 24.8674C101.643 24.641 101.986 24.5278 102.418 24.5278ZM101.197 27.6166H105.103V28.3702H101.197V27.6166Z" fill="white"/>
<path d="M112.143 24.4322C112.37 24.4322 112.628 24.4393 112.918 24.4535C113.208 24.4605 113.513 24.4888 113.831 24.5384L113.725 25.2283C113.654 25.2212 113.555 25.2177 113.428 25.2177C113.3 25.2106 113.159 25.2071 113.003 25.2071C112.847 25.2 112.692 25.1965 112.536 25.1965C112.38 25.1965 112.239 25.1965 112.111 25.1965C111.666 25.1965 111.312 25.2283 111.05 25.292C110.788 25.3486 110.601 25.4654 110.487 25.6423C110.374 25.8192 110.318 26.0916 110.318 26.4596C110.318 26.7922 110.36 27.0505 110.445 27.2345C110.537 27.4114 110.686 27.5352 110.891 27.606C111.103 27.6767 111.386 27.7121 111.74 27.7121H115.911L115.901 28.4233H111.697C111.315 28.4233 111.008 28.4657 110.774 28.5506C110.548 28.6356 110.385 28.7806 110.286 28.9858C110.187 29.191 110.137 29.4812 110.137 29.8562C110.137 30.1888 110.18 30.4506 110.265 30.6417C110.349 30.8328 110.491 30.9672 110.689 31.045C110.894 31.1229 111.17 31.1618 111.517 31.1618C112.041 31.1547 112.486 31.0733 112.854 30.9177C113.222 30.762 113.548 30.5214 113.831 30.1959L113.98 30.7691C113.753 31.0663 113.513 31.3033 113.258 31.4802C113.003 31.6571 112.716 31.7845 112.398 31.8624C112.087 31.9331 111.722 31.9685 111.305 31.9685C110.795 31.9685 110.381 31.9084 110.063 31.7881C109.751 31.6607 109.521 31.4555 109.373 31.1724C109.231 30.8894 109.161 30.5002 109.161 30.0048C109.161 29.4458 109.263 29 109.468 28.6674C109.681 28.3277 110.056 28.1331 110.594 28.0836V28.0411C110.148 27.9987 109.833 27.8359 109.649 27.5529C109.465 27.2628 109.373 26.8559 109.373 26.3322C109.373 25.9076 109.426 25.568 109.532 25.3132C109.638 25.0585 109.805 24.871 110.031 24.7507C110.257 24.6233 110.544 24.5384 110.891 24.4959C111.237 24.4535 111.655 24.4322 112.143 24.4322ZM114.574 26.3535V30.4719C114.574 30.7195 114.627 30.8964 114.733 31.0026C114.839 31.1087 115.013 31.1618 115.253 31.1618H116.039L116.145 31.8199C116.039 31.8482 115.915 31.873 115.773 31.8942C115.632 31.9154 115.494 31.9296 115.359 31.9367C115.225 31.9508 115.112 31.9579 115.02 31.9579C114.595 31.9579 114.273 31.8517 114.054 31.6395C113.835 31.4272 113.725 31.13 113.725 30.7478V28.0199L113.82 26.3535H114.574Z" fill="white"/>
<path d="M122.536 24.411C122.847 24.411 123.113 24.4181 123.332 24.4322C123.559 24.4464 123.764 24.4712 123.948 24.5065C124.139 24.5348 124.333 24.5738 124.532 24.6233L124.436 25.3345C124.224 25.3132 124.026 25.2955 123.842 25.2814C123.665 25.2672 123.474 25.2566 123.268 25.2495C123.063 25.2425 122.819 25.2389 122.536 25.2389C122.062 25.2389 121.687 25.3309 121.411 25.5149C121.135 25.6989 120.937 26.0067 120.817 26.4384C120.703 26.87 120.647 27.4574 120.647 28.2004C120.647 28.9434 120.703 29.5307 120.817 29.9624C120.937 30.394 121.135 30.7018 121.411 30.8858C121.687 31.0698 122.062 31.1618 122.536 31.1618C122.989 31.1618 123.368 31.1547 123.672 31.1406C123.983 31.1193 124.287 31.0875 124.585 31.045L124.68 31.7456C124.376 31.8305 124.061 31.8907 123.736 31.926C123.417 31.9685 123.017 31.9897 122.536 31.9897C121.836 31.9897 121.273 31.8694 120.848 31.6288C120.431 31.3812 120.127 30.9814 119.936 30.4294C119.752 29.8775 119.66 29.1344 119.66 28.2004C119.66 27.2663 119.752 26.5233 119.936 25.9713C120.127 25.4194 120.431 25.0231 120.848 24.7825C121.273 24.5348 121.836 24.411 122.536 24.411Z" fill="white"/>
<path d="M128.497 24.4004C129.028 24.4004 129.477 24.4641 129.845 24.5915C130.22 24.7188 130.517 24.9311 130.736 25.2283C130.963 25.5184 131.126 25.9076 131.225 26.3959C131.331 26.8842 131.384 27.4857 131.384 28.2004C131.384 28.9151 131.331 29.5166 131.225 30.0048C131.126 30.4931 130.963 30.8858 130.736 31.183C130.517 31.4732 130.22 31.6819 129.845 31.8093C129.477 31.9367 129.028 32.0003 128.497 32.0003C127.966 32.0003 127.513 31.9367 127.138 31.8093C126.77 31.6819 126.473 31.4732 126.247 31.183C126.02 30.8858 125.854 30.4931 125.748 30.0048C125.649 29.5166 125.599 28.9151 125.599 28.2004C125.599 27.4857 125.649 26.8842 125.748 26.3959C125.854 25.9076 126.02 25.5184 126.247 25.2283C126.473 24.9311 126.77 24.7188 127.138 24.5915C127.513 24.4641 127.966 24.4004 128.497 24.4004ZM128.497 25.2389C128.016 25.2389 127.634 25.3309 127.35 25.5149C127.074 25.6989 126.876 26.0067 126.756 26.4384C126.643 26.8629 126.586 27.4503 126.586 28.2004C126.586 28.9434 126.643 29.5307 126.756 29.9624C126.876 30.394 127.074 30.7018 127.35 30.8858C127.634 31.0698 128.016 31.1618 128.497 31.1618C128.978 31.1618 129.357 31.0698 129.633 30.8858C129.916 30.7018 130.114 30.394 130.227 29.9624C130.347 29.5307 130.407 28.9434 130.407 28.2004C130.407 27.4503 130.347 26.8629 130.227 26.4384C130.114 26.0067 129.916 25.6989 129.633 25.5149C129.357 25.3309 128.978 25.2389 128.497 25.2389Z" fill="white"/>
<path d="M138.601 24.5384V31.4908C138.601 31.7385 138.481 31.8624 138.241 31.8624H137.328C137.222 31.8624 137.137 31.8376 137.073 31.7881C137.009 31.7385 136.956 31.6642 136.914 31.5651L134.441 26.3747C134.377 26.2332 134.303 26.0739 134.218 25.897C134.133 25.7201 134.069 25.5574 134.027 25.4088H133.857C133.871 25.5644 133.882 25.7237 133.889 25.8864C133.896 26.0492 133.899 26.2119 133.899 26.3747V31.8624H132.965V24.9099C132.965 24.6622 133.089 24.5384 133.337 24.5384H134.218C134.324 24.5384 134.409 24.5631 134.472 24.6127C134.536 24.6622 134.589 24.7365 134.632 24.8356L137.031 29.8987C137.108 30.0473 137.19 30.2171 137.275 30.4082C137.367 30.5922 137.452 30.7761 137.529 30.9601H137.71C137.703 30.7691 137.696 30.5815 137.689 30.3976C137.682 30.2136 137.678 30.0296 137.678 29.8456V24.5384H138.601Z" fill="white"/>
<path d="M142.487 24.411C142.834 24.4181 143.191 24.4358 143.559 24.4641C143.927 24.4924 144.295 24.5455 144.663 24.6233L144.599 25.3026C144.295 25.2885 143.959 25.2779 143.591 25.2708C143.223 25.2566 142.869 25.2495 142.53 25.2495C142.268 25.2495 142.041 25.2602 141.85 25.2814C141.666 25.2955 141.514 25.338 141.394 25.4088C141.274 25.4725 141.185 25.5821 141.129 25.7378C141.079 25.8864 141.054 26.0952 141.054 26.3641C141.054 26.7674 141.125 27.0505 141.267 27.2132C141.415 27.3689 141.652 27.4857 141.978 27.5635L143.464 27.935C144.03 28.0695 144.415 28.3065 144.621 28.6462C144.833 28.9788 144.939 29.4281 144.939 29.9942C144.939 30.4188 144.89 30.762 144.791 31.0238C144.699 31.2856 144.553 31.4873 144.355 31.6288C144.157 31.7633 143.902 31.8553 143.591 31.9048C143.28 31.9614 142.912 31.9897 142.487 31.9897C142.247 31.9897 141.932 31.9791 141.542 31.9579C141.16 31.9367 140.718 31.88 140.216 31.7881L140.279 31.0981C140.697 31.1123 141.033 31.1264 141.288 31.1406C141.542 31.1476 141.762 31.1512 141.946 31.1512C142.13 31.1512 142.321 31.1512 142.519 31.1512C142.894 31.1512 143.188 31.1229 143.4 31.0663C143.619 31.0097 143.772 30.8964 143.856 30.7266C143.948 30.5568 143.994 30.3056 143.994 29.973C143.994 29.6899 143.963 29.4706 143.899 29.3149C143.835 29.1592 143.733 29.0424 143.591 28.9646C143.457 28.8797 143.283 28.8125 143.071 28.7629L141.553 28.3808C141.022 28.2464 140.647 28.0128 140.428 27.6803C140.216 27.3477 140.11 26.9019 140.11 26.3428C140.11 25.9183 140.156 25.5786 140.248 25.3238C140.347 25.062 140.492 24.8674 140.683 24.7401C140.881 24.6056 141.129 24.5171 141.426 24.4747C141.723 24.4322 142.077 24.411 142.487 24.411Z" fill="white"/>
<path d="M151.674 24.5384V29.0601C151.674 29.7678 151.59 30.3374 151.42 30.7691C151.25 31.2007 150.974 31.5156 150.592 31.7138C150.21 31.9048 149.697 32.0003 149.053 32.0003C148.395 32.0003 147.867 31.9048 147.471 31.7138C147.075 31.5156 146.788 31.2007 146.611 30.7691C146.434 30.3374 146.346 29.7678 146.346 29.0601V24.5384H147.28V29.0601C147.28 29.5838 147.333 30.0013 147.439 30.3126C147.553 30.6169 147.737 30.8363 147.991 30.9707C148.246 31.0981 148.586 31.1618 149.01 31.1618C149.435 31.1618 149.771 31.0981 150.019 30.9707C150.273 30.8363 150.457 30.6169 150.571 30.3126C150.684 30.0013 150.74 29.5838 150.74 29.0601V24.5384H151.674Z" fill="white"/>
<path d="M154.371 24.5384V30.3763C154.371 30.6169 154.427 30.7938 154.541 30.9071C154.661 31.0203 154.841 31.0769 155.082 31.0769H157.725L157.767 31.7987C157.307 31.834 156.837 31.8553 156.356 31.8624C155.882 31.8694 155.407 31.873 154.933 31.873C154.396 31.873 154.013 31.7421 153.787 31.4802C153.56 31.2184 153.447 30.8894 153.447 30.4931V24.5384H154.371Z" fill="white"/>
<path d="M160.454 24.5384V31.8624H159.52V24.5384H160.454ZM162.821 24.5384V25.3663H157.164V24.5384H162.821Z" fill="white"/>
<path d="M166.244 24.5384C166.329 24.5384 166.403 24.5631 166.467 24.6127C166.531 24.6551 166.573 24.7153 166.594 24.7931L168.951 31.8624H167.985L166.085 25.8546C166.056 25.7555 166.025 25.6564 165.989 25.5574C165.961 25.4512 165.933 25.3522 165.904 25.2602H165.607C165.579 25.3522 165.551 25.4512 165.522 25.5574C165.494 25.6564 165.462 25.7555 165.427 25.8546L163.527 31.8624H162.561L164.917 24.7931C164.938 24.7153 164.981 24.6551 165.045 24.6127C165.108 24.5631 165.183 24.5384 165.267 24.5384H166.244ZM167.603 28.7629V29.5696H163.888V28.7629H167.603Z" fill="white"/>
<path d="M175.617 24.5384V31.4908C175.617 31.7385 175.497 31.8624 175.256 31.8624H174.344C174.237 31.8624 174.153 31.8376 174.089 31.7881C174.025 31.7385 173.972 31.6642 173.93 31.5651L171.456 26.3747C171.393 26.2332 171.318 26.0739 171.234 25.897C171.149 25.7201 171.085 25.5574 171.042 25.4088H170.873C170.887 25.5644 170.897 25.7237 170.904 25.8864C170.912 26.0492 170.915 26.2119 170.915 26.3747V31.8624H169.981V24.9099C169.981 24.6622 170.105 24.5384 170.353 24.5384H171.234C171.34 24.5384 171.425 24.5631 171.488 24.6127C171.552 24.6622 171.605 24.7365 171.647 24.8356L174.046 29.8987C174.124 30.0473 174.206 30.2171 174.29 30.4082C174.382 30.5922 174.467 30.7761 174.545 30.9601H174.726C174.719 30.7691 174.712 30.5815 174.704 30.3976C174.697 30.2136 174.694 30.0296 174.694 29.8456V24.5384H175.617Z" fill="white"/>
<path d="M180.066 24.411C180.377 24.411 180.642 24.4181 180.862 24.4322C181.088 24.4464 181.293 24.4712 181.477 24.5065C181.668 24.5348 181.863 24.5738 182.061 24.6233L181.966 25.3345C181.753 25.3132 181.555 25.2955 181.371 25.2814C181.194 25.2672 181.003 25.2566 180.798 25.2495C180.593 25.2425 180.349 25.2389 180.066 25.2389C179.591 25.2389 179.216 25.3309 178.94 25.5149C178.664 25.6989 178.466 26.0067 178.346 26.4384C178.233 26.87 178.176 27.4574 178.176 28.2004C178.176 28.9434 178.233 29.5307 178.346 29.9624C178.466 30.394 178.664 30.7018 178.94 30.8858C179.216 31.0698 179.591 31.1618 180.066 31.1618C180.518 31.1618 180.897 31.1547 181.201 31.1406C181.513 31.1193 181.817 31.0875 182.114 31.045L182.21 31.7456C181.905 31.8305 181.591 31.8907 181.265 31.926C180.947 31.9685 180.547 31.9897 180.066 31.9897C179.365 31.9897 178.802 31.8694 178.378 31.6288C177.96 31.3812 177.656 30.9814 177.465 30.4294C177.281 29.8775 177.189 29.1344 177.189 28.2004C177.189 27.2663 177.281 26.5233 177.465 25.9713C177.656 25.4194 177.96 25.0231 178.378 24.7825C178.802 24.5348 179.365 24.411 180.066 24.411Z" fill="white"/>
<path d="M188.507 24.5384L186.034 29.3786H185.196L182.712 24.5384H183.71L185.249 27.6272C185.312 27.7616 185.369 27.8996 185.419 28.0411C185.475 28.1827 185.528 28.3207 185.578 28.4551H185.652C185.702 28.3207 185.755 28.1827 185.811 28.0411C185.868 27.8996 185.925 27.7652 185.981 27.6378L187.52 24.5384H188.507ZM186.077 28.7205V31.8624H185.143V28.7205H186.077Z" fill="white"/>
<path d="M59.7841 0.309291L54.8497 7.47456C54.6487 7.78385 54.4294 8.05019 54.1918 8.27357C53.9542 8.49694 53.7166 8.68596 53.479 8.8406V8.91792C53.7349 9.05539 54.009 9.26158 54.3014 9.53651C54.5938 9.81144 54.8314 10.1035 55.0142 10.4128L60.113 18.0936H55.4254L49.5864 8.78905L55.2609 0.309291H59.7841ZM48.9559 0.309291V5.33529C48.9559 5.91951 48.9102 6.50373 48.8188 7.08795C48.7274 7.65498 48.5812 8.21343 48.3802 8.76328C48.5264 9.29595 48.6543 9.8458 48.764 10.4128C48.8919 10.9627 48.9559 11.4782 48.9559 11.9593V18.0936H44.7891V0.309291H48.9559ZM51.0941 7.47456V10.2066H47.6949V7.47456H51.0941Z" fill="white"/>
<path d="M70.579 0.309291V18.0936H66.3848V0.309291H70.579ZM76.281 0.309291V3.40221H60.7103V0.309291H76.281Z" fill="white"/>
<path d="M94.0601 0.309291L88.9064 17.0111C88.8151 17.3204 88.6323 17.5781 88.3582 17.7843C88.1023 17.9905 87.7916 18.0936 87.4261 18.0936H83.5883C83.2045 18.0936 82.8756 17.9905 82.6014 17.7843C82.3456 17.5781 82.1811 17.3204 82.108 17.0111L76.9269 0.309291H81.2582L84.7122 13.1449C84.7853 13.4714 84.8584 13.8065 84.9315 14.1501C85.0229 14.4766 85.096 14.8031 85.1508 15.1295H85.8636C85.9184 14.8031 85.9824 14.468 86.0555 14.1243C86.1469 13.7807 86.2382 13.4456 86.3296 13.1191L89.7562 0.309291H94.0601Z" fill="white"/>
<path d="M104.598 0.309291V18.0936H102.816V0.309291H104.598Z" fill="white"/>
<path d="M123.759 0.309291V17.3719C123.759 17.853 123.512 18.0936 123.019 18.0936H121.1C120.88 18.0936 120.698 18.0506 120.551 17.9647C120.424 17.8616 120.314 17.7156 120.223 17.5266L112.985 4.0208C112.821 3.69432 112.638 3.34207 112.437 2.96405C112.236 2.56884 112.072 2.208 111.944 1.88153H111.423C111.441 2.22519 111.45 2.57744 111.45 2.93828C111.469 3.29912 111.478 3.65996 111.478 4.0208V18.0936H109.696V1.03097C109.696 0.549852 109.952 0.309291 110.463 0.309291H112.3C112.519 0.309291 112.693 0.36084 112.821 0.463938C112.967 0.549853 113.086 0.687316 113.177 0.876327L120.195 14.0728C120.396 14.4336 120.606 14.8203 120.826 15.2326C121.045 15.645 121.255 16.0574 121.456 16.4698H122.032C122.032 16.0402 122.023 15.6107 122.004 15.1811C121.986 14.7515 121.977 14.3305 121.977 13.9181V0.309291H123.759Z" fill="white"/>
<path d="M142.296 0.309291L136.293 17.6039C136.238 17.7413 136.146 17.8616 136.018 17.9647C135.891 18.0506 135.744 18.0936 135.58 18.0936H133.579C133.414 18.0936 133.259 18.0506 133.113 17.9647C132.985 17.8616 132.903 17.7413 132.866 17.6039L126.863 0.309291H128.727L133.606 14.846C133.716 15.1725 133.816 15.4904 133.908 15.7997C134.017 16.109 134.118 16.4269 134.209 16.7533H134.949C135.059 16.4269 135.16 16.109 135.251 15.7997C135.342 15.4732 135.452 15.1467 135.58 14.8203L140.405 0.309291H142.296Z" fill="white"/>
<path d="M148.561 0.283517C149.457 0.283517 150.361 0.283517 151.275 0.283517C152.189 0.283517 153.093 0.3007 153.989 0.335067C154.903 0.35225 155.789 0.386615 156.648 0.438163L156.566 1.75266H148.863C148.26 1.75266 147.794 1.9073 147.465 2.21659C147.154 2.52589 146.999 2.98123 146.999 3.58263V14.8203C146.999 15.4217 147.154 15.8856 147.465 16.2121C147.794 16.5214 148.26 16.676 148.863 16.676H156.566L156.648 17.9647C155.789 18.0163 154.903 18.0506 153.989 18.0678C153.093 18.085 152.189 18.0936 151.275 18.0936C150.361 18.1108 149.457 18.1194 148.561 18.1194C147.556 18.1194 146.743 17.853 146.121 17.3204C145.518 16.7705 145.217 16.0574 145.217 15.1811V3.22179C145.217 2.32828 145.518 1.61519 146.121 1.08252C146.743 0.549852 147.556 0.283517 148.561 0.283517ZM145.683 7.96427H155.469V9.33031H145.683V7.96427Z" fill="white"/>
<path d="M165.684 0C166.58 0.0171827 167.485 0.0601399 168.398 0.128872C169.312 0.197603 170.226 0.309292 171.14 0.463938L171.003 1.70111C170.198 1.64956 169.34 1.6066 168.426 1.57224C167.512 1.53787 166.626 1.52069 165.767 1.52069C165.017 1.52069 164.369 1.54646 163.82 1.59801C163.29 1.64956 162.852 1.76984 162.505 1.95885C162.157 2.14786 161.901 2.45715 161.737 2.88673C161.591 3.3163 161.518 3.9177 161.518 4.69093C161.518 5.79064 161.719 6.57246 162.121 7.0364C162.523 7.48315 163.19 7.79245 164.122 7.96427L168.097 8.7375C169.522 9.01243 170.509 9.53651 171.057 10.3097C171.624 11.083 171.907 12.1827 171.907 13.6089C171.907 14.657 171.779 15.499 171.523 16.1347C171.268 16.7533 170.884 17.2259 170.372 17.5523C169.879 17.8788 169.248 18.1022 168.481 18.2225C167.713 18.3427 166.808 18.4029 165.767 18.4029C165.109 18.4029 164.296 18.3771 163.327 18.3256C162.358 18.274 161.253 18.1537 160.01 17.9647L160.147 16.7276C161.079 16.7619 161.856 16.7963 162.477 16.8307C163.117 16.8478 163.692 16.865 164.204 16.8822C164.716 16.8822 165.255 16.8822 165.822 16.8822C166.881 16.865 167.722 16.7791 168.343 16.6245C168.965 16.4698 169.403 16.1605 169.659 15.6966C169.933 15.2326 170.071 14.5281 170.071 13.5831C170.071 12.8099 169.979 12.2085 169.796 11.7789C169.632 11.3321 169.349 10.9971 168.947 10.7737C168.563 10.5331 168.06 10.3613 167.439 10.2582L163.409 9.45919C162.057 9.20144 161.097 8.68596 160.531 7.91273C159.982 7.12231 159.708 6.03979 159.708 4.66516C159.708 3.617 159.827 2.78363 160.065 2.16505C160.321 1.52928 160.686 1.05675 161.161 0.747456C161.655 0.438163 162.276 0.24056 163.025 0.154646C163.775 0.0515485 164.661 0 165.684 0Z" fill="white"/>
<path d="M182.176 0.309291V18.0936H180.367V0.309291H182.176ZM188.481 0.309291V1.8042H174.089V0.309291H188.481Z" fill="white"/>
<path d="M59.7841 0.308594L54.8497 7.47386C54.6487 7.78315 54.4294 8.04949 54.1918 8.27287C53.9542 8.49624 53.7166 8.68526 53.479 8.8399V8.91723C53.7349 9.05469 54.009 9.26088 54.3014 9.53581C54.5938 9.81074 54.8314 10.1028 55.0142 10.4121L60.113 18.0929H55.4254L49.5864 8.78835L55.2609 0.308594H59.7841ZM48.9559 0.308594V5.33459C48.9559 5.91881 48.9102 6.50303 48.8188 7.08725C48.7274 7.65428 48.5812 8.21273 48.3802 8.76258C48.5264 9.29525 48.6543 9.8451 48.764 10.4121C48.8919 10.962 48.9559 11.4775 48.9559 11.9586V18.0929H44.7891V0.308594H48.9559ZM51.0941 7.47386V10.2059H47.6949V7.47386H51.0941Z" fill="white"/>
<path d="M70.579 0.308594V18.0929H66.3848V0.308594H70.579ZM76.281 0.308594V3.40152H60.7103V0.308594H76.281Z" fill="white"/>
<path d="M94.0601 0.308594L88.9064 17.0104C88.8151 17.3197 88.6323 17.5774 88.3582 17.7836C88.1023 17.9898 87.7916 18.0929 87.4261 18.0929H83.5883C83.2045 18.0929 82.8756 17.9898 82.6014 17.7836C82.3456 17.5774 82.1811 17.3197 82.108 17.0104L76.9269 0.308594H81.2582L84.7122 13.1442C84.7853 13.4707 84.8584 13.8058 84.9315 14.1494C85.0229 14.4759 85.096 14.8024 85.1508 15.1288H85.8636C85.9184 14.8024 85.9824 14.4673 86.0555 14.1236C86.1469 13.78 86.2382 13.4449 86.3296 13.1184L89.7563 0.308594H94.0601Z" fill="white"/>
</svg>
