<svg width="12" height="20" viewBox="0 0 12 20" fill="none" xmlns="http://www.w3.org/2000/svg">
<path d="M5.98541 10.341C3.16041 10.341 0.812415 7.995 0.812415 5.219C0.812415 2.347 3.16041 0 5.98641 0C8.90841 0 11.1594 2.346 11.1594 5.219C11.1544 6.58205 10.6084 7.88734 9.64135 8.84797C8.67434 9.80861 7.36547 10.346 6.00241 10.342L5.98541 10.341V10.341ZM5.98541 3.017C4.78941 3.017 3.87941 4.022 3.87941 5.22C3.87941 6.416 4.78941 7.326 5.98641 7.326C7.23141 7.326 8.09341 6.416 8.09341 5.22C8.09441 4.021 7.23141 3.017 5.98541 3.017ZM8.04541 14.603L10.9684 17.428C11.5434 18.049 11.5434 18.959 10.9684 19.534C10.3464 20.155 9.38741 20.155 8.90841 19.534L5.98641 16.661L3.16041 19.534C2.87341 19.821 2.48941 19.964 2.05741 19.964C1.72241 19.964 1.33941 19.82 1.00341 19.534C0.428415 18.959 0.428415 18.049 1.00341 17.427L3.97341 14.602C2.90085 14.2844 1.87195 13.8346 0.910414 13.263C0.191414 12.88 0.0484146 11.923 0.431415 11.204C0.910415 10.486 1.77241 10.295 2.53941 10.774C3.57801 11.4078 4.7712 11.7431 5.98791 11.7431C7.20463 11.7431 8.39782 11.4078 9.43641 10.774C10.2034 10.295 11.1124 10.486 11.5434 11.204C11.9754 11.923 11.7824 12.879 11.1114 13.263C10.2024 13.838 9.14841 14.269 8.04641 14.604L8.04541 14.603V14.603Z" fill="white"/>
</svg>
