<svg width="14" height="16" viewBox="0 0 14 16" fill="none" xmlns="http://www.w3.org/2000/svg">
<path d="M12.4452 4.07214C12.637 2.82164 12.4452 1.98798 11.7739 1.21844C11.0387 0.352705 9.6961 0 7.96994 0H3.01523C2.66361 0 2.37591 0.256513 2.31198 0.609218L0.234198 13.7555C0.202233 14.012 0.394028 14.2365 0.649755 14.2365H3.71848L3.49472 15.5832C3.46275 15.8076 3.62258 16 3.87831 16H6.46755C6.7872 16 7.04293 15.7756 7.0749 15.487L7.61832 12.0882C7.65028 11.7996 7.93798 11.5751 8.22567 11.5751H8.60926C11.1026 11.5751 13.0845 10.5491 13.6599 7.5992C13.8836 6.38076 13.7877 5.32265 13.1484 4.61723C12.9566 4.39279 12.7329 4.23246 12.4452 4.07214Z" fill="#009CDE"/>
<path d="M12.4452 4.07214C12.637 2.82164 12.4452 1.98798 11.7739 1.21844C11.0387 0.352705 9.6961 0 7.96994 0H3.01523C2.6636 0 2.37591 0.256513 2.31198 0.609218L0.234198 13.7555C0.202233 14.012 0.394028 14.2365 0.649755 14.2365H3.71848L4.45369 9.49098C4.51763 9.13828 4.80532 8.88176 5.15694 8.88176H6.62737C9.5043 8.88176 11.7419 7.72745 12.3812 4.32866C12.4132 4.26453 12.4132 4.16834 12.4452 4.07214Z" fill="#012169"/>
<path d="M5.31677 4.10421C5.34874 3.87976 5.63643 3.59118 5.92412 3.59118H9.82396C10.2715 3.59118 10.719 3.62325 11.1026 3.68737C11.4542 3.7515 12.0935 3.91182 12.4132 4.10421C12.605 2.85371 12.4132 2.02004 11.7419 1.2505C11.0387 0.352705 9.6961 0 7.96994 0H3.01523C2.6636 0 2.37591 0.256513 2.31198 0.609218L0.234198 13.7555C0.202233 14.012 0.394028 14.2365 0.649755 14.2365H3.71848L5.31677 4.10421Z" fill="#003087"/>
</svg>
