<svg width="20" height="20" viewBox="0 0 20 20" fill="none" xmlns="http://www.w3.org/2000/svg">
<path fill-rule="evenodd" clip-rule="evenodd" d="M10 0C15.5229 0 20.0001 4.47714 20.0001 10C20.0001 15.5229 15.5229 20.0001 10 20.0001C4.47714 20.0001 0 15.5229 0 10C0 4.47714 4.47714 0 10 0ZM7.59631 15.5404C8.21137 14.9919 8.63365 14.2106 8.83975 13.4094C8.92285 13.0935 9.26197 11.8002 9.26197 11.8002C9.48139 12.2225 10.1297 12.5782 10.8113 12.5782C12.8526 12.5782 14.3221 10.7031 14.3221 8.36587C14.3221 6.12841 12.4969 4.45608 10.1496 4.45608C7.22725 4.45608 5.67799 6.41761 5.67799 8.55205C5.67799 9.54283 6.20659 10.7796 7.05103 11.1719C7.17739 11.235 7.24717 11.2051 7.27711 11.0788C7.29709 10.9824 7.41343 10.5269 7.46659 10.3108C7.48327 10.2443 7.47661 10.1811 7.42003 10.1146C7.14079 9.77551 6.91471 9.15049 6.91471 8.57197C6.91471 7.07917 8.04511 5.63299 9.97003 5.63299C11.6324 5.63299 12.796 6.76339 12.796 8.38579C12.796 10.2176 11.8717 11.4877 10.6682 11.4877C10.0033 11.4877 9.50461 10.9391 9.66745 10.2642C9.86029 9.45961 10.2293 8.59189 10.2293 8.01343C10.2293 7.49479 9.95335 7.06255 9.37153 7.06255C8.68999 7.06255 8.14807 7.76407 8.14807 8.70823C8.14807 9.30667 8.34751 9.71227 8.34751 9.71227C8.34751 9.71227 7.67593 12.5482 7.55293 13.0768C7.41661 13.662 7.46983 14.4832 7.52965 15.0184L7.58947 15.5437L7.59613 15.5404V15.5403L7.59631 15.5404Z" fill="white"/>
</svg>
