<svg width="16" height="16" viewBox="0 0 16 16" fill="none" xmlns="http://www.w3.org/2000/svg">
<path fill-rule="evenodd" clip-rule="evenodd" d="M3.17188 1.60259C3.17188 0.717506 3.88822 0 4.77187 0H11.2263C12.11 0 12.8263 0.717506 12.8263 1.60259V3.3005H14.3952C15.2789 3.3005 15.9952 4.01801 15.9952 4.9031V11.7006C15.9952 12.5857 15.2789 13.3032 14.3952 13.3032H12.3612V12.1013H14.3952C14.6162 12.1013 14.7952 11.9219 14.7952 11.7006V4.9031C14.7952 4.68182 14.6162 4.50245 14.3952 4.50245H1.6C1.37909 4.50245 1.2 4.68182 1.2 4.9031V11.7006C1.2 11.9219 1.37909 12.1013 1.6 12.1013H3.75276V13.3032H1.6C0.716345 13.3032 0 12.5857 0 11.7006V4.9031C0 4.01801 0.716345 3.3005 1.6 3.3005H3.17188V1.60259ZM4.77187 1.20194C4.55096 1.20194 4.37187 1.38132 4.37187 1.60259V3.30029H11.6263V1.60259C11.6263 1.38132 11.4472 1.20194 11.2263 1.20194H4.77187ZM4.03674 7.63395C4.47448 7.63395 4.82935 7.26455 4.82935 6.80887C4.82935 6.3532 4.47448 5.9838 4.03674 5.9838C3.599 5.9838 3.24414 6.3532 3.24414 6.80887C3.24414 7.26455 3.599 7.63395 4.03674 7.63395Z" fill="#1F336D"/>
<path fill-rule="evenodd" clip-rule="evenodd" d="M3.16758 10.3909C3.16758 9.50584 3.88392 8.78833 4.76758 8.78833H11.2176C12.1012 8.78833 12.8176 9.50584 12.8176 10.3909V14.3974C12.8176 15.2825 12.1012 16 11.2176 16H4.76758C3.88392 16 3.16758 15.2825 3.16758 14.3974V10.3909ZM4.76758 9.99028C4.54666 9.99028 4.36758 10.1697 4.36758 10.3909V14.3974C4.36758 14.6187 4.54666 14.7981 4.76758 14.7981H11.2176C11.4385 14.7981 11.6176 14.6187 11.6176 14.3974V10.3909C11.6176 10.1697 11.4385 9.99028 11.2176 9.99028H4.76758Z" fill="#1F336D"/>
</svg>
