<svg width="20" height="6" viewBox="0 0 20 6" fill="none" xmlns="http://www.w3.org/2000/svg">
<path d="M9.00907 1.80668V0.669983L7.93972 0.808583V1.80668H7.52356V2.74723H7.93972V5.31063H9.00907V2.74723H9.78434V1.80668H9.00907ZM3.16479 3.49375C3.49054 3.23097 3.69959 2.87146 3.69959 2.42018V2.22388C3.69959 1.43143 3.05725 0.849188 2.26519 0.849188L0 0.840394L0.00135686 5.28706L1.07126 5.2955V3.78623H2.17097L2.88784 5.2955H4.14002L3.16479 3.49375ZM2.60632 2.36625C2.60632 2.6818 2.35043 2.8609 2.03488 2.8609H1.07131V1.79306H2.03488C2.35043 1.79306 2.60632 2.01473 2.60632 2.33037V2.36625ZM15.1845 1.78808H14.6184V0.652344L13.5722 0.790894L13.572 5.2955H15.1845C15.9769 5.2955 16.619 4.68723 16.619 3.89513V3.22258C16.619 2.43038 15.9769 1.78808 15.1845 1.78808ZM15.5939 3.80512C15.5939 4.13876 15.3688 4.33671 15.0353 4.33671H14.6218V2.74758H15.0353C15.3688 2.74758 15.5939 2.94573 15.5939 3.27932V3.80512ZM12.0711 1.80668V3.8302C12.0711 4.16368 11.9498 4.38912 11.6161 4.38912H11.5996C11.2662 4.38912 11.1446 4.16368 11.1446 3.8302V1.80668H10.0891V3.90744C10.0891 4.69974 10.4359 5.34214 11.4896 5.34214H11.692C12.8018 5.34214 13.1268 4.69974 13.1268 3.90744V1.80668H12.0711ZM6.12193 1.80668V3.8302C6.12193 4.16368 6.00052 4.38912 5.66693 4.38912H5.6504C5.31701 4.38912 5.1955 4.16368 5.1955 3.8302V1.80668H4.14002V3.90744C4.14002 4.69974 4.48657 5.34214 5.54029 5.34214H5.74287C6.85242 5.34214 7.17751 4.69974 7.17751 3.90744V1.80668H6.12193ZM19.2965 4.12077C19.2965 4.12077 18.9877 4.49918 18.4448 4.45677C18.1066 4.43043 17.906 4.25856 17.906 3.92508V3.80884H19.9766V3.20836C19.9766 2.4357 19.4105 1.75793 18.4475 1.75793C17.4847 1.75793 16.9172 2.40163 16.9172 3.17434V3.89664C16.9172 4.66979 17.4835 5.34752 18.4464 5.34752C19.5347 5.34752 20 4.58848 20 4.58848L19.2965 4.12077ZM17.906 3.01061C17.906 2.68496 18.1136 2.48892 18.4226 2.47988H18.4493C18.7709 2.47988 18.9881 2.67798 18.9881 3.01141V3.04086H17.906V3.01061Z" fill="white"/>
</svg>
