<svg width="22" height="22" viewBox="0 0 22 22" fill="none" xmlns="http://www.w3.org/2000/svg">
<path d="M20.6334 10.5531C20.6352 10.5531 20.6365 10.5531 20.6382 10.5531C20.761 10.5531 20.878 10.5017 20.9612 10.4115C21.0457 10.3199 21.0875 10.1972 21.0765 10.0731C20.6347 5.21417 16.7878 1.36593 11.9284 0.923293C11.8052 0.913613 11.6812 0.953653 11.5896 1.03857C11.4981 1.12305 11.4471 1.24229 11.4484 1.36681C11.525 7.82425 12.3768 10.4629 20.6334 10.5531ZM20.6334 11.4455C12.3768 11.5357 11.5254 14.1743 11.4488 20.6318C11.4475 20.7563 11.4986 20.8755 11.5901 20.96C11.6719 21.0353 11.7788 21.0771 11.8888 21.0771C11.902 21.0771 11.9157 21.0766 11.9289 21.0753C16.7882 20.6327 20.6352 16.7849 21.0765 11.9255C21.0875 11.8014 21.0461 11.6787 20.9612 11.5871C20.8763 11.4956 20.7579 11.4503 20.6334 11.4455ZM10.0422 0.925493C5.19821 1.38089 1.36361 5.22825 0.924045 10.074C0.913045 10.1981 0.954405 10.3208 1.03933 10.4123C1.12249 10.5025 1.23997 10.5536 1.36229 10.5536C1.36405 10.5536 1.36581 10.5536 1.36757 10.5536C9.59688 10.459 10.4465 7.82161 10.524 1.36857C10.5253 1.24405 10.4738 1.12437 10.3823 1.03989C10.2899 0.955413 10.1662 0.914053 10.0422 0.925493ZM1.36713 11.445C1.23029 11.4296 1.12293 11.4947 1.03889 11.5863C0.954405 11.6778 0.912605 11.8005 0.923605 11.9246C1.36317 16.7703 5.19821 20.6177 10.0422 21.0731C10.0558 21.0744 10.0699 21.0749 10.0835 21.0749C10.1935 21.0749 10.3 21.0335 10.3818 20.9583C10.4734 20.8738 10.5248 20.7541 10.5235 20.6296C10.4461 14.177 9.59689 11.5396 1.36713 11.445Z" fill="white"/>
</svg>
