<svg width="16" height="16" viewBox="0 0 16 16" fill="none" xmlns="http://www.w3.org/2000/svg">
<path d="M6.84199 13.684C8.36004 13.6837 9.83434 13.1755 11.0301 12.2403L14.7898 16L15.9991 14.7907L12.2395 11.031C13.1751 9.83508 13.6836 8.36043 13.684 6.84199C13.684 3.06949 10.6145 0 6.84199 0C3.06949 0 0 3.06949 0 6.84199C0 10.6145 3.06949 13.684 6.84199 13.684ZM6.84199 1.7105C9.67201 1.7105 11.9735 4.01197 11.9735 6.84199C11.9735 9.67201 9.67201 11.9735 6.84199 11.9735C4.01197 11.9735 1.7105 9.67201 1.7105 6.84199C1.7105 4.01197 4.01197 1.7105 6.84199 1.7105Z" fill="#1F336D"/>
</svg>
