<svg width="16" height="16" viewBox="0 0 16 16" fill="none" xmlns="http://www.w3.org/2000/svg">
<path d="M12.6182 10.2921C12.1867 10.2943 11.7613 10.3923 11.3733 10.579C10.9852 10.7657 10.6444 11.0364 10.3761 11.3709L6.16285 8.76242C6.31641 8.27163 6.31641 7.74632 6.16285 7.25554L10.3761 4.64704C10.8037 5.17143 11.405 5.52901 12.0733 5.65642C12.7417 5.78384 13.434 5.67288 14.0277 5.34319C14.6213 5.01349 15.078 4.48636 15.3168 3.85516C15.5556 3.22395 15.561 2.52943 15.3322 1.89461C15.1035 1.25979 14.6552 0.72565 14.0668 0.386814C13.4784 0.0479776 12.7879 -0.0736863 12.1176 0.0433743C11.4473 0.160435 10.8405 0.508664 10.4047 1.02637C9.96881 1.54409 9.73205 2.19786 9.73633 2.87189C9.73905 3.12713 9.77785 3.38074 9.8516 3.62533L5.63836 6.23383C5.2664 5.77011 4.75798 5.43247 4.18358 5.26771C3.60918 5.10295 2.99725 5.11923 2.43262 5.3143C1.86798 5.50936 1.3786 5.87355 1.03232 6.35638C0.686035 6.8392 0.5 7.41676 0.5 8.00898C0.5 8.6012 0.686035 9.17875 1.03232 9.66158C1.3786 10.1444 1.86798 10.5086 2.43262 10.7037C2.99725 10.8987 3.60918 10.915 4.18358 10.7502C4.75798 10.5855 5.2664 10.2478 5.63836 9.78412L9.8516 12.3926C9.77785 12.6372 9.73905 12.8908 9.73633 13.1461C9.73633 13.7105 9.90535 14.2623 10.222 14.7316C10.5387 15.201 10.9887 15.5667 11.5153 15.7828C12.0419 15.9988 12.6214 16.0553 13.1804 15.9452C13.7394 15.835 14.2529 15.5632 14.6559 15.1641C15.059 14.765 15.3334 14.2564 15.4446 13.7028C15.5558 13.1492 15.4988 12.5754 15.2806 12.0539C15.0625 11.5324 14.6931 11.0867 14.2192 10.7731C13.7453 10.4595 13.1881 10.2921 12.6182 10.2921V10.2921ZM12.6182 1.15953C12.9601 1.15953 13.2945 1.25996 13.5788 1.44811C13.8631 1.63627 14.0848 1.9037 14.2156 2.2166C14.3465 2.52949 14.3808 2.87379 14.314 3.20596C14.2473 3.53812 14.0826 3.84323 13.8408 4.08271C13.599 4.32219 13.2909 4.48528 12.9555 4.55135C12.6201 4.61742 12.2724 4.58351 11.9565 4.45391C11.6405 4.3243 11.3705 4.10482 11.1805 3.82323C10.9905 3.54163 10.8891 3.21056 10.8891 2.87189C10.8891 2.41774 11.0712 1.9822 11.3955 1.66107C11.7198 1.33994 12.1596 1.15953 12.6182 1.15953V1.15953ZM3.39629 9.72134C3.05431 9.72134 2.72001 9.62091 2.43566 9.43275C2.15131 9.2446 1.92968 8.97716 1.79881 8.66427C1.66794 8.35138 1.6337 8.00708 1.70042 7.67491C1.76713 7.34275 1.93182 7.03763 2.17363 6.79815C2.41545 6.55867 2.72355 6.39559 3.05896 6.32952C3.39438 6.26344 3.74204 6.29736 4.05799 6.42696C4.37394 6.55656 4.64399 6.77604 4.83399 7.05764C5.02398 7.33924 5.12539 7.6703 5.12539 8.00898C5.12539 8.46312 4.94322 8.89867 4.61895 9.2198C4.29468 9.54093 3.85488 9.72134 3.39629 9.72134ZM12.6182 14.8584C12.2762 14.8584 11.9419 14.758 11.6575 14.5698C11.3732 14.3817 11.1516 14.1142 11.0207 13.8014C10.8898 13.4885 10.8556 13.1442 10.9223 12.812C10.989 12.4798 11.1537 12.1747 11.3955 11.9352C11.6373 11.6958 11.9454 11.5327 12.2808 11.4666C12.6162 11.4005 12.9639 11.4344 13.2799 11.564C13.5958 11.6937 13.8659 11.9131 14.0559 12.1947C14.2459 12.4763 14.3473 12.8074 14.3473 13.1461C14.3473 13.6002 14.1651 14.0358 13.8408 14.3569C13.5166 14.678 13.0767 14.8584 12.6182 14.8584V14.8584Z" fill="#ffffff"/>
</svg>
