<svg width="10" height="6" viewBox="0 0 10 6" fill="none" xmlns="http://www.w3.org/2000/svg">
<path d="M9.74169 1.64326L5.66276 5.71588C5.57437 5.80591 5.46922 5.87736 5.35335 5.92613C5.23749 5.97489 5.11321 6 4.9877 6C4.86218 6 4.73791 5.97489 4.62204 5.92613C4.50618 5.87736 4.40102 5.80591 4.31263 5.71588L0.281245 1.64326C0.192128 1.55396 0.121394 1.44773 0.0731228 1.33068C0.024852 1.21363 0 1.08809 0 0.961285C0 0.834485 0.024852 0.708939 0.0731228 0.59189C0.121394 0.474841 0.192128 0.368606 0.281245 0.279313C0.459388 0.100415 0.70037 0 0.951557 0C1.20274 0 1.44373 0.100415 1.62187 0.279313L4.9877 3.67957L8.35352 0.279313C8.53062 0.101862 8.76965 0.00182199 9.01908 0.000761032C9.14421 3.00407e-05 9.26826 0.0242591 9.3841 0.0720592C9.49994 0.119859 9.60531 0.19029 9.69415 0.279313C9.78645 0.365393 9.86095 0.469097 9.91334 0.584433C9.96574 0.699768 9.99499 0.824449 9.99941 0.951272C10.0038 1.07809 9.98333 1.20455 9.9391 1.32332C9.89486 1.44209 9.82777 1.55083 9.74169 1.64326Z" fill="#1F336D"/>
</svg>
