<svg width="20" height="20" viewBox="0 0 20 20" fill="none" xmlns="http://www.w3.org/2000/svg">
<path d="M18.1818 0H1.81818C0.813636 0 0 0.813636 0 1.81818V18.1818C0 19.1864 0.813636 20 1.81818 20H18.1818C19.1864 20 20 19.1864 20 18.1818V1.81818C20 0.813636 19.1855 0 18.1818 0ZM16.99 8.61273C16.8718 8.62364 16.7527 8.63091 16.6327 8.63091C15.2736 8.63091 14.0791 7.93273 13.3836 6.87545C13.3836 9.64727 13.3836 12.8018 13.3836 12.8545C13.3836 15.2955 11.4045 17.2736 8.96455 17.2736C6.52455 17.2727 4.54545 15.2936 4.54545 12.8536C4.54545 10.4127 6.52455 8.43455 8.96455 8.43455C9.05727 8.43455 9.14727 8.44273 9.23727 8.44818V10.6264C9.14636 10.6155 9.05818 10.5991 8.96455 10.5991C7.71909 10.5991 6.70909 11.6091 6.70909 12.8545C6.70909 14.1 7.71818 15.11 8.96455 15.11C10.2109 15.11 11.3109 14.1282 11.3109 12.8827C11.3109 12.8327 11.3327 2.72818 11.3327 2.72818H13.4136C13.6091 4.58909 15.1118 6.05818 16.99 6.19273V8.61273V8.61273Z" fill="white"/>
</svg>
