<svg width="40" height="40" viewBox="0 0 40 40" fill="none" xmlns="http://www.w3.org/2000/svg">
<circle cx="20" cy="20" r="20" fill="#14ADE9"/>
<path d="M27.9951 13.9786C27.9952 13.8465 27.9613 13.7168 27.8967 13.6026C27.8322 13.4884 27.7394 13.3938 27.6278 13.3285C27.5161 13.2632 27.3897 13.2294 27.2613 13.2308C27.1329 13.2321 27.0071 13.2684 26.8967 13.3359C26.4712 13.5965 26.013 13.796 25.535 13.929C24.8523 13.3264 23.9815 12.9967 23.0819 13C22.095 13.0012 21.1472 13.3968 20.4386 14.1034C19.7299 14.8099 19.316 15.7721 19.2841 16.7867C17.3385 16.4676 15.5752 15.423 14.3304 13.8523C14.2554 13.7587 14.1596 13.685 14.0511 13.6375C13.9426 13.5899 13.8246 13.5699 13.707 13.5791C13.5895 13.5891 13.4761 13.6283 13.3766 13.6935C13.2772 13.7586 13.1946 13.8477 13.1362 13.9531C12.8363 14.4914 12.664 15.0948 12.6334 15.7144C12.6028 16.3341 12.7148 16.9524 12.9601 17.5192L12.9587 17.5206C12.8484 17.5905 12.7574 17.6883 12.6944 17.8046C12.6314 17.921 12.5984 18.052 12.5987 18.1852C12.5973 18.2951 12.6038 18.4049 12.6179 18.5139C12.6921 19.4548 13.0975 20.3356 13.7581 20.9911C13.7133 21.0789 13.686 21.175 13.6777 21.2738C13.6694 21.3726 13.6803 21.4722 13.7098 21.5666C13.9978 22.4895 14.6103 23.2687 15.4273 23.7517C14.5972 24.0819 13.7009 24.197 12.8174 24.0869C12.6538 24.0658 12.4882 24.1025 12.3476 24.1909C12.207 24.2794 12.0998 24.4144 12.0436 24.5737C11.9874 24.7331 11.9855 24.9074 12.0382 25.068C12.091 25.2286 12.1952 25.366 12.3339 25.4577C13.8535 26.4644 15.6228 26.9996 17.4303 26.9994C19.48 27.0231 21.4799 26.3494 23.1189 25.083C24.7578 23.8166 25.9439 22.0286 26.4927 19.9971C26.7494 19.1121 26.8805 18.1937 26.8819 17.2701C26.8819 17.2212 26.8819 17.1708 26.8811 17.1204C27.2607 16.6994 27.5548 16.2046 27.7461 15.6651C27.9374 15.1256 28.022 14.5522 27.9951 13.9786ZM25.591 16.3806C25.471 16.5267 25.4102 16.7148 25.4214 16.9057C25.4285 17.0291 25.4277 17.1533 25.4277 17.2701C25.4263 18.0506 25.3151 18.8266 25.0976 19.5743C24.6494 21.3028 23.6502 22.8267 22.26 23.9017C20.8698 24.9768 19.1691 25.5409 17.4303 25.5037C16.8057 25.5039 16.1832 25.4284 15.5758 25.2788C16.3504 25.022 17.0746 24.6261 17.715 24.1095C17.8329 24.014 17.9193 23.8833 17.9621 23.7353C18.005 23.5873 18.0022 23.4293 17.9543 23.283C17.9064 23.1367 17.8156 23.0092 17.6945 22.918C17.5733 22.8268 17.4277 22.7765 17.2776 22.7738C16.6733 22.7641 16.0963 22.5136 15.668 22.0749C15.7767 22.0537 15.8846 22.0274 15.9918 21.996C16.1488 21.95 16.2863 21.851 16.382 21.7149C16.4777 21.5788 16.526 21.4136 16.5193 21.2458C16.5126 21.0779 16.4512 20.9173 16.3449 20.7898C16.2387 20.6623 16.0938 20.5752 15.9336 20.5427C15.5828 20.4714 15.2527 20.3179 14.969 20.0941C14.6853 19.8703 14.4556 19.5822 14.2977 19.2522C14.4291 19.2707 14.5614 19.2821 14.6939 19.2865C14.8514 19.289 15.0055 19.2399 15.134 19.1463C15.2626 19.0526 15.3588 18.9194 15.4089 18.7658C15.4568 18.6109 15.4544 18.444 15.4018 18.2906C15.3493 18.1372 15.2496 18.0056 15.1178 17.9157C14.798 17.6966 14.536 17.3993 14.3554 17.0505C14.1747 16.7016 14.081 16.3121 14.0826 15.9169C14.0826 15.8672 14.084 15.8176 14.0869 15.7686C15.7163 17.3318 17.8299 18.2533 20.0552 18.3707C20.1675 18.3753 20.2793 18.3535 20.3823 18.3071C20.4852 18.2607 20.5766 18.1908 20.6494 18.1027C20.7215 18.0138 20.7726 17.9089 20.7986 17.7962C20.8246 17.6836 20.8248 17.5662 20.7992 17.4535C20.7576 17.275 20.7364 17.0922 20.736 16.9086C20.7367 16.2689 20.984 15.6555 21.4238 15.2032C21.8636 14.7508 22.4599 14.4964 23.0819 14.4957C23.4019 14.4948 23.7186 14.5622 24.012 14.6935C24.3054 14.8249 24.5692 15.0174 24.7866 15.2589C24.8705 15.3517 24.976 15.4208 25.0932 15.4598C25.2104 15.4988 25.3353 15.5063 25.4561 15.4816C25.7548 15.4219 26.0492 15.3413 26.3372 15.2406C26.1407 15.6542 25.8896 16.0378 25.591 16.3806Z" fill="white"/>
</svg>
