<svg width="21" height="20" viewBox="0 0 21 20" fill="none" xmlns="http://www.w3.org/2000/svg">
<path d="M10.245 0C8.73106 0 4.98629 0.159054 2.99423 2.07143C1.55995 3.42604 1.00248 5.49809 0.922798 7.96825C0.763433 11.8727 1.63932 14.3425 3.0736 15.6175C3.39233 15.8565 4.18978 16.4949 5.70375 16.973V18.9651C5.70375 18.9651 5.70344 19.7613 6.18153 19.9206C6.26121 19.9206 6.34152 20 6.4212 20C6.8993 20 7.29678 19.4419 7.85455 18.8841C8.33265 18.3264 8.73137 17.9286 8.97042 17.5302H10.0863H10.7244C12.2383 17.5302 15.9831 17.3711 17.9752 15.4587C19.4095 14.0244 19.9672 11.9518 19.9672 9.32223C20.0469 8.92382 20.0466 8.44635 20.0466 7.96825C19.9669 5.02 19.091 3.02825 17.8958 1.91269C17.4177 1.51428 15.3453 0 10.8831 0H10.245ZM10.0863 1.51428H10.6434H10.7244H10.8037C15.0269 1.51428 16.6206 2.86919 16.7799 3.02856C17.7361 3.82538 18.2939 5.57809 18.3736 7.88888V8.20792C18.4533 8.68602 18.4529 9.08318 18.4529 9.32223C18.3733 11.7127 17.8949 13.307 16.9387 14.3429C15.2653 15.8568 11.7599 15.9365 10.8037 15.9365H10.245H10.1657H10.0863H9.28946L8.01485 17.3714L7.21803 18.2476L7.05773 18.4857C6.89836 18.6451 6.65994 18.9648 6.50057 19.0444V18.8841V15.4587C4.90692 15.0603 4.26946 14.5022 4.1101 14.3429C2.99454 13.3867 2.35708 11.0759 2.51645 7.96825V7.17143C2.67581 5.25905 3.15453 3.98444 3.95136 3.10793C5.62469 1.59396 9.1301 1.51428 10.0863 1.51428ZM10.0069 3.26667C9.6085 3.26667 9.6085 3.82538 10.0069 3.82538C12.9552 3.82538 15.5053 5.81682 15.5053 9.5619C15.5053 9.96031 16.0625 9.96031 16.0625 9.5619C16.0625 5.49809 13.3536 3.18699 10.0069 3.26667ZM6.84918 4.00436C6.67986 3.98444 6.5012 4.02334 6.34183 4.14287C5.54501 4.54128 4.74725 5.33935 4.98629 6.21586C4.98629 6.21586 5.14628 6.93207 6.02279 8.44604C6.50088 9.16318 6.89899 9.80126 7.2974 10.2794C7.69581 10.8371 8.33296 11.4743 8.97042 11.9524C10.2453 12.9882 12.2383 14.0244 13.1148 14.2635C13.9117 14.5025 14.7879 13.7048 15.1863 12.9079C15.3456 12.5892 15.2653 12.1914 14.9466 11.9524C14.4685 11.4743 13.6726 10.9171 13.1148 10.5984C12.7164 10.3593 12.2377 10.5181 12.0783 10.7571L11.6799 11.2349C11.5206 11.474 11.1228 11.4746 11.1228 11.4746C8.49326 10.7575 7.77518 8.04762 7.77518 8.04762C7.77518 8.04762 7.7758 7.72952 8.01485 7.49047L8.49264 7.09206C8.73168 6.93269 8.89043 6.45397 8.65138 6.05556C8.49201 5.81651 8.2539 5.33904 8.01485 5.09999C7.7758 4.78126 7.2974 4.2238 7.2974 4.2238C7.17787 4.10427 7.01851 4.02428 6.84918 4.00436ZM10.5641 4.86032C10.1657 4.78064 10.0863 5.41903 10.4847 5.41903C12.7158 5.5784 13.9914 7.09237 13.9117 9.00475C13.832 9.40316 14.4688 9.40316 14.4688 9.00475C14.5485 6.77364 13.1139 4.94 10.5641 4.86032ZM10.8037 6.3746C10.4053 6.29492 10.4053 6.93176 10.8037 6.93176C11.7599 6.93176 12.2371 7.48985 12.2371 8.44604C12.3168 8.84445 12.8752 8.84445 12.8752 8.44604C12.7955 7.17112 12.0787 6.3746 10.8037 6.3746Z" fill="#E0BB7F"/>
</svg>
