<svg width="16" height="12" viewBox="0 0 16 12" fill="none" xmlns="http://www.w3.org/2000/svg">
<path d="M7.99975 1.248C9.85675 1.248 11.5258 1.889 12.6497 3.042C13.5746 3.16228 14.4471 3.53996 15.1678 4.132C13.9068 1.482 11.2948 0 7.99975 0C4.74975 0 2.11975 1.48 0.84375 4.122C1.50448 3.58271 2.29267 3.22219 3.13275 3.075C4.23575 1.872 5.97375 1.248 7.99975 1.248Z" fill="#ffffff"/>
<path d="M12 12C10.9595 12.0012 9.95968 11.5957 9.21399 10.87L9.21199 10.868C9.12581 10.8032 9.03334 10.7473 8.93599 10.701C8.64291 10.565 8.32308 10.4963 7.99999 10.5C7.58599 10.5 7.27099 10.603 7.06499 10.701C6.96729 10.7472 6.87449 10.8032 6.78799 10.868L6.78599 10.87C6.31581 11.3265 5.74068 11.6604 5.11117 11.8425C4.48167 12.0246 3.81707 12.0492 3.17582 11.9142C2.53456 11.7792 1.93629 11.4888 1.43361 11.0684C0.930926 10.648 0.539231 10.1105 0.292962 9.50322C0.0466939 8.89595 -0.0466041 8.23747 0.0212717 7.58569C0.0891475 6.9339 0.316118 6.30878 0.682226 5.76528C1.04833 5.22177 1.54237 4.77654 2.12088 4.46873C2.6994 4.16092 3.34468 3.99996 3.99999 4H12C13.0609 4 14.0783 4.42143 14.8284 5.17157C15.5786 5.92172 16 6.93913 16 8C16 9.06087 15.5786 10.0783 14.8284 10.8284C14.0783 11.5786 13.0609 12 12 12Z" fill="#ffffff"/>
</svg>
