<svg width="16" height="16" viewBox="0 0 16 16" fill="none" xmlns="http://www.w3.org/2000/svg">
<circle cx="8" cy="8" r="8" fill="#0B0006"/>
<path d="M1.14282 5.71484H1.50589L2.92183 10.7148H2.55877L1.14282 5.71484Z" fill="#FFFDFE"/>
<path d="M2.12308 5.71484H2.48614L3.90209 10.7148H3.53903L2.12308 5.71484Z" fill="#FFFDFE"/>
<path d="M4.19246 5.71484H3.10327L4.51922 10.7148H5.60841L6.57597 7.46484L7.60525 10.7148H8.63998L10.0015 5.71484H8.93043L8.08339 8.91127L7.09696 5.71484H6.06223L5.08196 8.85587L4.19246 5.71484Z" fill="#FEDB32"/>
<path d="M10.0015 8.03627L10.6187 5.71484H11.0907V8.89341C11.0907 9.3668 11.4808 9.75056 11.962 9.75056H12.3251C12.8063 9.75056 13.1964 9.3668 13.1964 8.89341V5.71484H14.2856V8.89341C14.2856 9.97826 13.3916 10.8577 12.2888 10.8577H11.9983C10.8955 10.8577 10.0015 9.97826 10.0015 8.89341V8.03627Z" fill="#FEDB32"/>
</svg>
